%TF.GenerationSoftware,KiCad,Pcbnew,7.0.9*%
%TF.CreationDate,2024-01-31T10:13:27+01:00*%
%TF.ProjectId,preamp2,70726561-6d70-4322-9e6b-696361645f70,2*%
%TF.SameCoordinates,Original*%
%TF.FileFunction,Soldermask,Top*%
%TF.FilePolarity,Negative*%
%FSLAX46Y46*%
G04 Gerber Fmt 4.6, Leading zero omitted, Abs format (unit mm)*
G04 Created by KiCad (PCBNEW 7.0.9) date 2024-01-31 10:13:27*
%MOMM*%
%LPD*%
G01*
G04 APERTURE LIST*
G04 Aperture macros list*
%AMRoundRect*
0 Rectangle with rounded corners*
0 $1 Rounding radius*
0 $2 $3 $4 $5 $6 $7 $8 $9 X,Y pos of 4 corners*
0 Add a 4 corners polygon primitive as box body*
4,1,4,$2,$3,$4,$5,$6,$7,$8,$9,$2,$3,0*
0 Add four circle primitives for the rounded corners*
1,1,$1+$1,$2,$3*
1,1,$1+$1,$4,$5*
1,1,$1+$1,$6,$7*
1,1,$1+$1,$8,$9*
0 Add four rect primitives between the rounded corners*
20,1,$1+$1,$2,$3,$4,$5,0*
20,1,$1+$1,$4,$5,$6,$7,0*
20,1,$1+$1,$6,$7,$8,$9,0*
20,1,$1+$1,$8,$9,$2,$3,0*%
G04 Aperture macros list end*
%ADD10R,0.950000X0.800000*%
%ADD11R,0.800000X0.950000*%
%ADD12R,0.600000X1.200000*%
%ADD13RoundRect,0.175000X-0.175000X0.225000X-0.175000X-0.225000X0.175000X-0.225000X0.175000X0.225000X0*%
%ADD14RoundRect,0.175000X-0.325000X0.175000X-0.325000X-0.175000X0.325000X-0.175000X0.325000X0.175000X0*%
%ADD15R,2.000000X1.350000*%
%ADD16R,1.350000X1.350000*%
%ADD17O,1.350000X1.350000*%
%ADD18R,1.400000X0.900000*%
G04 APERTURE END LIST*
D10*
%TO.C,C7*%
X120142000Y-92444000D03*
X120142000Y-90944000D03*
%TD*%
D11*
%TO.C,C3*%
X112026000Y-92964000D03*
X113526000Y-92964000D03*
%TD*%
D12*
%TO.C,U2*%
X109662000Y-99511000D03*
X108712000Y-99511000D03*
X107762000Y-99511000D03*
X107762000Y-101911000D03*
X109662000Y-101911000D03*
%TD*%
D11*
%TO.C,C6*%
X115074000Y-101600000D03*
X116574000Y-101600000D03*
%TD*%
D13*
%TO.C,RV2*%
X111598000Y-94682000D03*
D14*
X110998000Y-97282000D03*
D13*
X110398000Y-94682000D03*
%TD*%
D11*
%TO.C,R7*%
X112026000Y-91186000D03*
X113526000Y-91186000D03*
%TD*%
D12*
%TO.C,U3*%
X118425000Y-95066000D03*
X117475000Y-95066000D03*
X116525000Y-95066000D03*
X116525000Y-97466000D03*
X118425000Y-97466000D03*
%TD*%
D11*
%TO.C,R4*%
X104152000Y-92964000D03*
X105652000Y-92964000D03*
%TD*%
%TO.C,C1*%
X101104000Y-91186000D03*
X102604000Y-91186000D03*
%TD*%
D12*
%TO.C,U1*%
X109662000Y-90800000D03*
X108712000Y-90800000D03*
X107762000Y-90800000D03*
X107762000Y-93200000D03*
X109662000Y-93200000D03*
%TD*%
D11*
%TO.C,R6*%
X104152000Y-98044000D03*
X105652000Y-98044000D03*
%TD*%
%TO.C,R1*%
X104152000Y-94742000D03*
X105652000Y-94742000D03*
%TD*%
%TO.C,R13*%
X115074000Y-99822000D03*
X116574000Y-99822000D03*
%TD*%
D10*
%TO.C,C5*%
X118364000Y-90956000D03*
X118364000Y-92456000D03*
%TD*%
D11*
%TO.C,R3*%
X105652000Y-91186000D03*
X104152000Y-91186000D03*
%TD*%
%TO.C,R10*%
X113423000Y-97155000D03*
X114923000Y-97155000D03*
%TD*%
%TO.C,R8*%
X112026000Y-99822000D03*
X113526000Y-99822000D03*
%TD*%
D15*
%TO.C,J4*%
X100838000Y-99282000D03*
X100838000Y-97282000D03*
%TD*%
D11*
%TO.C,R12*%
X116624800Y-92913200D03*
X115124800Y-92913200D03*
%TD*%
%TO.C,R2*%
X104152000Y-101600000D03*
X105652000Y-101600000D03*
%TD*%
%TO.C,C4*%
X112026000Y-101600000D03*
X113526000Y-101600000D03*
%TD*%
%TO.C,C2*%
X102604000Y-101600000D03*
X101104000Y-101600000D03*
%TD*%
D16*
%TO.C,J5*%
X121158000Y-94742000D03*
D17*
X121158000Y-96742000D03*
X121158000Y-98742000D03*
%TD*%
D11*
%TO.C,R5*%
X105652000Y-99822000D03*
X104152000Y-99822000D03*
%TD*%
D18*
%TO.C,C8*%
X118618000Y-99634000D03*
X118618000Y-101534000D03*
%TD*%
D15*
%TO.C,J3*%
X100838000Y-93218000D03*
X100838000Y-95218000D03*
%TD*%
D11*
%TO.C,R11*%
X115124800Y-91186000D03*
X116624800Y-91186000D03*
%TD*%
M02*
