M48
; DRILL file {KiCad 7.0.9} date Wed Jan 31 10:13:32 2024
; FORMAT={-:-/ absolute / metric / decimal}
; #@! TF.CreationDate,2024-01-31T10:13:32+01:00
; #@! TF.GenerationSoftware,Kicad,Pcbnew,7.0.9
; #@! TF.FileFunction,Plated,1,2,PTH
FMAT,2
METRIC
; #@! TA.AperFunction,Plated,PTH,ViaDrill
T1C0.400
; #@! TA.AperFunction,Plated,PTH,ComponentDrill
T2C0.800
%
G90
G05
T1
X100.076Y-91.694
X100.076Y-101.092
X100.838Y-96.266
X102.362Y-100.838
X102.87Y-98.806
X106.862Y-91.186
X106.862Y-94.082
X106.862Y-98.044
X106.862Y-99.822
X108.458Y-93.218
X108.458Y-101.981
X109.855Y-98.044
X109.855Y-101.092
X109.982Y-92.456
X110.744Y-90.119
X110.744Y-91.44
X110.744Y-93.218
X110.744Y-100.203
X110.744Y-101.981
X113.526Y-92.075
X113.526Y-100.711
X114.427Y-94.107
X118.425Y-98.552
X121.92Y-90.932
T2
X121.158Y-94.742
X121.158Y-96.742
X121.158Y-98.742
T0
M30
