%TF.GenerationSoftware,KiCad,Pcbnew,9.0.0*%
%TF.CreationDate,2025-04-01T12:45:26+02:00*%
%TF.ProjectId,preamp2,70726561-6d70-4322-9e6b-696361645f70,5*%
%TF.SameCoordinates,Original*%
%TF.FileFunction,Copper,L1,Top*%
%TF.FilePolarity,Positive*%
%FSLAX46Y46*%
G04 Gerber Fmt 4.6, Leading zero omitted, Abs format (unit mm)*
G04 Created by KiCad (PCBNEW 9.0.0) date 2025-04-01 12:45:26*
%MOMM*%
%LPD*%
G01*
G04 APERTURE LIST*
G04 Aperture macros list*
%AMRoundRect*
0 Rectangle with rounded corners*
0 $1 Rounding radius*
0 $2 $3 $4 $5 $6 $7 $8 $9 X,Y pos of 4 corners*
0 Add a 4 corners polygon primitive as box body*
4,1,4,$2,$3,$4,$5,$6,$7,$8,$9,$2,$3,0*
0 Add four circle primitives for the rounded corners*
1,1,$1+$1,$2,$3*
1,1,$1+$1,$4,$5*
1,1,$1+$1,$6,$7*
1,1,$1+$1,$8,$9*
0 Add four rect primitives between the rounded corners*
20,1,$1+$1,$2,$3,$4,$5,0*
20,1,$1+$1,$4,$5,$6,$7,0*
20,1,$1+$1,$6,$7,$8,$9,0*
20,1,$1+$1,$8,$9,$2,$3,0*%
G04 Aperture macros list end*
%TA.AperFunction,SMDPad,CuDef*%
%ADD10R,0.950000X0.800000*%
%TD*%
%TA.AperFunction,SMDPad,CuDef*%
%ADD11R,0.800000X0.950000*%
%TD*%
%TA.AperFunction,SMDPad,CuDef*%
%ADD12O,1.000000X0.400000*%
%TD*%
%TA.AperFunction,SMDPad,CuDef*%
%ADD13RoundRect,0.175000X-0.175000X0.225000X-0.175000X-0.225000X0.175000X-0.225000X0.175000X0.225000X0*%
%TD*%
%TA.AperFunction,SMDPad,CuDef*%
%ADD14RoundRect,0.175000X-0.325000X0.175000X-0.325000X-0.175000X0.325000X-0.175000X0.325000X0.175000X0*%
%TD*%
%TA.AperFunction,SMDPad,CuDef*%
%ADD15R,2.000000X1.350000*%
%TD*%
%TA.AperFunction,ComponentPad*%
%ADD16R,1.350000X1.350000*%
%TD*%
%TA.AperFunction,ComponentPad*%
%ADD17O,1.350000X1.350000*%
%TD*%
%TA.AperFunction,SMDPad,CuDef*%
%ADD18R,0.900000X1.400000*%
%TD*%
%TA.AperFunction,ViaPad*%
%ADD19C,0.800000*%
%TD*%
%TA.AperFunction,Conductor*%
%ADD20C,0.250000*%
%TD*%
G04 APERTURE END LIST*
D10*
%TO.P,C7,1*%
%TO.N,Net-(C6-Pad2)*%
X120142000Y-92444000D03*
%TO.P,C7,2*%
%TO.N,Net-(J5-Pin_1)*%
X120142000Y-90944000D03*
%TD*%
D11*
%TO.P,C3,1*%
%TO.N,Net-(U1--)*%
X112026000Y-92964000D03*
%TO.P,C3,2*%
%TO.N,Net-(C3-Pad2)*%
X113526000Y-92964000D03*
%TD*%
D12*
%TO.P,U2,1,+*%
%TO.N,Net-(U2-+)*%
X108220000Y-99680000D03*
%TO.P,U2,2,V-*%
%TO.N,GND*%
X108220000Y-100330000D03*
%TO.P,U2,3,-*%
%TO.N,Net-(U2--)*%
X108220000Y-100980000D03*
%TO.P,U2,4*%
%TO.N,Net-(C4-Pad2)*%
X110220000Y-100980000D03*
%TO.P,U2,5,V+*%
%TO.N,+5V*%
X110220000Y-99680000D03*
%TD*%
D11*
%TO.P,C6,1*%
%TO.N,Net-(C6-Pad1)*%
X115074000Y-102616000D03*
%TO.P,C6,2*%
%TO.N,Net-(C6-Pad2)*%
X116574000Y-102616000D03*
%TD*%
D13*
%TO.P,RV2,1,1*%
%TO.N,Net-(C3-Pad2)*%
X114646000Y-95120000D03*
D14*
%TO.P,RV2,2,2*%
%TO.N,Net-(U3--)*%
X114046000Y-97720000D03*
D13*
%TO.P,RV2,3,3*%
%TO.N,Net-(C4-Pad2)*%
X113446000Y-95120000D03*
%TD*%
D11*
%TO.P,R7,1*%
%TO.N,Net-(U1--)*%
X112026000Y-91186000D03*
%TO.P,R7,2*%
%TO.N,Net-(C3-Pad2)*%
X113526000Y-91186000D03*
%TD*%
D12*
%TO.P,U3,1,+*%
%TO.N,Net-(U3-+)*%
X116475000Y-95616000D03*
%TO.P,U3,2,V-*%
%TO.N,GND*%
X116475000Y-96266000D03*
%TO.P,U3,3,-*%
%TO.N,Net-(U3--)*%
X116475000Y-96916000D03*
%TO.P,U3,4*%
%TO.N,Net-(C6-Pad2)*%
X118475000Y-96916000D03*
%TO.P,U3,5,V+*%
%TO.N,+5V*%
X118475000Y-95616000D03*
%TD*%
D11*
%TO.P,R15,1*%
%TO.N,Net-(R15-Pad1)*%
X105652000Y-101092000D03*
%TO.P,R15,2*%
%TO.N,GND*%
X104152000Y-101092000D03*
%TD*%
D10*
%TO.P,R4,1*%
%TO.N,Net-(U1-+)*%
X104140000Y-90932000D03*
%TO.P,R4,2*%
%TO.N,GND*%
X104140000Y-89432000D03*
%TD*%
D11*
%TO.P,R10,1*%
%TO.N,Net-(R1-Pad2)*%
X105652000Y-94488000D03*
%TO.P,R10,2*%
%TO.N,GND*%
X104152000Y-94488000D03*
%TD*%
D10*
%TO.P,C1,1*%
%TO.N,Net-(U1-+)*%
X105918000Y-90932000D03*
%TO.P,C1,2*%
%TO.N,GND*%
X105918000Y-89432000D03*
%TD*%
D12*
%TO.P,U1,1,+*%
%TO.N,Net-(U1-+)*%
X108220000Y-91806000D03*
%TO.P,U1,2,V-*%
%TO.N,GND*%
X108220000Y-92456000D03*
%TO.P,U1,3,-*%
%TO.N,Net-(U1--)*%
X108220000Y-93106000D03*
%TO.P,U1,4*%
%TO.N,Net-(C3-Pad2)*%
X110220000Y-93106000D03*
%TO.P,U1,5,V+*%
%TO.N,+5V*%
X110220000Y-91806000D03*
%TD*%
D10*
%TO.P,R6,1*%
%TO.N,Net-(U2-+)*%
X104140000Y-97778000D03*
%TO.P,R6,2*%
%TO.N,GND*%
X104140000Y-96278000D03*
%TD*%
D11*
%TO.P,R1,1*%
%TO.N,Net-(J3-Pin_1)*%
X104152000Y-92710000D03*
%TO.P,R1,2*%
%TO.N,Net-(R1-Pad2)*%
X105652000Y-92710000D03*
%TD*%
%TO.P,R13,1*%
%TO.N,Net-(U3--)*%
X113550000Y-99060000D03*
%TO.P,R13,2*%
%TO.N,Net-(C6-Pad1)*%
X115050000Y-99060000D03*
%TD*%
D10*
%TO.P,C5,1*%
%TO.N,Net-(U3-+)*%
X118364000Y-90956000D03*
%TO.P,C5,2*%
%TO.N,GND*%
X118364000Y-92456000D03*
%TD*%
D11*
%TO.P,R9,1*%
%TO.N,Net-(C6-Pad1)*%
X115062000Y-100838000D03*
%TO.P,R9,2*%
%TO.N,Net-(C6-Pad2)*%
X116562000Y-100838000D03*
%TD*%
%TO.P,R3,1*%
%TO.N,+5V*%
X109208000Y-89408000D03*
%TO.P,R3,2*%
%TO.N,Net-(U1-+)*%
X107708000Y-89408000D03*
%TD*%
%TO.P,R8,1*%
%TO.N,Net-(U2--)*%
X112026000Y-100838000D03*
%TO.P,R8,2*%
%TO.N,Net-(C4-Pad2)*%
X113526000Y-100838000D03*
%TD*%
D15*
%TO.P,J4,1,Pin_1*%
%TO.N,Net-(J4-Pin_1)*%
X100838000Y-100330000D03*
%TO.P,J4,2,Pin_2*%
%TO.N,GND*%
X100838000Y-98330000D03*
%TD*%
D11*
%TO.P,R12,1*%
%TO.N,Net-(U3-+)*%
X116624800Y-92913200D03*
%TO.P,R12,2*%
%TO.N,GND*%
X115124800Y-92913200D03*
%TD*%
%TO.P,R2,1*%
%TO.N,Net-(J4-Pin_1)*%
X104152000Y-99314000D03*
%TO.P,R2,2*%
%TO.N,Net-(R15-Pad1)*%
X105652000Y-99314000D03*
%TD*%
%TO.P,C4,1*%
%TO.N,Net-(U2--)*%
X112026000Y-102616000D03*
%TO.P,C4,2*%
%TO.N,Net-(C4-Pad2)*%
X113526000Y-102616000D03*
%TD*%
D10*
%TO.P,C2,1*%
%TO.N,Net-(U2-+)*%
X105918000Y-97778000D03*
%TO.P,C2,2*%
%TO.N,GND*%
X105918000Y-96278000D03*
%TD*%
D16*
%TO.P,J5,1,Pin_1*%
%TO.N,Net-(J5-Pin_1)*%
X121158000Y-94742000D03*
D17*
%TO.P,J5,2,Pin_2*%
%TO.N,+5V*%
X121158000Y-96742000D03*
%TO.P,J5,3,Pin_3*%
%TO.N,GND*%
X121158000Y-98742000D03*
%TD*%
D11*
%TO.P,R5,1*%
%TO.N,+5V*%
X109970000Y-97282000D03*
%TO.P,R5,2*%
%TO.N,Net-(U2-+)*%
X108470000Y-97282000D03*
%TD*%
%TO.P,C10,1*%
%TO.N,Net-(R15-Pad1)*%
X104152000Y-102870000D03*
%TO.P,C10,2*%
%TO.N,Net-(U2--)*%
X105652000Y-102870000D03*
%TD*%
D18*
%TO.P,C8,1*%
%TO.N,+5V*%
X118242000Y-101346000D03*
%TO.P,C8,2*%
%TO.N,GND*%
X120142000Y-101346000D03*
%TD*%
D11*
%TO.P,C9,1*%
%TO.N,Net-(R1-Pad2)*%
X108482000Y-95504000D03*
%TO.P,C9,2*%
%TO.N,Net-(U1--)*%
X109982000Y-95504000D03*
%TD*%
D15*
%TO.P,J3,1,Pin_1*%
%TO.N,Net-(J3-Pin_1)*%
X100838000Y-90964000D03*
%TO.P,J3,2,Pin_2*%
%TO.N,GND*%
X100838000Y-92964000D03*
%TD*%
D11*
%TO.P,R11,1*%
%TO.N,+5V*%
X115124800Y-91186000D03*
%TO.P,R11,2*%
%TO.N,Net-(U3-+)*%
X116624800Y-91186000D03*
%TD*%
D19*
%TO.N,GND*%
X114808000Y-93980000D03*
X102108000Y-102108000D03*
X100838000Y-95504000D03*
X118364000Y-93472000D03*
X107188000Y-100330000D03*
X107188000Y-92456000D03*
X121920000Y-90932000D03*
X102616000Y-90170000D03*
%TO.N,+5V*%
X110998000Y-99060000D03*
X118425000Y-99060000D03*
%TD*%
D20*
%TO.N,GND*%
X99060000Y-100838000D02*
X99552000Y-101330000D01*
X100838000Y-92964000D02*
X100838000Y-94488000D01*
X102886000Y-101330000D02*
X103124000Y-101092000D01*
X115824000Y-96266000D02*
X116475000Y-96266000D01*
X104140000Y-96278000D02*
X104140000Y-94500000D01*
X114808000Y-93980000D02*
X115570000Y-94742000D01*
X102616000Y-90170000D02*
X103402000Y-90170000D01*
X108220000Y-92456000D02*
X107188000Y-92456000D01*
X115124800Y-93663200D02*
X114808000Y-93980000D01*
X104140000Y-96278000D02*
X100850000Y-96278000D01*
X118364000Y-93472000D02*
X118364000Y-93577000D01*
X100838000Y-98330000D02*
X99536000Y-98330000D01*
X104152000Y-101092000D02*
X103124000Y-101092000D01*
X103124000Y-101092000D02*
X102108000Y-102108000D01*
X120142000Y-101346000D02*
X120142000Y-99758000D01*
X115570000Y-96012000D02*
X115824000Y-96266000D01*
X100838000Y-98330000D02*
X100838000Y-96266000D01*
X100838000Y-94488000D02*
X100838000Y-95504000D01*
X104152000Y-94488000D02*
X100838000Y-94488000D01*
X103402000Y-90170000D02*
X104140000Y-89432000D01*
X99536000Y-98330000D02*
X99060000Y-98806000D01*
X105918000Y-96278000D02*
X104140000Y-96278000D01*
X104140000Y-94500000D02*
X104152000Y-94488000D01*
X108220000Y-100330000D02*
X107188000Y-100330000D01*
X120142000Y-99758000D02*
X121158000Y-98742000D01*
X99552000Y-101330000D02*
X102886000Y-101330000D01*
X118364000Y-92456000D02*
X118364000Y-93472000D01*
X100838000Y-96266000D02*
X100838000Y-95504000D01*
X115570000Y-94742000D02*
X115570000Y-96012000D01*
X104140000Y-89432000D02*
X105918000Y-89432000D01*
X99060000Y-98806000D02*
X99060000Y-100838000D01*
X100850000Y-96278000D02*
X100838000Y-96266000D01*
X115124800Y-92913200D02*
X115124800Y-93663200D01*
%TO.N,Net-(U1-+)*%
X107696000Y-90932000D02*
X107696000Y-91282000D01*
X107708000Y-90920000D02*
X107696000Y-90932000D01*
X107696000Y-90932000D02*
X105918000Y-90932000D01*
X107696000Y-91282000D02*
X108220000Y-91806000D01*
X105918000Y-90932000D02*
X104140000Y-90932000D01*
X107708000Y-89408000D02*
X107708000Y-90920000D01*
%TO.N,Net-(U2-+)*%
X105918000Y-97778000D02*
X107974000Y-97778000D01*
X107974000Y-97778000D02*
X108470000Y-97282000D01*
X104140000Y-97778000D02*
X105918000Y-97778000D01*
X108220000Y-97532000D02*
X108470000Y-97282000D01*
X108220000Y-99680000D02*
X108220000Y-97532000D01*
%TO.N,Net-(U1--)*%
X110824016Y-95504000D02*
X112026000Y-94302016D01*
X108220000Y-93106000D02*
X108220000Y-93742000D01*
X108220000Y-93742000D02*
X109982000Y-95504000D01*
X109982000Y-95504000D02*
X110824016Y-95504000D01*
X112026000Y-92964000D02*
X112026000Y-91186000D01*
X112026000Y-94302016D02*
X112026000Y-92964000D01*
%TO.N,Net-(C3-Pad2)*%
X113030000Y-90170000D02*
X113526000Y-90666000D01*
X111515000Y-90170000D02*
X113030000Y-90170000D01*
X114646000Y-95120000D02*
X114646000Y-95088000D01*
X110220000Y-93106000D02*
X111125000Y-92201000D01*
X114646000Y-95088000D02*
X113526000Y-93968000D01*
X111125000Y-90560000D02*
X111515000Y-90170000D01*
X111125000Y-92201000D02*
X111125000Y-90560000D01*
X113526000Y-90666000D02*
X113526000Y-91186000D01*
X113526000Y-93968000D02*
X113526000Y-92964000D01*
X113526000Y-91186000D02*
X113526000Y-93000000D01*
%TO.N,Net-(J3-Pin_1)*%
X100838000Y-90964000D02*
X102406000Y-90964000D01*
X102406000Y-90964000D02*
X104152000Y-92710000D01*
%TO.N,+5V*%
X120032000Y-95616000D02*
X121158000Y-96742000D01*
X118840000Y-99060000D02*
X121158000Y-96742000D01*
X122936000Y-94964000D02*
X122936000Y-90170000D01*
X115062000Y-89408000D02*
X111252000Y-89408000D01*
X110220000Y-89519000D02*
X110109000Y-89408000D01*
X118475000Y-95616000D02*
X120032000Y-95616000D01*
X118425000Y-99060000D02*
X118840000Y-99060000D01*
X118425000Y-99060000D02*
X118425000Y-101163000D01*
X111252000Y-89408000D02*
X110109000Y-89408000D01*
X121158000Y-96742000D02*
X122936000Y-94964000D01*
X110220000Y-99680000D02*
X110378000Y-99680000D01*
X115124800Y-91186000D02*
X115124800Y-89470800D01*
X110378000Y-99680000D02*
X110998000Y-99060000D01*
X110998000Y-99060000D02*
X110998000Y-98310000D01*
X115124800Y-89470800D02*
X115062000Y-89408000D01*
X122174000Y-89408000D02*
X115062000Y-89408000D01*
X118425000Y-101163000D02*
X118242000Y-101346000D01*
X110109000Y-89408000D02*
X109208000Y-89408000D01*
X110220000Y-91806000D02*
X110220000Y-89519000D01*
X110998000Y-98310000D02*
X109970000Y-97282000D01*
X122936000Y-90170000D02*
X122174000Y-89408000D01*
%TO.N,Net-(U2--)*%
X108220000Y-100980000D02*
X108220000Y-102759000D01*
X105652000Y-102870000D02*
X108331000Y-102870000D01*
X108331000Y-102870000D02*
X108712000Y-102870000D01*
X108220000Y-102759000D02*
X108331000Y-102870000D01*
X108712000Y-102870000D02*
X111772000Y-102870000D01*
X111772000Y-102870000D02*
X112026000Y-102616000D01*
X112026000Y-100838000D02*
X112026000Y-102616000D01*
%TO.N,Net-(C4-Pad2)*%
X113160000Y-95120000D02*
X113446000Y-95120000D01*
X113526000Y-100838000D02*
X112268000Y-99580000D01*
X112252000Y-99330000D02*
X112268000Y-99314000D01*
X110220000Y-100980000D02*
X111632000Y-99568000D01*
X111632000Y-99568000D02*
X112256000Y-99568000D01*
X112268000Y-99580000D02*
X112268000Y-99314000D01*
X113526000Y-100838000D02*
X113526000Y-102616000D01*
X112268000Y-96012000D02*
X113160000Y-95120000D01*
X112268000Y-99314000D02*
X112268000Y-99060000D01*
X112268000Y-99060000D02*
X112268000Y-96012000D01*
X112256000Y-99568000D02*
X112268000Y-99580000D01*
%TO.N,Net-(U3-+)*%
X116475000Y-95616000D02*
X116475000Y-93063000D01*
X118364000Y-90956000D02*
X116854800Y-90956000D01*
X116854800Y-90956000D02*
X116624800Y-91186000D01*
X116475000Y-93063000D02*
X116624800Y-92913200D01*
X116624800Y-91186000D02*
X116624800Y-92913200D01*
%TO.N,Net-(C6-Pad2)*%
X117475000Y-95631000D02*
X117475000Y-96901000D01*
X117475000Y-97790000D02*
X116562000Y-98703000D01*
X116574000Y-102616000D02*
X116574000Y-100850000D01*
X118475000Y-96916000D02*
X117490000Y-96916000D01*
X117490000Y-96916000D02*
X117475000Y-96901000D01*
X117475000Y-96901000D02*
X117475000Y-97790000D01*
X116574000Y-100850000D02*
X116562000Y-100838000D01*
X120142000Y-92720720D02*
X117475000Y-95387720D01*
X120142000Y-92444000D02*
X120142000Y-92720720D01*
X116562000Y-98703000D02*
X116562000Y-100838000D01*
X117475000Y-95387720D02*
X117475000Y-95631000D01*
%TO.N,Net-(C6-Pad1)*%
X115050000Y-100826000D02*
X115062000Y-100838000D01*
X115050000Y-99060000D02*
X115050000Y-100826000D01*
X115062000Y-102604000D02*
X115074000Y-102616000D01*
X115062000Y-100838000D02*
X115062000Y-102604000D01*
%TO.N,Net-(J4-Pin_1)*%
X103136000Y-100330000D02*
X104152000Y-99314000D01*
X100838000Y-100330000D02*
X103136000Y-100330000D01*
%TO.N,Net-(J5-Pin_1)*%
X120142000Y-90944000D02*
X120408000Y-90944000D01*
X121158000Y-91694000D02*
X121158000Y-94742000D01*
X120408000Y-90944000D02*
X121158000Y-91694000D01*
%TO.N,Net-(R1-Pad2)*%
X106680000Y-95504000D02*
X108482000Y-95504000D01*
X105652000Y-92710000D02*
X105652000Y-94488000D01*
X105652000Y-94488000D02*
X105664000Y-94488000D01*
X105664000Y-94488000D02*
X106680000Y-95504000D01*
%TO.N,Net-(R15-Pad1)*%
X105652000Y-101092000D02*
X105652000Y-101370000D01*
X105652000Y-99314000D02*
X105652000Y-101092000D01*
X105652000Y-101370000D02*
X104152000Y-102870000D01*
%TO.N,Net-(U3--)*%
X114850000Y-96916000D02*
X114046000Y-97720000D01*
X114046000Y-98564000D02*
X114046000Y-97720000D01*
X116475000Y-96916000D02*
X114850000Y-96916000D01*
X113550000Y-99060000D02*
X114046000Y-98564000D01*
%TD*%
%TA.AperFunction,Conductor*%
%TO.N,GND*%
G36*
X103108039Y-89019685D02*
G01*
X103153794Y-89072489D01*
X103165000Y-89124000D01*
X103165000Y-89879844D01*
X103171401Y-89939372D01*
X103171402Y-89939376D01*
X103200651Y-90017795D01*
X103204808Y-90018700D01*
X103266131Y-90052185D01*
X103299616Y-90113508D01*
X103294632Y-90183200D01*
X103277717Y-90214177D01*
X103221204Y-90289668D01*
X103221202Y-90289671D01*
X103170908Y-90424517D01*
X103164501Y-90484116D01*
X103164500Y-90484135D01*
X103164500Y-90538548D01*
X103158261Y-90559793D01*
X103156682Y-90581882D01*
X103148609Y-90592665D01*
X103144815Y-90605587D01*
X103128081Y-90620086D01*
X103114810Y-90637815D01*
X103102189Y-90642522D01*
X103092011Y-90651342D01*
X103070093Y-90654493D01*
X103049346Y-90662232D01*
X103036185Y-90659369D01*
X103022853Y-90661286D01*
X103002709Y-90652086D01*
X102981073Y-90647380D01*
X102963347Y-90634111D01*
X102959297Y-90632261D01*
X102952819Y-90626229D01*
X102896198Y-90569608D01*
X102896178Y-90569586D01*
X102804733Y-90478141D01*
X102749116Y-90440980D01*
X102749117Y-90440980D01*
X102742437Y-90436517D01*
X102702286Y-90409688D01*
X102605781Y-90369715D01*
X102601946Y-90368126D01*
X102601935Y-90368121D01*
X102588455Y-90362538D01*
X102588453Y-90362537D01*
X102588452Y-90362537D01*
X102528029Y-90350518D01*
X102467607Y-90338500D01*
X102467606Y-90338500D01*
X102450692Y-90338500D01*
X102441148Y-90337004D01*
X102417936Y-90326045D01*
X102393312Y-90318815D01*
X102386867Y-90311377D01*
X102377966Y-90307175D01*
X102364363Y-90285406D01*
X102347557Y-90266011D01*
X102343889Y-90252641D01*
X102340940Y-90247922D01*
X102341013Y-90242158D01*
X102337061Y-90227752D01*
X102335895Y-90216909D01*
X102332091Y-90181517D01*
X102331578Y-90180142D01*
X102281797Y-90046671D01*
X102281793Y-90046664D01*
X102195547Y-89931455D01*
X102195544Y-89931452D01*
X102080335Y-89845206D01*
X102080328Y-89845202D01*
X101945482Y-89794908D01*
X101945483Y-89794908D01*
X101885883Y-89788501D01*
X101885881Y-89788500D01*
X101885873Y-89788500D01*
X101885864Y-89788500D01*
X99790129Y-89788500D01*
X99790123Y-89788501D01*
X99730516Y-89794908D01*
X99595671Y-89845202D01*
X99595664Y-89845206D01*
X99480455Y-89931452D01*
X99480452Y-89931455D01*
X99394206Y-90046664D01*
X99394202Y-90046671D01*
X99343908Y-90181517D01*
X99337501Y-90241116D01*
X99337500Y-90241135D01*
X99337500Y-91686870D01*
X99337501Y-91686876D01*
X99343908Y-91746483D01*
X99394202Y-91881327D01*
X99394204Y-91881331D01*
X99400773Y-91890106D01*
X99425190Y-91955571D01*
X99410338Y-92023843D01*
X99400775Y-92038725D01*
X99394646Y-92046912D01*
X99394645Y-92046913D01*
X99344403Y-92181620D01*
X99344401Y-92181627D01*
X99338000Y-92241155D01*
X99338000Y-92714000D01*
X102338000Y-92714000D01*
X102338000Y-92241172D01*
X102337999Y-92241155D01*
X102331598Y-92181627D01*
X102331597Y-92181623D01*
X102288436Y-92065904D01*
X102283452Y-91996212D01*
X102316936Y-91934889D01*
X102378259Y-91901404D01*
X102447951Y-91906388D01*
X102492299Y-91934889D01*
X103215181Y-92657771D01*
X103248666Y-92719094D01*
X103251500Y-92745452D01*
X103251500Y-93232870D01*
X103251501Y-93232876D01*
X103257908Y-93292483D01*
X103308202Y-93427328D01*
X103308206Y-93427335D01*
X103394452Y-93542544D01*
X103394455Y-93542547D01*
X103509664Y-93628793D01*
X103509671Y-93628797D01*
X103534228Y-93637956D01*
X103644517Y-93679091D01*
X103659430Y-93680694D01*
X103723978Y-93707431D01*
X103733854Y-93716302D01*
X104715181Y-94697629D01*
X104748666Y-94758952D01*
X104751500Y-94785309D01*
X104751500Y-95010869D01*
X104751501Y-95010876D01*
X104757909Y-95070484D01*
X104782951Y-95137627D01*
X104787935Y-95207318D01*
X104754449Y-95268641D01*
X104693126Y-95302125D01*
X104623434Y-95297140D01*
X104579088Y-95268640D01*
X104152000Y-94841552D01*
X103604552Y-95389000D01*
X104140000Y-95924448D01*
X104702372Y-95362075D01*
X104707133Y-95345863D01*
X104759937Y-95300108D01*
X104829095Y-95290164D01*
X104886496Y-95316378D01*
X104887355Y-95315232D01*
X104892624Y-95319177D01*
X104892651Y-95319189D01*
X104892692Y-95319227D01*
X105009664Y-95406793D01*
X105009671Y-95406797D01*
X105022742Y-95411672D01*
X105144517Y-95457091D01*
X105204127Y-95463500D01*
X105405690Y-95463499D01*
X105472728Y-95483183D01*
X105493370Y-95499818D01*
X106007095Y-96013543D01*
X106040580Y-96074866D01*
X106035596Y-96144558D01*
X106007095Y-96188905D01*
X105918000Y-96278000D01*
X106007094Y-96367094D01*
X106040579Y-96428417D01*
X106035595Y-96498109D01*
X106007094Y-96542456D01*
X105708369Y-96841181D01*
X105647046Y-96874666D01*
X105620689Y-96877500D01*
X105395130Y-96877500D01*
X105395123Y-96877501D01*
X105335514Y-96883909D01*
X105268372Y-96908951D01*
X105198680Y-96913935D01*
X105137357Y-96880449D01*
X105103873Y-96819125D01*
X105108859Y-96749434D01*
X105137359Y-96705088D01*
X105564447Y-96277999D01*
X105029000Y-95742552D01*
X104493552Y-96278000D01*
X104920640Y-96705088D01*
X104954125Y-96766411D01*
X104949141Y-96836103D01*
X104907269Y-96892036D01*
X104841805Y-96916453D01*
X104789627Y-96908951D01*
X104722485Y-96883909D01*
X104722483Y-96883908D01*
X104662883Y-96877501D01*
X104662881Y-96877500D01*
X104662873Y-96877500D01*
X104662865Y-96877500D01*
X104437310Y-96877500D01*
X104370271Y-96857815D01*
X104349629Y-96841181D01*
X104140001Y-96631552D01*
X103930369Y-96841182D01*
X103869046Y-96874666D01*
X103842689Y-96877500D01*
X103617130Y-96877500D01*
X103617123Y-96877501D01*
X103557514Y-96883909D01*
X103490372Y-96908951D01*
X103420680Y-96913935D01*
X103359357Y-96880449D01*
X103325873Y-96819125D01*
X103330859Y-96749434D01*
X103359359Y-96705088D01*
X103786448Y-96278000D01*
X103200651Y-95692203D01*
X103171403Y-95770620D01*
X103171401Y-95770627D01*
X103165000Y-95830155D01*
X103165000Y-96725844D01*
X103171401Y-96785372D01*
X103171402Y-96785376D01*
X103200651Y-96863795D01*
X103204808Y-96864700D01*
X103266131Y-96898185D01*
X103299616Y-96959508D01*
X103294632Y-97029200D01*
X103277717Y-97060177D01*
X103221204Y-97135668D01*
X103221202Y-97135671D01*
X103170908Y-97270517D01*
X103164501Y-97330116D01*
X103164500Y-97330135D01*
X103164500Y-98225870D01*
X103164501Y-98225876D01*
X103170908Y-98285483D01*
X103221202Y-98420328D01*
X103221206Y-98420334D01*
X103282593Y-98502338D01*
X103307010Y-98567802D01*
X103299508Y-98619980D01*
X103257909Y-98731514D01*
X103257908Y-98731516D01*
X103251501Y-98791116D01*
X103251501Y-98791125D01*
X103251500Y-98791135D01*
X103251500Y-99278547D01*
X103231815Y-99345586D01*
X103215181Y-99366228D01*
X102913229Y-99668181D01*
X102851906Y-99701666D01*
X102825548Y-99704500D01*
X102460351Y-99704500D01*
X102393312Y-99684815D01*
X102347557Y-99632011D01*
X102337061Y-99593752D01*
X102332091Y-99547516D01*
X102281797Y-99412670D01*
X102281796Y-99412668D01*
X102275229Y-99403897D01*
X102250809Y-99338433D01*
X102265659Y-99270160D01*
X102275229Y-99255268D01*
X102281351Y-99247089D01*
X102331597Y-99112376D01*
X102331598Y-99112372D01*
X102337999Y-99052844D01*
X102338000Y-99052827D01*
X102338000Y-98580000D01*
X99338000Y-98580000D01*
X99338000Y-99052844D01*
X99344401Y-99112372D01*
X99344403Y-99112379D01*
X99394645Y-99247086D01*
X99394650Y-99247095D01*
X99400774Y-99255276D01*
X99425189Y-99320741D01*
X99410335Y-99389013D01*
X99400775Y-99403890D01*
X99394205Y-99412666D01*
X99394202Y-99412671D01*
X99343908Y-99547517D01*
X99337501Y-99607116D01*
X99337500Y-99607135D01*
X99337500Y-101052870D01*
X99337501Y-101052876D01*
X99343908Y-101112483D01*
X99394202Y-101247328D01*
X99394206Y-101247335D01*
X99480452Y-101362544D01*
X99480455Y-101362547D01*
X99595664Y-101448793D01*
X99595671Y-101448797D01*
X99730517Y-101499091D01*
X99730516Y-101499091D01*
X99737444Y-101499835D01*
X99790127Y-101505500D01*
X101885872Y-101505499D01*
X101945483Y-101499091D01*
X102080331Y-101448796D01*
X102195546Y-101362546D01*
X102281796Y-101247331D01*
X102332091Y-101112483D01*
X102337062Y-101066242D01*
X102363799Y-101001694D01*
X102421191Y-100961846D01*
X102460351Y-100955500D01*
X103128000Y-100955500D01*
X103195039Y-100975185D01*
X103240794Y-101027989D01*
X103252000Y-101079500D01*
X103252000Y-101614838D01*
X103254291Y-101636154D01*
X103254292Y-101636154D01*
X103887542Y-101002904D01*
X103948865Y-100969419D01*
X104018556Y-100974403D01*
X104062904Y-101002904D01*
X104241094Y-101181094D01*
X104274579Y-101242417D01*
X104269595Y-101312109D01*
X104241094Y-101356456D01*
X103733853Y-101863697D01*
X103672530Y-101897182D01*
X103659432Y-101899305D01*
X103644518Y-101900908D01*
X103644513Y-101900910D01*
X103509671Y-101951202D01*
X103509664Y-101951206D01*
X103394455Y-102037452D01*
X103394452Y-102037455D01*
X103308206Y-102152664D01*
X103308202Y-102152671D01*
X103257908Y-102287517D01*
X103251501Y-102347116D01*
X103251500Y-102347135D01*
X103251501Y-103376000D01*
X103231817Y-103443039D01*
X103179013Y-103488794D01*
X103127501Y-103500000D01*
X99124000Y-103500000D01*
X99056961Y-103480315D01*
X99011206Y-103427511D01*
X99000000Y-103376000D01*
X99000000Y-97607155D01*
X99338000Y-97607155D01*
X99338000Y-98080000D01*
X100588000Y-98080000D01*
X101088000Y-98080000D01*
X102338000Y-98080000D01*
X102338000Y-97607172D01*
X102337999Y-97607155D01*
X102331598Y-97547627D01*
X102331596Y-97547620D01*
X102281354Y-97412913D01*
X102281350Y-97412906D01*
X102195190Y-97297812D01*
X102195187Y-97297809D01*
X102080093Y-97211649D01*
X102080086Y-97211645D01*
X101945379Y-97161403D01*
X101945372Y-97161401D01*
X101885844Y-97155000D01*
X101088000Y-97155000D01*
X101088000Y-98080000D01*
X100588000Y-98080000D01*
X100588000Y-97155000D01*
X99790155Y-97155000D01*
X99730627Y-97161401D01*
X99730620Y-97161403D01*
X99595913Y-97211645D01*
X99595906Y-97211649D01*
X99480812Y-97297809D01*
X99480809Y-97297812D01*
X99394649Y-97412906D01*
X99394645Y-97412913D01*
X99344403Y-97547620D01*
X99344401Y-97547627D01*
X99338000Y-97607155D01*
X99000000Y-97607155D01*
X99000000Y-93686844D01*
X99338000Y-93686844D01*
X99344401Y-93746372D01*
X99344403Y-93746379D01*
X99394645Y-93881086D01*
X99394649Y-93881093D01*
X99480809Y-93996187D01*
X99480812Y-93996190D01*
X99595906Y-94082350D01*
X99595913Y-94082354D01*
X99730620Y-94132596D01*
X99730627Y-94132598D01*
X99790155Y-94138999D01*
X99790172Y-94139000D01*
X100588000Y-94139000D01*
X101088000Y-94139000D01*
X101885828Y-94139000D01*
X101885844Y-94138999D01*
X101945372Y-94132598D01*
X101945379Y-94132596D01*
X102080086Y-94082354D01*
X102080093Y-94082350D01*
X102195187Y-93996190D01*
X102195190Y-93996187D01*
X102218416Y-93965162D01*
X103252000Y-93965162D01*
X103252000Y-95010838D01*
X103254291Y-95032154D01*
X103254292Y-95032154D01*
X103798448Y-94488000D01*
X103254292Y-93943844D01*
X103254291Y-93943844D01*
X103252000Y-93965162D01*
X102218416Y-93965162D01*
X102276523Y-93887542D01*
X102276523Y-93887541D01*
X102281352Y-93881089D01*
X102281354Y-93881086D01*
X102331596Y-93746379D01*
X102331598Y-93746372D01*
X102337999Y-93686844D01*
X102338000Y-93686827D01*
X102338000Y-93214000D01*
X101088000Y-93214000D01*
X101088000Y-94139000D01*
X100588000Y-94139000D01*
X100588000Y-93214000D01*
X99338000Y-93214000D01*
X99338000Y-93686844D01*
X99000000Y-93686844D01*
X99000000Y-89124000D01*
X99019685Y-89056961D01*
X99072489Y-89011206D01*
X99124000Y-89000000D01*
X103041000Y-89000000D01*
X103108039Y-89019685D01*
G37*
%TD.AperFunction*%
%TA.AperFunction,Conductor*%
G36*
X122919334Y-95967769D02*
G01*
X122975267Y-96009641D01*
X122999684Y-96075105D01*
X123000000Y-96083951D01*
X123000000Y-103376000D01*
X122980315Y-103443039D01*
X122927511Y-103488794D01*
X122876000Y-103500000D01*
X117534226Y-103500000D01*
X117467187Y-103480315D01*
X117421432Y-103427511D01*
X117411488Y-103358353D01*
X117418044Y-103332667D01*
X117432104Y-103294967D01*
X117468091Y-103198483D01*
X117474500Y-103138873D01*
X117474499Y-102640351D01*
X117494183Y-102573313D01*
X117546987Y-102527558D01*
X117616146Y-102517614D01*
X117641831Y-102524170D01*
X117660387Y-102531091D01*
X117684516Y-102540091D01*
X117691444Y-102540835D01*
X117744127Y-102546500D01*
X118739872Y-102546499D01*
X118799483Y-102540091D01*
X118934331Y-102489796D01*
X118990804Y-102447520D01*
X119394029Y-102447520D01*
X119449910Y-102489352D01*
X119449913Y-102489354D01*
X119584620Y-102539596D01*
X119584627Y-102539598D01*
X119644155Y-102545999D01*
X119644172Y-102546000D01*
X120639828Y-102546000D01*
X120639844Y-102545999D01*
X120699372Y-102539598D01*
X120699376Y-102539597D01*
X120834091Y-102489351D01*
X120889969Y-102447520D01*
X120142000Y-101699552D01*
X119394029Y-102447520D01*
X118990804Y-102447520D01*
X119049546Y-102403546D01*
X119135796Y-102288331D01*
X119186091Y-102153483D01*
X119192500Y-102093873D01*
X119192499Y-101993306D01*
X119212183Y-101926271D01*
X119228818Y-101905628D01*
X119788448Y-101346000D01*
X119788447Y-101345999D01*
X120495552Y-101345999D01*
X120495552Y-101346000D01*
X121091999Y-101942448D01*
X121092000Y-101942447D01*
X121092000Y-100749552D01*
X121091999Y-100749551D01*
X120495552Y-101345999D01*
X119788447Y-101345999D01*
X119228818Y-100786370D01*
X119195333Y-100725047D01*
X119192499Y-100698689D01*
X119192499Y-100598129D01*
X119192498Y-100598123D01*
X119189381Y-100569128D01*
X119186091Y-100538517D01*
X119182914Y-100530000D01*
X119135797Y-100403671D01*
X119135793Y-100403665D01*
X119107919Y-100366429D01*
X119107917Y-100366427D01*
X119075233Y-100322767D01*
X119050816Y-100257303D01*
X119050500Y-100248456D01*
X119050500Y-100244477D01*
X119394029Y-100244477D01*
X120142000Y-100992448D01*
X120142001Y-100992448D01*
X120889969Y-100244478D01*
X120889969Y-100244477D01*
X120834089Y-100202647D01*
X120834086Y-100202645D01*
X120699379Y-100152403D01*
X120699372Y-100152401D01*
X120639844Y-100146000D01*
X119644155Y-100146000D01*
X119584627Y-100152401D01*
X119584620Y-100152403D01*
X119449913Y-100202645D01*
X119449911Y-100202646D01*
X119394029Y-100244477D01*
X119050500Y-100244477D01*
X119050500Y-99759361D01*
X119070185Y-99692322D01*
X119086819Y-99671680D01*
X119095664Y-99662835D01*
X119124464Y-99634035D01*
X119125027Y-99633191D01*
X119125746Y-99632472D01*
X119128332Y-99629322D01*
X119128642Y-99629576D01*
X119130925Y-99627292D01*
X119132988Y-99622554D01*
X119159240Y-99598972D01*
X119187509Y-99580084D01*
X119238733Y-99545858D01*
X119325858Y-99458733D01*
X119325859Y-99458731D01*
X119332925Y-99451665D01*
X119332928Y-99451661D01*
X119808894Y-98975694D01*
X119870215Y-98942211D01*
X119939907Y-98947195D01*
X119995840Y-98989067D01*
X120014504Y-99025059D01*
X120069083Y-99193040D01*
X120069084Y-99193043D01*
X120153052Y-99357837D01*
X120261754Y-99507454D01*
X120261758Y-99507459D01*
X120392540Y-99638241D01*
X120392545Y-99638245D01*
X120542162Y-99746947D01*
X120706956Y-99830915D01*
X120706959Y-99830916D01*
X120882845Y-99888064D01*
X120882858Y-99888067D01*
X120908000Y-99892049D01*
X120908000Y-99057686D01*
X120912394Y-99062080D01*
X121003606Y-99114741D01*
X121105339Y-99142000D01*
X121210661Y-99142000D01*
X121312394Y-99114741D01*
X121403606Y-99062080D01*
X121408000Y-99057686D01*
X121408000Y-99892048D01*
X121433141Y-99888067D01*
X121433154Y-99888064D01*
X121609040Y-99830916D01*
X121609043Y-99830915D01*
X121773837Y-99746947D01*
X121923454Y-99638245D01*
X121923459Y-99638241D01*
X122054241Y-99507459D01*
X122054245Y-99507454D01*
X122162947Y-99357837D01*
X122246915Y-99193043D01*
X122246917Y-99193037D01*
X122304067Y-99017144D01*
X122308049Y-98992000D01*
X121473686Y-98992000D01*
X121478080Y-98987606D01*
X121530741Y-98896394D01*
X121558000Y-98794661D01*
X121558000Y-98689339D01*
X121530741Y-98587606D01*
X121478080Y-98496394D01*
X121473686Y-98492000D01*
X122308050Y-98492000D01*
X122308049Y-98491999D01*
X122304067Y-98466855D01*
X122246917Y-98290962D01*
X122246915Y-98290956D01*
X122162947Y-98126162D01*
X122054245Y-97976545D01*
X122054241Y-97976540D01*
X121923459Y-97845758D01*
X121923452Y-97845752D01*
X121919148Y-97842625D01*
X121876482Y-97787295D01*
X121870504Y-97717682D01*
X121903110Y-97655887D01*
X121919152Y-97641987D01*
X121923787Y-97638621D01*
X122054621Y-97507787D01*
X122163378Y-97358096D01*
X122247379Y-97193235D01*
X122304555Y-97017264D01*
X122333500Y-96834514D01*
X122333500Y-96649486D01*
X122316256Y-96540616D01*
X122325210Y-96471326D01*
X122351045Y-96433543D01*
X122788320Y-95996268D01*
X122849642Y-95962785D01*
X122919334Y-95967769D01*
G37*
%TD.AperFunction*%
%TA.AperFunction,Conductor*%
G36*
X107537539Y-98423185D02*
G01*
X107583294Y-98475989D01*
X107594500Y-98527500D01*
X107594500Y-98988728D01*
X107574815Y-99055767D01*
X107539391Y-99091830D01*
X107473458Y-99135885D01*
X107473454Y-99135888D01*
X107375888Y-99233454D01*
X107375885Y-99233458D01*
X107299228Y-99348182D01*
X107299221Y-99348195D01*
X107246421Y-99475667D01*
X107246418Y-99475677D01*
X107219500Y-99611004D01*
X107219500Y-99611007D01*
X107219500Y-99748993D01*
X107219500Y-99748995D01*
X107219499Y-99748995D01*
X107246418Y-99884321D01*
X107246420Y-99884329D01*
X107277019Y-99958201D01*
X107284488Y-100027670D01*
X107277019Y-100053105D01*
X107246902Y-100125814D01*
X107246070Y-100130000D01*
X107327982Y-100130000D01*
X107355689Y-100138135D01*
X107384084Y-100143417D01*
X107391166Y-100148553D01*
X107395021Y-100149685D01*
X107412967Y-100163703D01*
X107414326Y-100164982D01*
X107473458Y-100224114D01*
X107486202Y-100232629D01*
X107493718Y-100239703D01*
X107506375Y-100261300D01*
X107522429Y-100280510D01*
X107523737Y-100290926D01*
X107529045Y-100299983D01*
X107528016Y-100324996D01*
X107531136Y-100349835D01*
X107526605Y-100359304D01*
X107526174Y-100369794D01*
X107511784Y-100390281D01*
X107500981Y-100412863D01*
X107488063Y-100424055D01*
X107486017Y-100426970D01*
X107483529Y-100427984D01*
X107477624Y-100433102D01*
X107473459Y-100435884D01*
X107444561Y-100464782D01*
X107415661Y-100493682D01*
X107354341Y-100527166D01*
X107327982Y-100530000D01*
X107246070Y-100530000D01*
X107246901Y-100534183D01*
X107277019Y-100606893D01*
X107284488Y-100676363D01*
X107277019Y-100701798D01*
X107246420Y-100775670D01*
X107246418Y-100775678D01*
X107219500Y-100911004D01*
X107219500Y-100911007D01*
X107219500Y-101048993D01*
X107219500Y-101048995D01*
X107219499Y-101048995D01*
X107246418Y-101184322D01*
X107246421Y-101184332D01*
X107299221Y-101311804D01*
X107299228Y-101311817D01*
X107375885Y-101426541D01*
X107375888Y-101426545D01*
X107473454Y-101524111D01*
X107473462Y-101524117D01*
X107539390Y-101568169D01*
X107584196Y-101621781D01*
X107594500Y-101671271D01*
X107594500Y-102120500D01*
X107574815Y-102187539D01*
X107522011Y-102233294D01*
X107470500Y-102244500D01*
X106616141Y-102244500D01*
X106549102Y-102224815D01*
X106513295Y-102189773D01*
X106505093Y-102177596D01*
X106495796Y-102152669D01*
X106421054Y-102052827D01*
X106419334Y-102050273D01*
X106409666Y-102019795D01*
X106398496Y-101989847D01*
X106399175Y-101986721D01*
X106398209Y-101983673D01*
X106406550Y-101952821D01*
X106413347Y-101921574D01*
X106416196Y-101917140D01*
X106416444Y-101916225D01*
X106417259Y-101915487D01*
X106422914Y-101906689D01*
X106495793Y-101809335D01*
X106495792Y-101809335D01*
X106495796Y-101809331D01*
X106546091Y-101674483D01*
X106552500Y-101614873D01*
X106552499Y-100569128D01*
X106546091Y-100509517D01*
X106518628Y-100435886D01*
X106495797Y-100374671D01*
X106495793Y-100374664D01*
X106422914Y-100277311D01*
X106398496Y-100211847D01*
X106413347Y-100143574D01*
X106422914Y-100128689D01*
X106495793Y-100031335D01*
X106495792Y-100031335D01*
X106495796Y-100031331D01*
X106546091Y-99896483D01*
X106552500Y-99836873D01*
X106552499Y-98791128D01*
X106548486Y-98753798D01*
X106560892Y-98685041D01*
X106608503Y-98633904D01*
X106628436Y-98624367D01*
X106635331Y-98621796D01*
X106750546Y-98535546D01*
X106812199Y-98453188D01*
X106868132Y-98411318D01*
X106911465Y-98403500D01*
X107470500Y-98403500D01*
X107537539Y-98423185D01*
G37*
%TD.AperFunction*%
%TA.AperFunction,Conductor*%
G36*
X115442500Y-95781313D02*
G01*
X115498434Y-95823184D01*
X115513727Y-95850041D01*
X115526405Y-95880648D01*
X115532019Y-95894200D01*
X115532578Y-95899400D01*
X115535515Y-95903726D01*
X115541418Y-95938523D01*
X115547095Y-96163370D01*
X115529109Y-96230885D01*
X115477477Y-96277958D01*
X115423135Y-96290500D01*
X114917741Y-96290500D01*
X114917721Y-96290499D01*
X114911607Y-96290499D01*
X114788394Y-96290499D01*
X114687597Y-96310548D01*
X114687592Y-96310548D01*
X114667549Y-96314536D01*
X114667547Y-96314536D01*
X114620397Y-96334067D01*
X114553719Y-96361685D01*
X114553717Y-96361686D01*
X114451266Y-96430141D01*
X114451263Y-96430144D01*
X114048228Y-96833181D01*
X113986905Y-96866666D01*
X113960547Y-96869500D01*
X113666406Y-96869500D01*
X113598343Y-96875685D01*
X113598339Y-96875686D01*
X113598335Y-96875687D01*
X113441736Y-96924485D01*
X113441727Y-96924488D01*
X113301351Y-97009348D01*
X113301347Y-97009351D01*
X113185351Y-97125347D01*
X113185348Y-97125351D01*
X113123617Y-97227469D01*
X113072090Y-97274657D01*
X113003231Y-97286496D01*
X112938902Y-97259228D01*
X112899527Y-97201509D01*
X112893500Y-97163320D01*
X112893500Y-96322451D01*
X112913185Y-96255412D01*
X112929815Y-96234774D01*
X113109049Y-96055539D01*
X113170370Y-96022056D01*
X113207948Y-96019731D01*
X113216406Y-96020500D01*
X113216413Y-96020500D01*
X113675591Y-96020500D01*
X113675594Y-96020500D01*
X113743657Y-96014315D01*
X113900270Y-95965512D01*
X113981851Y-95916194D01*
X114049405Y-95898359D01*
X114110148Y-95916194D01*
X114191730Y-95965512D01*
X114348343Y-96014315D01*
X114416406Y-96020500D01*
X114416409Y-96020500D01*
X114875591Y-96020500D01*
X114875594Y-96020500D01*
X114943657Y-96014315D01*
X115100270Y-95965512D01*
X115125277Y-95950395D01*
X115240647Y-95880652D01*
X115240647Y-95880651D01*
X115240653Y-95880648D01*
X115311489Y-95809811D01*
X115372808Y-95776329D01*
X115442500Y-95781313D01*
G37*
%TD.AperFunction*%
%TA.AperFunction,Conductor*%
G36*
X115813181Y-93891652D02*
G01*
X115846666Y-93952975D01*
X115849500Y-93979334D01*
X115849500Y-94924728D01*
X115829815Y-94991767D01*
X115794391Y-95027830D01*
X115728458Y-95071885D01*
X115728454Y-95071888D01*
X115708181Y-95092162D01*
X115646858Y-95125647D01*
X115577166Y-95120663D01*
X115521233Y-95078791D01*
X115496816Y-95013327D01*
X115496500Y-95004481D01*
X115496500Y-94840408D01*
X115496500Y-94840406D01*
X115490315Y-94772343D01*
X115441512Y-94615730D01*
X115441511Y-94615727D01*
X115356651Y-94475351D01*
X115356648Y-94475347D01*
X115240652Y-94359351D01*
X115240648Y-94359348D01*
X115100272Y-94274488D01*
X115100263Y-94274485D01*
X114943664Y-94225687D01*
X114943662Y-94225686D01*
X114943657Y-94225685D01*
X114875594Y-94219500D01*
X114875591Y-94219500D01*
X114713452Y-94219500D01*
X114684011Y-94210855D01*
X114654025Y-94204332D01*
X114649009Y-94200577D01*
X114646413Y-94199815D01*
X114625771Y-94183181D01*
X114537631Y-94095041D01*
X114504146Y-94033718D01*
X114509130Y-93964026D01*
X114551002Y-93908093D01*
X114616466Y-93883676D01*
X114638570Y-93884071D01*
X114676960Y-93888199D01*
X114676972Y-93888200D01*
X115572628Y-93888200D01*
X115572644Y-93888199D01*
X115632172Y-93881798D01*
X115632183Y-93881795D01*
X115682166Y-93863153D01*
X115751857Y-93858168D01*
X115813181Y-93891652D01*
G37*
%TD.AperFunction*%
%TA.AperFunction,Conductor*%
G36*
X107128559Y-91577185D02*
G01*
X107164621Y-91612608D01*
X107198601Y-91663461D01*
X107219480Y-91730138D01*
X107219500Y-91732353D01*
X107219500Y-91737007D01*
X107219500Y-91874993D01*
X107219500Y-91874995D01*
X107219499Y-91874995D01*
X107246418Y-92010321D01*
X107246420Y-92010329D01*
X107277019Y-92084201D01*
X107284488Y-92153670D01*
X107277019Y-92179105D01*
X107246902Y-92251814D01*
X107246070Y-92256000D01*
X107327982Y-92256000D01*
X107355689Y-92264135D01*
X107384084Y-92269417D01*
X107391166Y-92274553D01*
X107395021Y-92275685D01*
X107412967Y-92289703D01*
X107414326Y-92290982D01*
X107473458Y-92350114D01*
X107486202Y-92358629D01*
X107493718Y-92365703D01*
X107506375Y-92387300D01*
X107522429Y-92406510D01*
X107523737Y-92416926D01*
X107529045Y-92425983D01*
X107528016Y-92450996D01*
X107531136Y-92475835D01*
X107526605Y-92485304D01*
X107526174Y-92495794D01*
X107511784Y-92516281D01*
X107500981Y-92538863D01*
X107488063Y-92550055D01*
X107486017Y-92552970D01*
X107483529Y-92553984D01*
X107477624Y-92559102D01*
X107473459Y-92561884D01*
X107444561Y-92590782D01*
X107415661Y-92619682D01*
X107354341Y-92653166D01*
X107327982Y-92656000D01*
X107246070Y-92656000D01*
X107246901Y-92660183D01*
X107277019Y-92732893D01*
X107284488Y-92802363D01*
X107277019Y-92827798D01*
X107246420Y-92901670D01*
X107246418Y-92901678D01*
X107219500Y-93037004D01*
X107219500Y-93037007D01*
X107219500Y-93174993D01*
X107219500Y-93174995D01*
X107219499Y-93174995D01*
X107246418Y-93310322D01*
X107246421Y-93310332D01*
X107299221Y-93437804D01*
X107299228Y-93437817D01*
X107375885Y-93552541D01*
X107375888Y-93552545D01*
X107473454Y-93650111D01*
X107473462Y-93650117D01*
X107539390Y-93694169D01*
X107561380Y-93720481D01*
X107583670Y-93746590D01*
X107583831Y-93747344D01*
X107584196Y-93747781D01*
X107593364Y-93780527D01*
X107594500Y-93788863D01*
X107594500Y-93803607D01*
X107600147Y-93831996D01*
X107600880Y-93835681D01*
X107600883Y-93835703D01*
X107618534Y-93924441D01*
X107618538Y-93924454D01*
X107622364Y-93933691D01*
X107665685Y-94038280D01*
X107665686Y-94038282D01*
X107665688Y-94038286D01*
X107679263Y-94058602D01*
X107699751Y-94089265D01*
X107699752Y-94089266D01*
X107699753Y-94089267D01*
X107734142Y-94140733D01*
X107734145Y-94140736D01*
X107734148Y-94140740D01*
X107825586Y-94232178D01*
X107825608Y-94232198D01*
X107950102Y-94356692D01*
X107983587Y-94418015D01*
X107978603Y-94487707D01*
X107936731Y-94543640D01*
X107905755Y-94560555D01*
X107839669Y-94585203D01*
X107839664Y-94585206D01*
X107724455Y-94671452D01*
X107724452Y-94671455D01*
X107638206Y-94786664D01*
X107638204Y-94786668D01*
X107638204Y-94786669D01*
X107634039Y-94797834D01*
X107592171Y-94853766D01*
X107526707Y-94878184D01*
X107517859Y-94878500D01*
X106990452Y-94878500D01*
X106923413Y-94858815D01*
X106902771Y-94842181D01*
X106588818Y-94528228D01*
X106555333Y-94466905D01*
X106552499Y-94440547D01*
X106552499Y-93965129D01*
X106552498Y-93965123D01*
X106552380Y-93964026D01*
X106546091Y-93905517D01*
X106540462Y-93890426D01*
X106495797Y-93770671D01*
X106495793Y-93770664D01*
X106422914Y-93673311D01*
X106398496Y-93607847D01*
X106413347Y-93539574D01*
X106422914Y-93524689D01*
X106495793Y-93427335D01*
X106495792Y-93427335D01*
X106495796Y-93427331D01*
X106546091Y-93292483D01*
X106552500Y-93232873D01*
X106552499Y-92187128D01*
X106546091Y-92127517D01*
X106545452Y-92125805D01*
X106495797Y-91992671D01*
X106491546Y-91984886D01*
X106493838Y-91983634D01*
X106474189Y-91930968D01*
X106489034Y-91862694D01*
X106538435Y-91813284D01*
X106554540Y-91805929D01*
X106635326Y-91775798D01*
X106635326Y-91775797D01*
X106635331Y-91775796D01*
X106750546Y-91689546D01*
X106812199Y-91607188D01*
X106815854Y-91604451D01*
X106817752Y-91600297D01*
X106843566Y-91583706D01*
X106868132Y-91565318D01*
X106873761Y-91564302D01*
X106876530Y-91562523D01*
X106911465Y-91557500D01*
X107061520Y-91557500D01*
X107128559Y-91577185D01*
G37*
%TD.AperFunction*%
%TA.AperFunction,Conductor*%
G36*
X117692632Y-93316406D02*
G01*
X117781620Y-93349596D01*
X117781627Y-93349598D01*
X117841155Y-93355999D01*
X117841172Y-93356000D01*
X118322766Y-93356000D01*
X118389805Y-93375685D01*
X118435560Y-93428489D01*
X118445504Y-93497647D01*
X118416479Y-93561203D01*
X118410447Y-93567681D01*
X117312181Y-94665947D01*
X117250858Y-94699432D01*
X117181166Y-94694448D01*
X117125233Y-94652576D01*
X117100816Y-94587112D01*
X117100500Y-94578266D01*
X117100500Y-93980240D01*
X117120185Y-93913201D01*
X117172989Y-93867446D01*
X117181168Y-93864058D01*
X117183595Y-93863153D01*
X117248272Y-93839030D01*
X117267126Y-93831998D01*
X117267126Y-93831997D01*
X117267131Y-93831996D01*
X117382346Y-93745746D01*
X117468596Y-93630531D01*
X117518891Y-93495683D01*
X117525300Y-93436073D01*
X117525299Y-93432602D01*
X117544974Y-93365564D01*
X117597771Y-93319801D01*
X117666928Y-93309848D01*
X117692632Y-93316406D01*
G37*
%TD.AperFunction*%
%TA.AperFunction,Conductor*%
G36*
X121930587Y-90053185D02*
G01*
X121951229Y-90069819D01*
X122274181Y-90392771D01*
X122307666Y-90454094D01*
X122310500Y-90480452D01*
X122310500Y-93551529D01*
X122290815Y-93618568D01*
X122238011Y-93664323D01*
X122168853Y-93674267D01*
X122112189Y-93650796D01*
X122075330Y-93623203D01*
X122075328Y-93623202D01*
X121940483Y-93572908D01*
X121894243Y-93567937D01*
X121829693Y-93541199D01*
X121789845Y-93483806D01*
X121783500Y-93444648D01*
X121783500Y-91632393D01*
X121783499Y-91632389D01*
X121779564Y-91612608D01*
X121759463Y-91511548D01*
X121712311Y-91397714D01*
X121712310Y-91397713D01*
X121712307Y-91397707D01*
X121643858Y-91295267D01*
X121643855Y-91295263D01*
X121553637Y-91205045D01*
X121553606Y-91205016D01*
X121153818Y-90805228D01*
X121120333Y-90743905D01*
X121117499Y-90717547D01*
X121117499Y-90496129D01*
X121117498Y-90496123D01*
X121116209Y-90484135D01*
X121111091Y-90436517D01*
X121106615Y-90424517D01*
X121060797Y-90301671D01*
X121060796Y-90301669D01*
X121051812Y-90289668D01*
X121008499Y-90231810D01*
X120984083Y-90166347D01*
X120998934Y-90098074D01*
X121048339Y-90048668D01*
X121107767Y-90033500D01*
X121863548Y-90033500D01*
X121930587Y-90053185D01*
G37*
%TD.AperFunction*%
%TA.AperFunction,Conductor*%
G36*
X104493552Y-89432000D02*
G01*
X104920640Y-89859088D01*
X104954125Y-89920411D01*
X104949141Y-89990103D01*
X104907269Y-90046036D01*
X104841805Y-90070453D01*
X104789627Y-90062951D01*
X104722485Y-90037909D01*
X104722483Y-90037908D01*
X104662883Y-90031501D01*
X104662881Y-90031500D01*
X104662873Y-90031500D01*
X104662865Y-90031500D01*
X104437310Y-90031500D01*
X104370271Y-90011815D01*
X104349629Y-89995181D01*
X104140001Y-89785552D01*
X103930369Y-89995182D01*
X103869046Y-90028666D01*
X103842689Y-90031500D01*
X103617130Y-90031500D01*
X103617123Y-90031501D01*
X103557514Y-90037909D01*
X103490372Y-90062951D01*
X103420680Y-90067935D01*
X103359357Y-90034449D01*
X103325873Y-89973125D01*
X103330859Y-89903434D01*
X103359359Y-89859088D01*
X103963224Y-89255224D01*
X104218448Y-89000000D01*
X104925552Y-89000000D01*
X104493552Y-89432000D01*
G37*
%TD.AperFunction*%
%TA.AperFunction,Conductor*%
G36*
X106007095Y-89167543D02*
G01*
X106040580Y-89228866D01*
X106035596Y-89298558D01*
X106007095Y-89342905D01*
X105918000Y-89432000D01*
X106007094Y-89521094D01*
X106040579Y-89582417D01*
X106035595Y-89652109D01*
X106007094Y-89696456D01*
X105708369Y-89995181D01*
X105647046Y-90028666D01*
X105620689Y-90031500D01*
X105395130Y-90031500D01*
X105395123Y-90031501D01*
X105335514Y-90037909D01*
X105268372Y-90062951D01*
X105198680Y-90067935D01*
X105137357Y-90034449D01*
X105103873Y-89973125D01*
X105108859Y-89903434D01*
X105137359Y-89859088D01*
X105564447Y-89431999D01*
X105132448Y-89000000D01*
X105839552Y-89000000D01*
X106007095Y-89167543D01*
G37*
%TD.AperFunction*%
%TD*%
M02*
