%TF.GenerationSoftware,KiCad,Pcbnew,7.0.9*%
%TF.CreationDate,2023-12-24T21:58:01+01:00*%
%TF.ProjectId,preamp2,70726561-6d70-4322-9e6b-696361645f70,rev?*%
%TF.SameCoordinates,Original*%
%TF.FileFunction,Copper,L1,Top*%
%TF.FilePolarity,Positive*%
%FSLAX46Y46*%
G04 Gerber Fmt 4.6, Leading zero omitted, Abs format (unit mm)*
G04 Created by KiCad (PCBNEW 7.0.9) date 2023-12-24 21:58:01*
%MOMM*%
%LPD*%
G01*
G04 APERTURE LIST*
%TA.AperFunction,SMDPad,CuDef*%
%ADD10R,0.800000X0.950000*%
%TD*%
%TA.AperFunction,ComponentPad*%
%ADD11R,1.350000X1.350000*%
%TD*%
%TA.AperFunction,ComponentPad*%
%ADD12O,1.350000X1.350000*%
%TD*%
%TA.AperFunction,SMDPad,CuDef*%
%ADD13R,0.600000X1.200000*%
%TD*%
%TA.AperFunction,SMDPad,CuDef*%
%ADD14R,0.500000X0.500000*%
%TD*%
%TA.AperFunction,ViaPad*%
%ADD15C,0.800000*%
%TD*%
%TA.AperFunction,Conductor*%
%ADD16C,0.250000*%
%TD*%
G04 APERTURE END LIST*
D10*
%TO.P,C3,1*%
%TO.N,Net-(C2-Pad2)*%
X115074000Y-91186000D03*
%TO.P,C3,2*%
%TO.N,Net-(J2-Pin_2)*%
X116574000Y-91186000D03*
%TD*%
%TO.P,R4,1*%
%TO.N,Net-(U1--)*%
X112026000Y-91186000D03*
%TO.P,R4,2*%
%TO.N,Net-(C2-Pad2)*%
X113526000Y-91186000D03*
%TD*%
%TO.P,C1,1*%
%TO.N,Net-(U1-+)*%
X102604000Y-92964000D03*
%TO.P,C1,2*%
%TO.N,GND*%
X101104000Y-92964000D03*
%TD*%
D11*
%TO.P,J1,1,Pin_1*%
%TO.N,Net-(D1-A2)*%
X97536000Y-91948000D03*
D12*
%TO.P,J1,2,Pin_2*%
%TO.N,GND*%
X95536000Y-91948000D03*
%TD*%
D13*
%TO.P,U1,1*%
%TO.N,Net-(C2-Pad2)*%
X109662000Y-90800000D03*
%TO.P,U1,2,V-*%
%TO.N,GND*%
X108712000Y-90800000D03*
%TO.P,U1,3,+*%
%TO.N,Net-(U1-+)*%
X107762000Y-90800000D03*
%TO.P,U1,4,-*%
%TO.N,Net-(U1--)*%
X107762000Y-93200000D03*
%TO.P,U1,5,V+*%
%TO.N,+9V*%
X109662000Y-93200000D03*
%TD*%
D10*
%TO.P,R1,1*%
%TO.N,+9V*%
X105750000Y-91186000D03*
%TO.P,R1,2*%
%TO.N,Net-(U1-+)*%
X104250000Y-91186000D03*
%TD*%
%TO.P,R3,1*%
%TO.N,Net-(D1-A2)*%
X104660000Y-93000000D03*
%TO.P,R3,2*%
%TO.N,Net-(U1--)*%
X106160000Y-93000000D03*
%TD*%
D11*
%TO.P,J2,1,Pin_1*%
%TO.N,+9V*%
X119444000Y-91948000D03*
D12*
%TO.P,J2,2,Pin_2*%
%TO.N,Net-(J2-Pin_2)*%
X121444000Y-91948000D03*
%TO.P,J2,3,Pin_3*%
%TO.N,GND*%
X123444000Y-91948000D03*
%TD*%
D14*
%TO.P,D1,1,A1*%
%TO.N,GND*%
X99822000Y-93156000D03*
%TO.P,D1,2,A2*%
%TO.N,Net-(D1-A2)*%
X99822000Y-91756000D03*
%TD*%
D10*
%TO.P,R2,1*%
%TO.N,Net-(U1-+)*%
X102604000Y-91186000D03*
%TO.P,R2,2*%
%TO.N,GND*%
X101104000Y-91186000D03*
%TD*%
%TO.P,C4,1*%
%TO.N,+9V*%
X115074000Y-92964000D03*
%TO.P,C4,2*%
%TO.N,GND*%
X116574000Y-92964000D03*
%TD*%
%TO.P,C2,1*%
%TO.N,Net-(U1--)*%
X112026000Y-93000000D03*
%TO.P,C2,2*%
%TO.N,Net-(C2-Pad2)*%
X113526000Y-93000000D03*
%TD*%
D15*
%TO.N,GND*%
X99314000Y-90932000D03*
X106862498Y-91186000D03*
%TO.N,Net-(C2-Pad2)*%
X110744000Y-91440000D03*
X113526000Y-92075000D03*
%TO.N,Net-(U1--)*%
X108458000Y-93218000D03*
X110744000Y-93218000D03*
%TO.N,Net-(D1-A2)*%
X103886000Y-93000000D03*
%TO.N,+9V*%
X109982000Y-92456000D03*
%TD*%
D16*
%TO.N,GND*%
X100912000Y-93156000D02*
X101104000Y-92964000D01*
X107188000Y-91725000D02*
X106862498Y-91399498D01*
X101104000Y-91186000D02*
X100850000Y-90932000D01*
X106862498Y-91399498D02*
X106862498Y-91186000D01*
X99822000Y-93156000D02*
X100912000Y-93156000D01*
X101104000Y-91186000D02*
X101104000Y-92964000D01*
X122428000Y-92964000D02*
X123444000Y-91948000D01*
X108427000Y-91725000D02*
X107188000Y-91725000D01*
X108712000Y-91440000D02*
X108458000Y-91694000D01*
X116574000Y-92964000D02*
X122428000Y-92964000D01*
X108458000Y-91694000D02*
X108427000Y-91725000D01*
X108712000Y-90800000D02*
X108712000Y-91440000D01*
X100850000Y-90932000D02*
X99314000Y-90932000D01*
%TO.N,Net-(U1-+)*%
X102604000Y-91186000D02*
X102604000Y-92964000D01*
X107762000Y-90800000D02*
X107348000Y-90386000D01*
X105050000Y-90386000D02*
X104250000Y-91186000D01*
X107348000Y-90386000D02*
X105050000Y-90386000D01*
X104250000Y-91186000D02*
X102604000Y-91186000D01*
%TO.N,Net-(C2-Pad2)*%
X110104000Y-90800000D02*
X110744000Y-91440000D01*
X113526000Y-91186000D02*
X115074000Y-91186000D01*
X109662000Y-90800000D02*
X110104000Y-90800000D01*
X113526000Y-91186000D02*
X113526000Y-93000000D01*
%TO.N,Net-(U1--)*%
X107762000Y-93200000D02*
X108440000Y-93200000D01*
X106360000Y-93200000D02*
X106160000Y-93000000D01*
X112026000Y-93000000D02*
X110962000Y-93000000D01*
X112026000Y-91186000D02*
X112026000Y-93000000D01*
X107762000Y-93200000D02*
X106360000Y-93200000D01*
X108440000Y-93200000D02*
X108458000Y-93218000D01*
X110962000Y-93000000D02*
X110744000Y-93218000D01*
%TO.N,Net-(J2-Pin_2)*%
X117082000Y-90678000D02*
X116574000Y-91186000D01*
X121444000Y-91948000D02*
X121444000Y-91472000D01*
X121444000Y-91472000D02*
X120650000Y-90678000D01*
X120650000Y-90678000D02*
X117082000Y-90678000D01*
%TO.N,Net-(D1-A2)*%
X97728000Y-91756000D02*
X97536000Y-91948000D01*
X104660000Y-93000000D02*
X103886000Y-93000000D01*
X99822000Y-91756000D02*
X97728000Y-91756000D01*
%TO.N,+9V*%
X109662000Y-93200000D02*
X109982000Y-92880000D01*
X109982000Y-92880000D02*
X109982000Y-92456000D01*
X108664000Y-92202000D02*
X106766000Y-92202000D01*
X119228000Y-92164000D02*
X119444000Y-91948000D01*
X109662000Y-93200000D02*
X108664000Y-92202000D01*
X106766000Y-92202000D02*
X105750000Y-91186000D01*
X115799000Y-92164000D02*
X119228000Y-92164000D01*
X115074000Y-92964000D02*
X115074000Y-92889000D01*
X115074000Y-92889000D02*
X115799000Y-92164000D01*
%TD*%
M02*
