%TF.GenerationSoftware,KiCad,Pcbnew,9.0.0*%
%TF.CreationDate,2025-04-01T12:45:26+02:00*%
%TF.ProjectId,preamp2,70726561-6d70-4322-9e6b-696361645f70,5*%
%TF.SameCoordinates,Original*%
%TF.FileFunction,Soldermask,Top*%
%TF.FilePolarity,Negative*%
%FSLAX46Y46*%
G04 Gerber Fmt 4.6, Leading zero omitted, Abs format (unit mm)*
G04 Created by KiCad (PCBNEW 9.0.0) date 2025-04-01 12:45:26*
%MOMM*%
%LPD*%
G01*
G04 APERTURE LIST*
G04 Aperture macros list*
%AMRoundRect*
0 Rectangle with rounded corners*
0 $1 Rounding radius*
0 $2 $3 $4 $5 $6 $7 $8 $9 X,Y pos of 4 corners*
0 Add a 4 corners polygon primitive as box body*
4,1,4,$2,$3,$4,$5,$6,$7,$8,$9,$2,$3,0*
0 Add four circle primitives for the rounded corners*
1,1,$1+$1,$2,$3*
1,1,$1+$1,$4,$5*
1,1,$1+$1,$6,$7*
1,1,$1+$1,$8,$9*
0 Add four rect primitives between the rounded corners*
20,1,$1+$1,$2,$3,$4,$5,0*
20,1,$1+$1,$4,$5,$6,$7,0*
20,1,$1+$1,$6,$7,$8,$9,0*
20,1,$1+$1,$8,$9,$2,$3,0*%
G04 Aperture macros list end*
%ADD10R,0.950000X0.800000*%
%ADD11R,0.800000X0.950000*%
%ADD12O,1.000000X0.400000*%
%ADD13RoundRect,0.175000X-0.175000X0.225000X-0.175000X-0.225000X0.175000X-0.225000X0.175000X0.225000X0*%
%ADD14RoundRect,0.175000X-0.325000X0.175000X-0.325000X-0.175000X0.325000X-0.175000X0.325000X0.175000X0*%
%ADD15R,2.000000X1.350000*%
%ADD16R,1.350000X1.350000*%
%ADD17O,1.350000X1.350000*%
%ADD18R,0.900000X1.400000*%
G04 APERTURE END LIST*
D10*
%TO.C,C7*%
X120142000Y-92444000D03*
X120142000Y-90944000D03*
%TD*%
D11*
%TO.C,C3*%
X112026000Y-92964000D03*
X113526000Y-92964000D03*
%TD*%
D12*
%TO.C,U2*%
X108220000Y-99680000D03*
X108220000Y-100330000D03*
X108220000Y-100980000D03*
X110220000Y-100980000D03*
X110220000Y-99680000D03*
%TD*%
D11*
%TO.C,C6*%
X115074000Y-102616000D03*
X116574000Y-102616000D03*
%TD*%
D13*
%TO.C,RV2*%
X114646000Y-95120000D03*
D14*
X114046000Y-97720000D03*
D13*
X113446000Y-95120000D03*
%TD*%
D11*
%TO.C,R7*%
X112026000Y-91186000D03*
X113526000Y-91186000D03*
%TD*%
D12*
%TO.C,U3*%
X116475000Y-95616000D03*
X116475000Y-96266000D03*
X116475000Y-96916000D03*
X118475000Y-96916000D03*
X118475000Y-95616000D03*
%TD*%
D11*
%TO.C,R15*%
X105652000Y-101092000D03*
X104152000Y-101092000D03*
%TD*%
D10*
%TO.C,R4*%
X104140000Y-90932000D03*
X104140000Y-89432000D03*
%TD*%
D11*
%TO.C,R10*%
X105652000Y-94488000D03*
X104152000Y-94488000D03*
%TD*%
D10*
%TO.C,C1*%
X105918000Y-90932000D03*
X105918000Y-89432000D03*
%TD*%
D12*
%TO.C,U1*%
X108220000Y-91806000D03*
X108220000Y-92456000D03*
X108220000Y-93106000D03*
X110220000Y-93106000D03*
X110220000Y-91806000D03*
%TD*%
D10*
%TO.C,R6*%
X104140000Y-97778000D03*
X104140000Y-96278000D03*
%TD*%
D11*
%TO.C,R1*%
X104152000Y-92710000D03*
X105652000Y-92710000D03*
%TD*%
%TO.C,R13*%
X113550000Y-99060000D03*
X115050000Y-99060000D03*
%TD*%
D10*
%TO.C,C5*%
X118364000Y-90956000D03*
X118364000Y-92456000D03*
%TD*%
D11*
%TO.C,R9*%
X115062000Y-100838000D03*
X116562000Y-100838000D03*
%TD*%
%TO.C,R3*%
X109208000Y-89408000D03*
X107708000Y-89408000D03*
%TD*%
%TO.C,R8*%
X112026000Y-100838000D03*
X113526000Y-100838000D03*
%TD*%
D15*
%TO.C,J4*%
X100838000Y-100330000D03*
X100838000Y-98330000D03*
%TD*%
D11*
%TO.C,R12*%
X116624800Y-92913200D03*
X115124800Y-92913200D03*
%TD*%
%TO.C,R2*%
X104152000Y-99314000D03*
X105652000Y-99314000D03*
%TD*%
%TO.C,C4*%
X112026000Y-102616000D03*
X113526000Y-102616000D03*
%TD*%
D10*
%TO.C,C2*%
X105918000Y-97778000D03*
X105918000Y-96278000D03*
%TD*%
D16*
%TO.C,J5*%
X121158000Y-94742000D03*
D17*
X121158000Y-96742000D03*
X121158000Y-98742000D03*
%TD*%
D11*
%TO.C,R5*%
X109970000Y-97282000D03*
X108470000Y-97282000D03*
%TD*%
%TO.C,C10*%
X104152000Y-102870000D03*
X105652000Y-102870000D03*
%TD*%
D18*
%TO.C,C8*%
X118242000Y-101346000D03*
X120142000Y-101346000D03*
%TD*%
D11*
%TO.C,C9*%
X108482000Y-95504000D03*
X109982000Y-95504000D03*
%TD*%
D15*
%TO.C,J3*%
X100838000Y-90964000D03*
X100838000Y-92964000D03*
%TD*%
D11*
%TO.C,R11*%
X115124800Y-91186000D03*
X116624800Y-91186000D03*
%TD*%
M02*
