%TF.GenerationSoftware,KiCad,Pcbnew,7.0.9*%
%TF.CreationDate,2024-01-15T14:46:19+01:00*%
%TF.ProjectId,preamp2,70726561-6d70-4322-9e6b-696361645f70,1*%
%TF.SameCoordinates,Original*%
%TF.FileFunction,Copper,L2,Bot*%
%TF.FilePolarity,Positive*%
%FSLAX46Y46*%
G04 Gerber Fmt 4.6, Leading zero omitted, Abs format (unit mm)*
G04 Created by KiCad (PCBNEW 7.0.9) date 2024-01-15 14:46:19*
%MOMM*%
%LPD*%
G01*
G04 APERTURE LIST*
%TA.AperFunction,ComponentPad*%
%ADD10R,1.350000X1.350000*%
%TD*%
%TA.AperFunction,ComponentPad*%
%ADD11O,1.350000X1.350000*%
%TD*%
%TA.AperFunction,ViaPad*%
%ADD12C,0.800000*%
%TD*%
%TA.AperFunction,Conductor*%
%ADD13C,0.250000*%
%TD*%
G04 APERTURE END LIST*
D10*
%TO.P,J5,1,Pin_1*%
%TO.N,Net-(J5-Pin_1)*%
X121158000Y-94742000D03*
D11*
%TO.P,J5,2,Pin_2*%
%TO.N,+9V*%
X121158000Y-96742000D03*
%TO.P,J5,3,Pin_3*%
%TO.N,GND*%
X121158000Y-98742000D03*
%TD*%
D12*
%TO.N,GND*%
X100330000Y-100838000D03*
X114427000Y-94106998D03*
X106862498Y-91186000D03*
X121412000Y-89916000D03*
X98552000Y-96266000D03*
X99822000Y-90424000D03*
X106862498Y-99822000D03*
%TO.N,Net-(U1--)*%
X108458000Y-93218000D03*
X110744000Y-93218000D03*
%TO.N,Net-(C3-Pad2)*%
X110744000Y-91440000D03*
X113526000Y-92075000D03*
%TO.N,+9V*%
X109855000Y-98044000D03*
X109982000Y-92456000D03*
X118425000Y-98552000D03*
X109855000Y-101092000D03*
X110744000Y-90119200D03*
%TO.N,Net-(U2--)*%
X108458000Y-101981000D03*
X110744000Y-101981000D03*
%TO.N,Net-(C4-Pad2)*%
X113526000Y-100711000D03*
X110744000Y-100203000D03*
%TD*%
D13*
%TO.N,GND*%
X106862498Y-91186000D02*
X106862498Y-94081600D01*
X121412000Y-89916000D02*
X122428000Y-90932000D01*
X99822000Y-90424000D02*
X99822000Y-94996000D01*
X122428000Y-97472000D02*
X121158000Y-98742000D01*
X100330000Y-98044000D02*
X98552000Y-96266000D01*
X106862498Y-94081600D02*
X106862498Y-96000000D01*
X122428000Y-90932000D02*
X122428000Y-97472000D01*
X100330000Y-100838000D02*
X100330000Y-98044000D01*
X114426998Y-94107000D02*
X114427000Y-94106998D01*
X106862498Y-96000000D02*
X98818000Y-96000000D01*
X106887898Y-94107000D02*
X114426998Y-94107000D01*
X106862498Y-94081600D02*
X106887898Y-94107000D01*
X98818000Y-96000000D02*
X98552000Y-96266000D01*
X106862498Y-96000000D02*
X106862498Y-99822000D01*
X99822000Y-94996000D02*
X98552000Y-96266000D01*
%TO.N,Net-(U1--)*%
X108458000Y-93218000D02*
X110744000Y-93218000D01*
%TO.N,Net-(C3-Pad2)*%
X112763992Y-91440000D02*
X113526000Y-92202008D01*
X110744000Y-91440000D02*
X112763992Y-91440000D01*
%TO.N,+9V*%
X110744000Y-90119200D02*
X109982000Y-90881200D01*
X110363000Y-98552000D02*
X109855000Y-98044000D01*
X109855000Y-101092000D02*
X109855000Y-98044000D01*
X109982000Y-90881200D02*
X109982000Y-92456000D01*
X118425000Y-98552000D02*
X110363000Y-98552000D01*
%TO.N,Net-(U2--)*%
X108458000Y-101981000D02*
X110744000Y-101981000D01*
%TO.N,Net-(C4-Pad2)*%
X113526000Y-100711000D02*
X111252000Y-100711000D01*
X111252000Y-100711000D02*
X110744000Y-100203000D01*
%TD*%
%TA.AperFunction,Conductor*%
%TO.N,GND*%
G36*
X109913952Y-89519685D02*
G01*
X109959707Y-89572489D01*
X109969651Y-89641647D01*
X109954301Y-89685999D01*
X109916820Y-89750918D01*
X109916818Y-89750922D01*
X109858327Y-89930940D01*
X109858326Y-89930944D01*
X109840679Y-90098849D01*
X109814094Y-90163463D01*
X109805039Y-90173568D01*
X109598208Y-90380399D01*
X109585951Y-90390220D01*
X109586134Y-90390441D01*
X109580123Y-90395413D01*
X109532772Y-90445836D01*
X109511889Y-90466719D01*
X109511877Y-90466732D01*
X109507621Y-90472217D01*
X109503837Y-90476647D01*
X109471937Y-90510618D01*
X109471936Y-90510620D01*
X109462284Y-90528176D01*
X109451610Y-90544426D01*
X109439329Y-90560261D01*
X109439324Y-90560268D01*
X109420815Y-90603038D01*
X109418245Y-90608284D01*
X109395803Y-90649106D01*
X109390822Y-90668507D01*
X109384521Y-90686910D01*
X109376562Y-90705302D01*
X109376561Y-90705305D01*
X109369271Y-90751327D01*
X109368087Y-90757046D01*
X109356501Y-90802172D01*
X109356500Y-90802182D01*
X109356500Y-90822216D01*
X109354973Y-90841615D01*
X109351840Y-90861394D01*
X109351840Y-90861395D01*
X109356225Y-90907783D01*
X109356500Y-90913621D01*
X109356500Y-91757312D01*
X109336815Y-91824351D01*
X109324650Y-91840284D01*
X109249466Y-91923784D01*
X109154821Y-92087715D01*
X109154818Y-92087722D01*
X109097784Y-92263256D01*
X109096326Y-92267744D01*
X109089191Y-92335627D01*
X109062607Y-92400240D01*
X109005310Y-92440225D01*
X108935491Y-92442885D01*
X108915435Y-92435943D01*
X108737807Y-92356857D01*
X108737802Y-92356855D01*
X108592001Y-92325865D01*
X108552646Y-92317500D01*
X108363354Y-92317500D01*
X108330897Y-92324398D01*
X108178197Y-92356855D01*
X108178192Y-92356857D01*
X108005270Y-92433848D01*
X108005265Y-92433851D01*
X107852129Y-92545111D01*
X107725466Y-92685785D01*
X107630821Y-92849715D01*
X107630818Y-92849722D01*
X107589951Y-92975500D01*
X107572326Y-93029744D01*
X107552540Y-93218000D01*
X107572326Y-93406256D01*
X107572327Y-93406259D01*
X107630818Y-93586277D01*
X107630821Y-93586284D01*
X107725467Y-93750216D01*
X107827185Y-93863185D01*
X107852129Y-93890888D01*
X108005265Y-94002148D01*
X108005270Y-94002151D01*
X108178192Y-94079142D01*
X108178197Y-94079144D01*
X108363354Y-94118500D01*
X108363355Y-94118500D01*
X108552644Y-94118500D01*
X108552646Y-94118500D01*
X108737803Y-94079144D01*
X108910730Y-94002151D01*
X109063871Y-93890888D01*
X109066788Y-93887647D01*
X109069600Y-93884526D01*
X109129087Y-93847879D01*
X109161748Y-93843500D01*
X110040252Y-93843500D01*
X110107291Y-93863185D01*
X110132400Y-93884526D01*
X110138126Y-93890885D01*
X110138130Y-93890889D01*
X110291265Y-94002148D01*
X110291270Y-94002151D01*
X110464192Y-94079142D01*
X110464197Y-94079144D01*
X110649354Y-94118500D01*
X110649355Y-94118500D01*
X110838644Y-94118500D01*
X110838646Y-94118500D01*
X111023803Y-94079144D01*
X111196730Y-94002151D01*
X111349871Y-93890888D01*
X111476533Y-93750216D01*
X111571179Y-93586284D01*
X111629674Y-93406256D01*
X111649460Y-93218000D01*
X111629674Y-93029744D01*
X111571179Y-92849716D01*
X111476533Y-92685784D01*
X111349871Y-92545112D01*
X111349870Y-92545111D01*
X111191473Y-92430029D01*
X111193028Y-92427888D01*
X111152921Y-92385840D01*
X111139685Y-92317235D01*
X111165642Y-92252366D01*
X111192370Y-92229205D01*
X111191473Y-92227971D01*
X111281513Y-92162553D01*
X111349871Y-92112888D01*
X111352788Y-92109647D01*
X111355600Y-92106526D01*
X111415087Y-92069879D01*
X111447748Y-92065500D01*
X112453540Y-92065500D01*
X112520579Y-92085185D01*
X112541221Y-92101819D01*
X112601955Y-92162553D01*
X112635440Y-92223876D01*
X112637594Y-92237270D01*
X112640325Y-92263249D01*
X112640327Y-92263260D01*
X112698818Y-92443277D01*
X112698821Y-92443284D01*
X112793467Y-92607216D01*
X112864211Y-92685785D01*
X112920129Y-92747888D01*
X113073265Y-92859148D01*
X113073270Y-92859151D01*
X113246192Y-92936142D01*
X113246197Y-92936144D01*
X113431354Y-92975500D01*
X113431355Y-92975500D01*
X113620644Y-92975500D01*
X113620646Y-92975500D01*
X113805803Y-92936144D01*
X113978730Y-92859151D01*
X114131871Y-92747888D01*
X114258533Y-92607216D01*
X114353179Y-92443284D01*
X114411674Y-92263256D01*
X114431460Y-92075000D01*
X114411674Y-91886744D01*
X114353179Y-91706716D01*
X114258533Y-91542784D01*
X114131871Y-91402112D01*
X114131870Y-91402111D01*
X113978734Y-91290851D01*
X113978729Y-91290848D01*
X113805807Y-91213857D01*
X113805802Y-91213855D01*
X113660001Y-91182865D01*
X113620646Y-91174500D01*
X113434445Y-91174500D01*
X113367406Y-91154815D01*
X113346764Y-91138181D01*
X113264795Y-91056212D01*
X113254972Y-91043950D01*
X113254751Y-91044134D01*
X113249778Y-91038123D01*
X113199356Y-90990773D01*
X113188911Y-90980328D01*
X113178467Y-90969883D01*
X113172978Y-90965625D01*
X113168553Y-90961847D01*
X113134574Y-90929938D01*
X113134572Y-90929936D01*
X113134569Y-90929935D01*
X113117021Y-90920288D01*
X113100755Y-90909604D01*
X113084928Y-90897327D01*
X113084927Y-90897326D01*
X113084925Y-90897325D01*
X113042160Y-90878818D01*
X113036914Y-90876248D01*
X112996085Y-90853803D01*
X112996084Y-90853802D01*
X112976685Y-90848822D01*
X112958273Y-90842518D01*
X112939890Y-90834562D01*
X112939884Y-90834560D01*
X112893866Y-90827272D01*
X112888144Y-90826087D01*
X112843013Y-90814500D01*
X112843011Y-90814500D01*
X112822976Y-90814500D01*
X112803578Y-90812973D01*
X112796154Y-90811797D01*
X112783797Y-90809840D01*
X112783796Y-90809840D01*
X112737408Y-90814225D01*
X112731570Y-90814500D01*
X111597151Y-90814500D01*
X111530112Y-90794815D01*
X111484357Y-90742011D01*
X111474413Y-90672853D01*
X111489764Y-90628501D01*
X111571176Y-90487489D01*
X111571175Y-90487489D01*
X111571179Y-90487484D01*
X111629674Y-90307456D01*
X111649460Y-90119200D01*
X111629674Y-89930944D01*
X111571179Y-89750916D01*
X111533698Y-89685998D01*
X111517227Y-89618099D01*
X111540080Y-89552072D01*
X111595002Y-89508882D01*
X111641087Y-89500000D01*
X122876000Y-89500000D01*
X122943039Y-89519685D01*
X122988794Y-89572489D01*
X123000000Y-89624000D01*
X123000000Y-102376000D01*
X122980315Y-102443039D01*
X122927511Y-102488794D01*
X122876000Y-102500000D01*
X111692880Y-102500000D01*
X111625841Y-102480315D01*
X111580086Y-102427511D01*
X111570142Y-102358353D01*
X111574949Y-102337682D01*
X111585974Y-102303748D01*
X111629674Y-102169256D01*
X111649460Y-101981000D01*
X111629674Y-101792744D01*
X111571179Y-101612716D01*
X111519093Y-101522500D01*
X111502620Y-101454599D01*
X111525473Y-101388573D01*
X111580394Y-101345382D01*
X111626480Y-101336500D01*
X112822252Y-101336500D01*
X112889291Y-101356185D01*
X112914400Y-101377526D01*
X112920126Y-101383885D01*
X112920130Y-101383889D01*
X113073265Y-101495148D01*
X113073270Y-101495151D01*
X113246192Y-101572142D01*
X113246197Y-101572144D01*
X113431354Y-101611500D01*
X113431355Y-101611500D01*
X113620644Y-101611500D01*
X113620646Y-101611500D01*
X113805803Y-101572144D01*
X113978730Y-101495151D01*
X114131871Y-101383888D01*
X114258533Y-101243216D01*
X114353179Y-101079284D01*
X114411674Y-100899256D01*
X114431460Y-100711000D01*
X114411674Y-100522744D01*
X114353179Y-100342716D01*
X114258533Y-100178784D01*
X114131871Y-100038112D01*
X114131870Y-100038111D01*
X113978734Y-99926851D01*
X113978729Y-99926848D01*
X113805807Y-99849857D01*
X113805802Y-99849855D01*
X113660001Y-99818865D01*
X113620646Y-99810500D01*
X113431354Y-99810500D01*
X113398897Y-99817398D01*
X113246197Y-99849855D01*
X113246192Y-99849857D01*
X113073270Y-99926848D01*
X113073265Y-99926851D01*
X112920130Y-100038110D01*
X112920126Y-100038114D01*
X112914400Y-100044474D01*
X112854913Y-100081121D01*
X112822252Y-100085500D01*
X111742755Y-100085500D01*
X111675716Y-100065815D01*
X111629961Y-100013011D01*
X111624824Y-99999818D01*
X111571181Y-99834721D01*
X111571178Y-99834715D01*
X111476533Y-99670784D01*
X111349871Y-99530112D01*
X111349870Y-99530111D01*
X111196734Y-99418851D01*
X111196732Y-99418850D01*
X111196730Y-99418849D01*
X111187587Y-99414778D01*
X111134351Y-99369528D01*
X111114031Y-99302678D01*
X111133077Y-99235455D01*
X111185444Y-99189200D01*
X111238025Y-99177500D01*
X117721252Y-99177500D01*
X117788291Y-99197185D01*
X117813400Y-99218526D01*
X117819126Y-99224885D01*
X117819130Y-99224889D01*
X117972265Y-99336148D01*
X117972270Y-99336151D01*
X118145192Y-99413142D01*
X118145197Y-99413144D01*
X118330354Y-99452500D01*
X118330355Y-99452500D01*
X118519644Y-99452500D01*
X118519646Y-99452500D01*
X118704803Y-99413144D01*
X118877730Y-99336151D01*
X119030871Y-99224888D01*
X119157533Y-99084216D01*
X119252179Y-98920284D01*
X119310674Y-98740256D01*
X119330460Y-98552000D01*
X119310674Y-98363744D01*
X119252179Y-98183716D01*
X119157533Y-98019784D01*
X119030871Y-97879112D01*
X119030870Y-97879111D01*
X118877734Y-97767851D01*
X118877729Y-97767848D01*
X118704807Y-97690857D01*
X118704802Y-97690855D01*
X118559001Y-97659865D01*
X118519646Y-97651500D01*
X118330354Y-97651500D01*
X118297897Y-97658398D01*
X118145197Y-97690855D01*
X118145192Y-97690857D01*
X117972270Y-97767848D01*
X117972265Y-97767851D01*
X117819130Y-97879110D01*
X117819126Y-97879114D01*
X117813400Y-97885474D01*
X117753913Y-97922121D01*
X117721252Y-97926500D01*
X110853755Y-97926500D01*
X110786716Y-97906815D01*
X110740961Y-97854011D01*
X110735824Y-97840818D01*
X110722162Y-97798772D01*
X110712115Y-97767848D01*
X110682181Y-97675721D01*
X110682178Y-97675715D01*
X110587533Y-97511784D01*
X110460871Y-97371112D01*
X110460870Y-97371111D01*
X110307734Y-97259851D01*
X110307729Y-97259848D01*
X110134807Y-97182857D01*
X110134802Y-97182855D01*
X109989001Y-97151865D01*
X109949646Y-97143500D01*
X109760354Y-97143500D01*
X109727897Y-97150398D01*
X109575197Y-97182855D01*
X109575192Y-97182857D01*
X109402270Y-97259848D01*
X109402265Y-97259851D01*
X109249129Y-97371111D01*
X109122466Y-97511785D01*
X109027821Y-97675715D01*
X109027818Y-97675722D01*
X108969889Y-97854011D01*
X108969326Y-97855744D01*
X108949540Y-98044000D01*
X108969326Y-98232256D01*
X108969327Y-98232259D01*
X109027818Y-98412277D01*
X109027821Y-98412284D01*
X109122467Y-98576216D01*
X109159056Y-98616852D01*
X109197650Y-98659715D01*
X109227880Y-98722706D01*
X109229500Y-98742687D01*
X109229500Y-100393312D01*
X109209815Y-100460351D01*
X109197650Y-100476284D01*
X109122466Y-100559784D01*
X109027821Y-100723715D01*
X109027818Y-100723722D01*
X108970784Y-100899256D01*
X108969326Y-100903744D01*
X108955118Y-101038932D01*
X108928533Y-101103546D01*
X108871236Y-101143531D01*
X108801417Y-101146191D01*
X108781361Y-101139249D01*
X108737807Y-101119857D01*
X108737802Y-101119855D01*
X108592001Y-101088865D01*
X108552646Y-101080500D01*
X108363354Y-101080500D01*
X108330897Y-101087398D01*
X108178197Y-101119855D01*
X108178192Y-101119857D01*
X108005270Y-101196848D01*
X108005265Y-101196851D01*
X107852129Y-101308111D01*
X107725466Y-101448785D01*
X107630821Y-101612715D01*
X107630818Y-101612722D01*
X107572327Y-101792740D01*
X107572326Y-101792744D01*
X107552540Y-101981000D01*
X107572326Y-102169256D01*
X107572327Y-102169259D01*
X107627051Y-102337682D01*
X107629046Y-102407523D01*
X107592966Y-102467356D01*
X107530265Y-102498184D01*
X107509120Y-102500000D01*
X97624000Y-102500000D01*
X97556961Y-102480315D01*
X97511206Y-102427511D01*
X97500000Y-102376000D01*
X97500000Y-96742000D01*
X119977464Y-96742000D01*
X119997564Y-96958918D01*
X120057184Y-97168462D01*
X120154288Y-97363472D01*
X120285574Y-97537324D01*
X120409944Y-97650701D01*
X120446226Y-97710412D01*
X120444465Y-97780259D01*
X120409944Y-97833975D01*
X120285945Y-97947013D01*
X120154715Y-98120791D01*
X120057651Y-98315719D01*
X120007494Y-98491999D01*
X120007495Y-98492000D01*
X120842314Y-98492000D01*
X120830359Y-98503955D01*
X120772835Y-98616852D01*
X120753014Y-98742000D01*
X120772835Y-98867148D01*
X120830359Y-98980045D01*
X120842314Y-98992000D01*
X120007495Y-98992000D01*
X120057651Y-99168280D01*
X120154715Y-99363208D01*
X120285945Y-99536985D01*
X120446868Y-99683685D01*
X120632012Y-99798322D01*
X120632023Y-99798327D01*
X120835060Y-99876984D01*
X120908000Y-99890619D01*
X120908000Y-99057686D01*
X120919955Y-99069641D01*
X121032852Y-99127165D01*
X121126519Y-99142000D01*
X121189481Y-99142000D01*
X121283148Y-99127165D01*
X121396045Y-99069641D01*
X121408000Y-99057686D01*
X121408000Y-99890619D01*
X121480939Y-99876984D01*
X121683976Y-99798327D01*
X121683987Y-99798322D01*
X121869130Y-99683685D01*
X121869131Y-99683685D01*
X122030054Y-99536985D01*
X122161284Y-99363208D01*
X122258348Y-99168280D01*
X122308505Y-98992000D01*
X121473686Y-98992000D01*
X121485641Y-98980045D01*
X121543165Y-98867148D01*
X121562986Y-98742000D01*
X121543165Y-98616852D01*
X121485641Y-98503955D01*
X121473686Y-98492000D01*
X122308505Y-98492000D01*
X122308505Y-98491999D01*
X122258348Y-98315719D01*
X122161284Y-98120791D01*
X122030056Y-97947017D01*
X121906055Y-97833976D01*
X121869774Y-97774265D01*
X121871534Y-97704417D01*
X121906052Y-97650704D01*
X122030427Y-97537322D01*
X122161712Y-97363472D01*
X122258817Y-97168459D01*
X122318435Y-96958923D01*
X122338536Y-96742000D01*
X122318435Y-96525077D01*
X122258817Y-96315541D01*
X122161712Y-96120528D01*
X122080251Y-96012656D01*
X122055560Y-95947297D01*
X122070125Y-95878962D01*
X122104895Y-95838665D01*
X122152545Y-95802993D01*
X122190546Y-95774546D01*
X122276796Y-95659331D01*
X122327091Y-95524483D01*
X122333500Y-95464873D01*
X122333499Y-94019128D01*
X122327091Y-93959517D01*
X122301494Y-93890889D01*
X122276797Y-93824671D01*
X122276793Y-93824664D01*
X122190547Y-93709455D01*
X122190544Y-93709452D01*
X122075335Y-93623206D01*
X122075328Y-93623202D01*
X121940482Y-93572908D01*
X121940483Y-93572908D01*
X121880883Y-93566501D01*
X121880881Y-93566500D01*
X121880873Y-93566500D01*
X121880864Y-93566500D01*
X120435129Y-93566500D01*
X120435123Y-93566501D01*
X120375516Y-93572908D01*
X120240671Y-93623202D01*
X120240664Y-93623206D01*
X120125455Y-93709452D01*
X120125452Y-93709455D01*
X120039206Y-93824664D01*
X120039202Y-93824671D01*
X119988908Y-93959517D01*
X119984325Y-94002151D01*
X119982501Y-94019123D01*
X119982500Y-94019135D01*
X119982500Y-95464870D01*
X119982501Y-95464876D01*
X119988908Y-95524483D01*
X120039202Y-95659328D01*
X120039206Y-95659335D01*
X120108358Y-95751709D01*
X120125454Y-95774546D01*
X120211105Y-95838664D01*
X120252975Y-95894597D01*
X120257959Y-95964289D01*
X120235748Y-96012656D01*
X120154288Y-96120528D01*
X120057184Y-96315537D01*
X119997564Y-96525081D01*
X119977464Y-96741999D01*
X119977464Y-96742000D01*
X97500000Y-96742000D01*
X97500000Y-89624000D01*
X97519685Y-89556961D01*
X97572489Y-89511206D01*
X97624000Y-89500000D01*
X109846913Y-89500000D01*
X109913952Y-89519685D01*
G37*
%TD.AperFunction*%
%TD*%
M02*
