%TF.GenerationSoftware,KiCad,Pcbnew,9.0.0*%
%TF.CreationDate,2025-04-01T12:45:26+02:00*%
%TF.ProjectId,preamp2,70726561-6d70-4322-9e6b-696361645f70,5*%
%TF.SameCoordinates,Original*%
%TF.FileFunction,Legend,Top*%
%TF.FilePolarity,Positive*%
%FSLAX46Y46*%
G04 Gerber Fmt 4.6, Leading zero omitted, Abs format (unit mm)*
G04 Created by KiCad (PCBNEW 9.0.0) date 2025-04-01 12:45:26*
%MOMM*%
%LPD*%
G01*
G04 APERTURE LIST*
%ADD10C,0.150000*%
%ADD11C,0.300000*%
%ADD12C,0.097500*%
%ADD13C,0.100000*%
%ADD14C,0.200000*%
%ADD15C,0.120000*%
G04 APERTURE END LIST*
D10*
X122809000Y-99060000D02*
X123571000Y-99060000D01*
X98679000Y-98457000D02*
X99441000Y-98457000D01*
X98679000Y-93250000D02*
X99441000Y-93250000D01*
X98679000Y-93123000D02*
X99441000Y-93123000D01*
X122809000Y-99187000D02*
X123571000Y-99187000D01*
X98679000Y-98584000D02*
X99441000Y-98584000D01*
X123190000Y-99060000D02*
X123190000Y-98425000D01*
X99060000Y-98457000D02*
X99060000Y-97822000D01*
X99060000Y-93123000D02*
X99060000Y-92488000D01*
G36*
X99095683Y-99665201D02*
G01*
X99162034Y-99674185D01*
X99223496Y-99692101D01*
X99266410Y-99714968D01*
X99310817Y-99750090D01*
X99351013Y-99793259D01*
X99378704Y-99838788D01*
X99393890Y-99886678D01*
X99397080Y-99922330D01*
X99391324Y-99975239D01*
X99374056Y-100023263D01*
X99345275Y-100066401D01*
X99304983Y-100104654D01*
X99276790Y-100124319D01*
X99328507Y-100153652D01*
X99374090Y-100190604D01*
X99410208Y-100230809D01*
X99438544Y-100275569D01*
X99456385Y-100323144D01*
X99463731Y-100373534D01*
X99463941Y-100383949D01*
X99459723Y-100438231D01*
X99447068Y-100487688D01*
X99421642Y-100539287D01*
X99384733Y-100584319D01*
X99343957Y-100617690D01*
X99292226Y-100649762D01*
X99234642Y-100676769D01*
X99171823Y-100694855D01*
X99117727Y-100700000D01*
X98740982Y-100700000D01*
X98687945Y-100673072D01*
X98680838Y-100637473D01*
X98680838Y-100604501D01*
X98813034Y-100604501D01*
X99081091Y-100604501D01*
X99143022Y-100599400D01*
X99203224Y-100581769D01*
X99254362Y-100551544D01*
X99267936Y-100540020D01*
X99305127Y-100498256D01*
X99330128Y-100449284D01*
X99338461Y-100397138D01*
X99330669Y-100344622D01*
X99307292Y-100294877D01*
X99272516Y-100252058D01*
X99225987Y-100217282D01*
X99168069Y-100195386D01*
X99106204Y-100186692D01*
X99083533Y-100186113D01*
X98813034Y-100186113D01*
X98813034Y-100604501D01*
X98680838Y-100604501D01*
X98680838Y-100078890D01*
X98813034Y-100078890D01*
X99074984Y-100078890D01*
X99136973Y-100073839D01*
X99195255Y-100054847D01*
X99223057Y-100036147D01*
X99256867Y-99994514D01*
X99271743Y-99944839D01*
X99272516Y-99929169D01*
X99263849Y-99879198D01*
X99237850Y-99834063D01*
X99220004Y-99814863D01*
X99170330Y-99782603D01*
X99111597Y-99767422D01*
X99071626Y-99765038D01*
X98813034Y-99765038D01*
X98813034Y-100078890D01*
X98680838Y-100078890D01*
X98680838Y-99727180D01*
X98700759Y-99678820D01*
X98760522Y-99662700D01*
X99028578Y-99662700D01*
X99095683Y-99665201D01*
G37*
G36*
X98637790Y-90562664D02*
G01*
X98670398Y-90520880D01*
X98713505Y-90515281D01*
X99349758Y-90515281D01*
X99405406Y-90538716D01*
X99411429Y-90564862D01*
X99383001Y-90610042D01*
X99351284Y-90614932D01*
X99087807Y-90614932D01*
X99087807Y-91501778D01*
X99063359Y-91548375D01*
X99025220Y-91556000D01*
X98969759Y-91533174D01*
X98962327Y-91502999D01*
X98962327Y-90614932D01*
X98711673Y-90614932D01*
X98651932Y-90598394D01*
X98637790Y-90562664D01*
G37*
D11*
G36*
X123103318Y-96363990D02*
G01*
X123130183Y-96295162D01*
X123179522Y-96281558D01*
X123244137Y-96319741D01*
X123252795Y-96370218D01*
X123252795Y-96593700D01*
X123473346Y-96593700D01*
X123543259Y-96617464D01*
X123559808Y-96668805D01*
X123521626Y-96731481D01*
X123471148Y-96739879D01*
X123393137Y-96739879D01*
X123313613Y-96739879D01*
X123249864Y-96739879D01*
X123249864Y-96965560D01*
X123225453Y-97037140D01*
X123180621Y-97051289D01*
X123114189Y-97018660D01*
X123103318Y-96967758D01*
X123103318Y-96739879D01*
X123021691Y-96739879D01*
X122938480Y-96739879D01*
X122871776Y-96739879D01*
X122801567Y-96715768D01*
X122784948Y-96663676D01*
X122823131Y-96601000D01*
X122873608Y-96592601D01*
X123103318Y-96592601D01*
X123103318Y-96363990D01*
G37*
D12*
G36*
X119932519Y-89386053D02*
G01*
X120068376Y-89386053D01*
X120086991Y-89389937D01*
X120097362Y-89400407D01*
X120101239Y-89419352D01*
X120097161Y-89438339D01*
X120086055Y-89449045D01*
X120065717Y-89453088D01*
X119932043Y-89453088D01*
X119908358Y-89456425D01*
X119884475Y-89466812D01*
X119859689Y-89485515D01*
X119845100Y-89503605D01*
X119836197Y-89525435D01*
X119833057Y-89552114D01*
X119833057Y-89891339D01*
X119836209Y-89918085D01*
X119845442Y-89941817D01*
X119860998Y-89963296D01*
X119881997Y-89981377D01*
X119902045Y-89991238D01*
X119921842Y-89994373D01*
X120071035Y-89994373D01*
X120089158Y-89998153D01*
X120099253Y-90008336D01*
X120103025Y-90026760D01*
X120099311Y-90043990D01*
X120089180Y-90053720D01*
X120070598Y-90057400D01*
X119919183Y-90057400D01*
X119890230Y-90053998D01*
X119861885Y-90043637D01*
X119833505Y-90025553D01*
X119804639Y-89998342D01*
X119784725Y-89969534D01*
X119772501Y-89935529D01*
X119768204Y-89894911D01*
X119768204Y-89547232D01*
X119771450Y-89515151D01*
X119781041Y-89485540D01*
X119797176Y-89457750D01*
X119820595Y-89431338D01*
X119845972Y-89411273D01*
X119872793Y-89397283D01*
X119901458Y-89388900D01*
X119932519Y-89386053D01*
G37*
G36*
X120487060Y-89388275D02*
G01*
X120508875Y-89392205D01*
X120520321Y-89402253D01*
X120524368Y-89419352D01*
X120515041Y-89471306D01*
X120392043Y-90027673D01*
X120385056Y-90045961D01*
X120375030Y-90055546D01*
X120361403Y-90058750D01*
X120341511Y-90055088D01*
X120330984Y-90045656D01*
X120327231Y-90029459D01*
X120328580Y-90016996D01*
X120453761Y-89453525D01*
X120254837Y-89453525D01*
X120254837Y-89486824D01*
X120251079Y-89504659D01*
X120240916Y-89514635D01*
X120222450Y-89518377D01*
X120205260Y-89514635D01*
X120195511Y-89504387D01*
X120191810Y-89485515D01*
X120191810Y-89418003D01*
X120195671Y-89401633D01*
X120206576Y-89392027D01*
X120227332Y-89388275D01*
X120487060Y-89388275D01*
G37*
G36*
X112565567Y-93831053D02*
G01*
X112701424Y-93831053D01*
X112720039Y-93834937D01*
X112730410Y-93845407D01*
X112734287Y-93864352D01*
X112730209Y-93883339D01*
X112719103Y-93894045D01*
X112698765Y-93898088D01*
X112565091Y-93898088D01*
X112541406Y-93901425D01*
X112517523Y-93911812D01*
X112492737Y-93930515D01*
X112478148Y-93948605D01*
X112469245Y-93970435D01*
X112466105Y-93997114D01*
X112466105Y-94336339D01*
X112469257Y-94363085D01*
X112478490Y-94386817D01*
X112494046Y-94408296D01*
X112515045Y-94426377D01*
X112535093Y-94436238D01*
X112554890Y-94439373D01*
X112704083Y-94439373D01*
X112722206Y-94443153D01*
X112732301Y-94453336D01*
X112736073Y-94471760D01*
X112732359Y-94488990D01*
X112722228Y-94498720D01*
X112703646Y-94502400D01*
X112552231Y-94502400D01*
X112523278Y-94498998D01*
X112494933Y-94488637D01*
X112466553Y-94470553D01*
X112437687Y-94443342D01*
X112417773Y-94414534D01*
X112405549Y-94380529D01*
X112401252Y-94339911D01*
X112401252Y-93992232D01*
X112404498Y-93960151D01*
X112414089Y-93930540D01*
X112430224Y-93902750D01*
X112453643Y-93876338D01*
X112479020Y-93856273D01*
X112505841Y-93842283D01*
X112534506Y-93833900D01*
X112565567Y-93831053D01*
G37*
G36*
X112867921Y-93831053D02*
G01*
X113006914Y-93831053D01*
X113035751Y-93834172D01*
X113063055Y-93843510D01*
X113089414Y-93859471D01*
X113115226Y-93883006D01*
X113134849Y-93908307D01*
X113148578Y-93935167D01*
X113156830Y-93963991D01*
X113159639Y-93995327D01*
X113155384Y-94033941D01*
X113142808Y-94069288D01*
X113121540Y-94102270D01*
X113090381Y-94133447D01*
X113121027Y-94160498D01*
X113141670Y-94189168D01*
X113153770Y-94219950D01*
X113157853Y-94253746D01*
X113157853Y-94351461D01*
X113154946Y-94378817D01*
X113146160Y-94405375D01*
X113131024Y-94431652D01*
X113108598Y-94458027D01*
X113085554Y-94476805D01*
X113059370Y-94490281D01*
X113029438Y-94498615D01*
X112994927Y-94501527D01*
X112862603Y-94501527D01*
X112840686Y-94497445D01*
X112829032Y-94486886D01*
X112824858Y-94468664D01*
X112828981Y-94452635D01*
X112841043Y-94442868D01*
X112864825Y-94438937D01*
X112982028Y-94438937D01*
X113016515Y-94435104D01*
X113044284Y-94424343D01*
X113066845Y-94406947D01*
X113082621Y-94385569D01*
X113092292Y-94360056D01*
X113095699Y-94329235D01*
X113095699Y-94271526D01*
X113092543Y-94242398D01*
X113083602Y-94218345D01*
X113069067Y-94198260D01*
X113045845Y-94178535D01*
X113023008Y-94167610D01*
X112999809Y-94164087D01*
X112932297Y-94164087D01*
X112911044Y-94160011D01*
X112899607Y-94149359D01*
X112895466Y-94130748D01*
X112899406Y-94114796D01*
X112910743Y-94105248D01*
X112932734Y-94101457D01*
X112992705Y-94101457D01*
X113019263Y-94098081D01*
X113042818Y-94088150D01*
X113064186Y-94071253D01*
X113081997Y-94048457D01*
X113092271Y-94024436D01*
X113095699Y-93998463D01*
X113092710Y-93971663D01*
X113084227Y-93949502D01*
X113070377Y-93930951D01*
X113045716Y-93910553D01*
X113022299Y-93899407D01*
X112999333Y-93895866D01*
X112867921Y-93895866D01*
X112848388Y-93893362D01*
X112836249Y-93886944D01*
X112829196Y-93877067D01*
X112826644Y-93862566D01*
X112829129Y-93848999D01*
X112836071Y-93839644D01*
X112848194Y-93833479D01*
X112867921Y-93831053D01*
G37*
G36*
X109695832Y-98437702D02*
G01*
X109699646Y-98417678D01*
X109709589Y-98406934D01*
X109726909Y-98403053D01*
X109746002Y-98407074D01*
X109756680Y-98417948D01*
X109760685Y-98437702D01*
X109760685Y-98867935D01*
X109763954Y-98902964D01*
X109773182Y-98932129D01*
X109787982Y-98956599D01*
X109808630Y-98977161D01*
X109838027Y-98995910D01*
X109866820Y-99006558D01*
X109895669Y-99010024D01*
X109930907Y-99005250D01*
X109964022Y-98990832D01*
X109996004Y-98965611D01*
X110015689Y-98939516D01*
X110027985Y-98906852D01*
X110032399Y-98865713D01*
X110032399Y-98437702D01*
X110036371Y-98417902D01*
X110046920Y-98407050D01*
X110065699Y-98403053D01*
X110079903Y-98405501D01*
X110089516Y-98412230D01*
X110095717Y-98423722D01*
X110098125Y-98442107D01*
X110098125Y-98863054D01*
X110094177Y-98909675D01*
X110082957Y-98949453D01*
X110064934Y-98983643D01*
X110039940Y-99013159D01*
X110006528Y-99040037D01*
X109971567Y-99058668D01*
X109934545Y-99069772D01*
X109894756Y-99073527D01*
X109858988Y-99070507D01*
X109825647Y-99061599D01*
X109794195Y-99046758D01*
X109764217Y-99025582D01*
X109734041Y-98994562D01*
X109712976Y-98960196D01*
X109700228Y-98921769D01*
X109695832Y-98878175D01*
X109695832Y-98437702D01*
G37*
G36*
X110243587Y-98569987D02*
G01*
X110223590Y-98566175D01*
X110212856Y-98556234D01*
X110208977Y-98538910D01*
X110210664Y-98528615D01*
X110216955Y-98513151D01*
X110237865Y-98478061D01*
X110259320Y-98452439D01*
X110281331Y-98434566D01*
X110312534Y-98418101D01*
X110344186Y-98408473D01*
X110376824Y-98405275D01*
X110417610Y-98409491D01*
X110452509Y-98421581D01*
X110482766Y-98441387D01*
X110509149Y-98469652D01*
X110528885Y-98502387D01*
X110540375Y-98535904D01*
X110544195Y-98570900D01*
X110541095Y-98601809D01*
X110531561Y-98633301D01*
X110514904Y-98665916D01*
X110299549Y-99013596D01*
X110510022Y-99013596D01*
X110528926Y-99017502D01*
X110539415Y-99027991D01*
X110543322Y-99046895D01*
X110539459Y-99062633D01*
X110528373Y-99072028D01*
X110506926Y-99075750D01*
X110248945Y-99075750D01*
X110225301Y-99071942D01*
X110213430Y-99062560D01*
X110209414Y-99047332D01*
X110210898Y-99035513D01*
X110215169Y-99025582D01*
X110454060Y-98640594D01*
X110468480Y-98613397D01*
X110476171Y-98590464D01*
X110478509Y-98570900D01*
X110475750Y-98546350D01*
X110467659Y-98524363D01*
X110454060Y-98504301D01*
X110432211Y-98485173D01*
X110406162Y-98473672D01*
X110374602Y-98469652D01*
X110346327Y-98473849D01*
X110320787Y-98486424D01*
X110297019Y-98508484D01*
X110274703Y-98542482D01*
X110263373Y-98559321D01*
X110253195Y-98567559D01*
X110243587Y-98569987D01*
G37*
G36*
X117639216Y-102467053D02*
G01*
X117775073Y-102467053D01*
X117793688Y-102470937D01*
X117804059Y-102481407D01*
X117807936Y-102500352D01*
X117803858Y-102519339D01*
X117792752Y-102530045D01*
X117772414Y-102534088D01*
X117638740Y-102534088D01*
X117615055Y-102537425D01*
X117591172Y-102547812D01*
X117566386Y-102566515D01*
X117551797Y-102584605D01*
X117542894Y-102606435D01*
X117539754Y-102633114D01*
X117539754Y-102972339D01*
X117542906Y-102999085D01*
X117552139Y-103022817D01*
X117567695Y-103044296D01*
X117588694Y-103062377D01*
X117608742Y-103072238D01*
X117628539Y-103075373D01*
X117777732Y-103075373D01*
X117795855Y-103079153D01*
X117805950Y-103089336D01*
X117809722Y-103107760D01*
X117806008Y-103124990D01*
X117795877Y-103134720D01*
X117777295Y-103138400D01*
X117625880Y-103138400D01*
X117596927Y-103134998D01*
X117568582Y-103124637D01*
X117540202Y-103106553D01*
X117511336Y-103079342D01*
X117491422Y-103050534D01*
X117479198Y-103016529D01*
X117474901Y-102975911D01*
X117474901Y-102628232D01*
X117478147Y-102596151D01*
X117487738Y-102566540D01*
X117503873Y-102538750D01*
X117527292Y-102512338D01*
X117552669Y-102492273D01*
X117579490Y-102478283D01*
X117608155Y-102469900D01*
X117639216Y-102467053D01*
G37*
G36*
X118163733Y-102473202D02*
G01*
X118173924Y-102483981D01*
X118177802Y-102503885D01*
X118175033Y-102515687D01*
X118166429Y-102525608D01*
X118149821Y-102534088D01*
X118109347Y-102551009D01*
X118076882Y-102570323D01*
X118051232Y-102591836D01*
X118023684Y-102624029D01*
X118002873Y-102659002D01*
X117988390Y-102697199D01*
X117980188Y-102739243D01*
X118078340Y-102739243D01*
X118114462Y-102742790D01*
X118146712Y-102753118D01*
X118175922Y-102770226D01*
X118202647Y-102794729D01*
X118227511Y-102828883D01*
X118241589Y-102862922D01*
X118246187Y-102897763D01*
X118246187Y-102987461D01*
X118243045Y-103014510D01*
X118233382Y-103041653D01*
X118216380Y-103069488D01*
X118190661Y-103098472D01*
X118168258Y-103115859D01*
X118141378Y-103128688D01*
X118109121Y-103136839D01*
X118070323Y-103139750D01*
X118040068Y-103136838D01*
X118011818Y-103128211D01*
X117985029Y-103113692D01*
X117959311Y-103092678D01*
X117937954Y-103067994D01*
X117923329Y-103042510D01*
X117914701Y-103015846D01*
X117911803Y-102987461D01*
X117911803Y-102980793D01*
X117975306Y-102980793D01*
X117979103Y-103004747D01*
X117990970Y-103028590D01*
X118012614Y-103053147D01*
X118031319Y-103066287D01*
X118053358Y-103074335D01*
X118079650Y-103077159D01*
X118099524Y-103074245D01*
X118123380Y-103064459D01*
X118152480Y-103045606D01*
X118168418Y-103028847D01*
X118178238Y-103007175D01*
X118181771Y-102979007D01*
X118181771Y-102911535D01*
X118178392Y-102883394D01*
X118168450Y-102858188D01*
X118151607Y-102835133D01*
X118130675Y-102817840D01*
X118106863Y-102807583D01*
X118079213Y-102804056D01*
X117975306Y-102804056D01*
X117975306Y-102980793D01*
X117911803Y-102980793D01*
X117911803Y-102755675D01*
X117916429Y-102706880D01*
X117930407Y-102659048D01*
X117954362Y-102611428D01*
X117989515Y-102563419D01*
X118023783Y-102529777D01*
X118065465Y-102500759D01*
X118115608Y-102476380D01*
X118132912Y-102470854D01*
X118145812Y-102469275D01*
X118163733Y-102473202D01*
G37*
D13*
G36*
X112369629Y-96802123D02*
G01*
X112406805Y-96809546D01*
X112442311Y-96821837D01*
X112468189Y-96836433D01*
X112491584Y-96857367D01*
X112512739Y-96885617D01*
X112531573Y-96922608D01*
X112759351Y-96806715D01*
X112772715Y-96801482D01*
X112782013Y-96800047D01*
X112801249Y-96803945D01*
X112811835Y-96814336D01*
X112815750Y-96832910D01*
X112813364Y-96843094D01*
X112805635Y-96852868D01*
X112790428Y-96862677D01*
X112547568Y-96986985D01*
X112547568Y-97137527D01*
X112780664Y-97137527D01*
X112800842Y-97141457D01*
X112811769Y-97151788D01*
X112815750Y-97169953D01*
X112811789Y-97187484D01*
X112800792Y-97197582D01*
X112780227Y-97201467D01*
X112182107Y-97201467D01*
X112162752Y-97197426D01*
X112151967Y-97186533D01*
X112147935Y-97166818D01*
X112147935Y-96991430D01*
X112211438Y-96991430D01*
X112211438Y-97136177D01*
X112482279Y-97136177D01*
X112482279Y-96990993D01*
X112477879Y-96961759D01*
X112463941Y-96931317D01*
X112438342Y-96898636D01*
X112413383Y-96879190D01*
X112381903Y-96867044D01*
X112341976Y-96862677D01*
X112312083Y-96866803D01*
X112283204Y-96879414D01*
X112254501Y-96901732D01*
X112229768Y-96931306D01*
X112215937Y-96960892D01*
X112211438Y-96991430D01*
X112147935Y-96991430D01*
X112152244Y-96952771D01*
X112165223Y-96915738D01*
X112187573Y-96879527D01*
X112220765Y-96843587D01*
X112254752Y-96818882D01*
X112290959Y-96804459D01*
X112330427Y-96799611D01*
X112369629Y-96802123D01*
G37*
G36*
X112682552Y-96476102D02*
G01*
X112174566Y-96305159D01*
X112157272Y-96296519D01*
X112148224Y-96286037D01*
X112145275Y-96273209D01*
X112149007Y-96254380D01*
X112158875Y-96244112D01*
X112176352Y-96240347D01*
X112196792Y-96244316D01*
X112785546Y-96440143D01*
X112803120Y-96448986D01*
X112812577Y-96460450D01*
X112815750Y-96475229D01*
X112812856Y-96487529D01*
X112803854Y-96497881D01*
X112786459Y-96506742D01*
X112190561Y-96707888D01*
X112175916Y-96710548D01*
X112160075Y-96706763D01*
X112150729Y-96696019D01*
X112147061Y-96675462D01*
X112150009Y-96663860D01*
X112159422Y-96653771D01*
X112178138Y-96644822D01*
X112682552Y-96476102D01*
G37*
G36*
X112309987Y-96117111D02*
G01*
X112306175Y-96137108D01*
X112296234Y-96147842D01*
X112278910Y-96151720D01*
X112268615Y-96150034D01*
X112253151Y-96143742D01*
X112218061Y-96122832D01*
X112192439Y-96101377D01*
X112174566Y-96079366D01*
X112158101Y-96048164D01*
X112148473Y-96016511D01*
X112145275Y-95983873D01*
X112149491Y-95943088D01*
X112161581Y-95908188D01*
X112181387Y-95877931D01*
X112209652Y-95851549D01*
X112242387Y-95831813D01*
X112275904Y-95820322D01*
X112310900Y-95816503D01*
X112341809Y-95819602D01*
X112373301Y-95829136D01*
X112405916Y-95845794D01*
X112753596Y-96061149D01*
X112753596Y-95850675D01*
X112757502Y-95831771D01*
X112767991Y-95821282D01*
X112786895Y-95817376D01*
X112802633Y-95821239D01*
X112812028Y-95832325D01*
X112815750Y-95853771D01*
X112815750Y-96111753D01*
X112811942Y-96135397D01*
X112802560Y-96147267D01*
X112787332Y-96151283D01*
X112775513Y-96149799D01*
X112765582Y-96145528D01*
X112380594Y-95906638D01*
X112353397Y-95892217D01*
X112330464Y-95884526D01*
X112310900Y-95882189D01*
X112286350Y-95884948D01*
X112264363Y-95893038D01*
X112244301Y-95906638D01*
X112225173Y-95928487D01*
X112213672Y-95954536D01*
X112209652Y-95986096D01*
X112213849Y-96014371D01*
X112226424Y-96039910D01*
X112248484Y-96063678D01*
X112282482Y-96085994D01*
X112299321Y-96097324D01*
X112307559Y-96107502D01*
X112309987Y-96117111D01*
G37*
D12*
G36*
X112617244Y-89467244D02*
G01*
X112654277Y-89480223D01*
X112690488Y-89502573D01*
X112726428Y-89535765D01*
X112751133Y-89569752D01*
X112765556Y-89605959D01*
X112770404Y-89645427D01*
X112767892Y-89684629D01*
X112760469Y-89721805D01*
X112748178Y-89757311D01*
X112733582Y-89783189D01*
X112712648Y-89806584D01*
X112684398Y-89827739D01*
X112647407Y-89846573D01*
X112763300Y-90074351D01*
X112768533Y-90087715D01*
X112769968Y-90097013D01*
X112766070Y-90116249D01*
X112755679Y-90126835D01*
X112737105Y-90130750D01*
X112726921Y-90128364D01*
X112717147Y-90120635D01*
X112707338Y-90105428D01*
X112583030Y-89862568D01*
X112432488Y-89862568D01*
X112432488Y-90095664D01*
X112428558Y-90115842D01*
X112418227Y-90126769D01*
X112400062Y-90130750D01*
X112382531Y-90126789D01*
X112372433Y-90115792D01*
X112368548Y-90095227D01*
X112368548Y-89797279D01*
X112433838Y-89797279D01*
X112579022Y-89797279D01*
X112608256Y-89792879D01*
X112638698Y-89778941D01*
X112671379Y-89753342D01*
X112690825Y-89728383D01*
X112702971Y-89696903D01*
X112707338Y-89656976D01*
X112703212Y-89627083D01*
X112690601Y-89598204D01*
X112668283Y-89569501D01*
X112638709Y-89544768D01*
X112609123Y-89530937D01*
X112578585Y-89526438D01*
X112433838Y-89526438D01*
X112433838Y-89797279D01*
X112368548Y-89797279D01*
X112368548Y-89497107D01*
X112372589Y-89477752D01*
X112383482Y-89466967D01*
X112403197Y-89462935D01*
X112578585Y-89462935D01*
X112617244Y-89467244D01*
G37*
G36*
X113154717Y-89460275D02*
G01*
X113176533Y-89464205D01*
X113187979Y-89474253D01*
X113192025Y-89491352D01*
X113182698Y-89543306D01*
X113059701Y-90099673D01*
X113052714Y-90117961D01*
X113042687Y-90127546D01*
X113029060Y-90130750D01*
X113009168Y-90127088D01*
X112998641Y-90117656D01*
X112994888Y-90101459D01*
X112996237Y-90088996D01*
X113121418Y-89525525D01*
X112922494Y-89525525D01*
X112922494Y-89558824D01*
X112918737Y-89576659D01*
X112908573Y-89586635D01*
X112890108Y-89590377D01*
X112872917Y-89586635D01*
X112863168Y-89576387D01*
X112859467Y-89557515D01*
X112859467Y-89490003D01*
X112863328Y-89473633D01*
X112874234Y-89464027D01*
X112894989Y-89460275D01*
X113154717Y-89460275D01*
G37*
G36*
X118071482Y-94246702D02*
G01*
X118075296Y-94226678D01*
X118085239Y-94215934D01*
X118102559Y-94212053D01*
X118121652Y-94216074D01*
X118132330Y-94226948D01*
X118136335Y-94246702D01*
X118136335Y-94676935D01*
X118139604Y-94711964D01*
X118148832Y-94741129D01*
X118163632Y-94765599D01*
X118184280Y-94786161D01*
X118213677Y-94804910D01*
X118242470Y-94815558D01*
X118271319Y-94819024D01*
X118306557Y-94814250D01*
X118339672Y-94799832D01*
X118371654Y-94774611D01*
X118391339Y-94748516D01*
X118403635Y-94715852D01*
X118408049Y-94674713D01*
X118408049Y-94246702D01*
X118412021Y-94226902D01*
X118422570Y-94216050D01*
X118441349Y-94212053D01*
X118455553Y-94214501D01*
X118465166Y-94221230D01*
X118471367Y-94232722D01*
X118473775Y-94251107D01*
X118473775Y-94672054D01*
X118469827Y-94718675D01*
X118458607Y-94758453D01*
X118440584Y-94792643D01*
X118415590Y-94822159D01*
X118382178Y-94849037D01*
X118347217Y-94867668D01*
X118310195Y-94878772D01*
X118270406Y-94882527D01*
X118234638Y-94879507D01*
X118201297Y-94870599D01*
X118169845Y-94855758D01*
X118139867Y-94834582D01*
X118109691Y-94803562D01*
X118088626Y-94769196D01*
X118075878Y-94730769D01*
X118071482Y-94687175D01*
X118071482Y-94246702D01*
G37*
G36*
X118627691Y-94212053D02*
G01*
X118766683Y-94212053D01*
X118795520Y-94215172D01*
X118822824Y-94224510D01*
X118849183Y-94240471D01*
X118874996Y-94264006D01*
X118894619Y-94289307D01*
X118908348Y-94316167D01*
X118916600Y-94344991D01*
X118919408Y-94376327D01*
X118915153Y-94414941D01*
X118902577Y-94450288D01*
X118881310Y-94483270D01*
X118850150Y-94514447D01*
X118880797Y-94541498D01*
X118901439Y-94570168D01*
X118913539Y-94600950D01*
X118917622Y-94634746D01*
X118917622Y-94732461D01*
X118914715Y-94759817D01*
X118905930Y-94786375D01*
X118890794Y-94812652D01*
X118868367Y-94839027D01*
X118845324Y-94857805D01*
X118819140Y-94871281D01*
X118789208Y-94879615D01*
X118754697Y-94882527D01*
X118622372Y-94882527D01*
X118600455Y-94878445D01*
X118588801Y-94867886D01*
X118584627Y-94849664D01*
X118588751Y-94833635D01*
X118600812Y-94823868D01*
X118624595Y-94819937D01*
X118741798Y-94819937D01*
X118776285Y-94816104D01*
X118804053Y-94805343D01*
X118826614Y-94787947D01*
X118842390Y-94766569D01*
X118852062Y-94741056D01*
X118855468Y-94710235D01*
X118855468Y-94652526D01*
X118852312Y-94623398D01*
X118843372Y-94599345D01*
X118828837Y-94579260D01*
X118805614Y-94559535D01*
X118782777Y-94548610D01*
X118759579Y-94545087D01*
X118692067Y-94545087D01*
X118670813Y-94541011D01*
X118659377Y-94530359D01*
X118655235Y-94511748D01*
X118659175Y-94495796D01*
X118670513Y-94486248D01*
X118692503Y-94482457D01*
X118752474Y-94482457D01*
X118779032Y-94479081D01*
X118802587Y-94469150D01*
X118823955Y-94452253D01*
X118841767Y-94429457D01*
X118852040Y-94405436D01*
X118855468Y-94379463D01*
X118852480Y-94352663D01*
X118843996Y-94330502D01*
X118830146Y-94311951D01*
X118805485Y-94291553D01*
X118782069Y-94280407D01*
X118759102Y-94276866D01*
X118627691Y-94276866D01*
X118608157Y-94274362D01*
X118596019Y-94267944D01*
X118588966Y-94258067D01*
X118586414Y-94243566D01*
X118588898Y-94229999D01*
X118595840Y-94220644D01*
X118607964Y-94214479D01*
X118627691Y-94212053D01*
G37*
G36*
X102420405Y-100698244D02*
G01*
X102457438Y-100711223D01*
X102493649Y-100733573D01*
X102529589Y-100766765D01*
X102554294Y-100800752D01*
X102568717Y-100836959D01*
X102573565Y-100876427D01*
X102571053Y-100915629D01*
X102563630Y-100952805D01*
X102551339Y-100988311D01*
X102536743Y-101014189D01*
X102515809Y-101037584D01*
X102487559Y-101058739D01*
X102450568Y-101077573D01*
X102566461Y-101305351D01*
X102571694Y-101318715D01*
X102573129Y-101328013D01*
X102569231Y-101347249D01*
X102558840Y-101357835D01*
X102540266Y-101361750D01*
X102530082Y-101359364D01*
X102520308Y-101351635D01*
X102510499Y-101336428D01*
X102386191Y-101093568D01*
X102235649Y-101093568D01*
X102235649Y-101326664D01*
X102231719Y-101346842D01*
X102221388Y-101357769D01*
X102203223Y-101361750D01*
X102185692Y-101357789D01*
X102175594Y-101346792D01*
X102171709Y-101326227D01*
X102171709Y-101028279D01*
X102236999Y-101028279D01*
X102382183Y-101028279D01*
X102411417Y-101023879D01*
X102441859Y-101009941D01*
X102474540Y-100984342D01*
X102493986Y-100959383D01*
X102506132Y-100927903D01*
X102510499Y-100887976D01*
X102506373Y-100858083D01*
X102493762Y-100829204D01*
X102471444Y-100800501D01*
X102441870Y-100775768D01*
X102412284Y-100761937D01*
X102381746Y-100757438D01*
X102236999Y-100757438D01*
X102236999Y-101028279D01*
X102171709Y-101028279D01*
X102171709Y-100728107D01*
X102175750Y-100708752D01*
X102186643Y-100697967D01*
X102206358Y-100693935D01*
X102381746Y-100693935D01*
X102420405Y-100698244D01*
G37*
G36*
X102775386Y-100705484D02*
G01*
X102791315Y-100694615D01*
X102806939Y-100691275D01*
X102825524Y-100695415D01*
X102836166Y-100706850D01*
X102840239Y-100728107D01*
X102840239Y-101321782D01*
X102836222Y-101343793D01*
X102825904Y-101355402D01*
X102808249Y-101359527D01*
X102793747Y-101357092D01*
X102784011Y-101350446D01*
X102777789Y-101339201D01*
X102775386Y-101321346D01*
X102775386Y-100797842D01*
X102698150Y-100875077D01*
X102685611Y-100884368D01*
X102674178Y-100887103D01*
X102654604Y-100883424D01*
X102644157Y-100873877D01*
X102640402Y-100857336D01*
X102643469Y-100843147D01*
X102653301Y-100829355D01*
X102775386Y-100705484D01*
G37*
G36*
X102986455Y-100725011D02*
G01*
X102988936Y-100710083D01*
X102995692Y-100700091D01*
X103007080Y-100693727D01*
X103025112Y-100691275D01*
X103286190Y-100691275D01*
X103307611Y-100695254D01*
X103318990Y-100705538D01*
X103323061Y-100723265D01*
X103319105Y-100741119D01*
X103308202Y-100751319D01*
X103287976Y-100755215D01*
X103051744Y-100755215D01*
X103051744Y-100960807D01*
X103150332Y-100960807D01*
X103191852Y-100964967D01*
X103227945Y-100976958D01*
X103259744Y-100996656D01*
X103287976Y-101024746D01*
X103307061Y-101054741D01*
X103318601Y-101088439D01*
X103322585Y-101126867D01*
X103322585Y-101198348D01*
X103319407Y-101233040D01*
X103310255Y-101263402D01*
X103295304Y-101290273D01*
X103274203Y-101314241D01*
X103247130Y-101335599D01*
X103219575Y-101350244D01*
X103191167Y-101358867D01*
X103161406Y-101361750D01*
X103022890Y-101361750D01*
X103003159Y-101357956D01*
X102992530Y-101348031D01*
X102988677Y-101330673D01*
X102992749Y-101313291D01*
X103004218Y-101303122D01*
X103025985Y-101299159D01*
X103149420Y-101299159D01*
X103184864Y-101294623D01*
X103212829Y-101281870D01*
X103235109Y-101260938D01*
X103247384Y-101241016D01*
X103254789Y-101218878D01*
X103257335Y-101193903D01*
X103257335Y-101126867D01*
X103254379Y-101101220D01*
X103245717Y-101078367D01*
X103231140Y-101057609D01*
X103209423Y-101040075D01*
X103180313Y-101028869D01*
X103141442Y-101024746D01*
X103018881Y-101024746D01*
X103000943Y-101020597D01*
X102990504Y-101008965D01*
X102986455Y-100987002D01*
X102986455Y-100725011D01*
G37*
G36*
X102695368Y-89014244D02*
G01*
X102732401Y-89027223D01*
X102768612Y-89049573D01*
X102804552Y-89082765D01*
X102829257Y-89116752D01*
X102843680Y-89152959D01*
X102848528Y-89192427D01*
X102846016Y-89231629D01*
X102838593Y-89268805D01*
X102826302Y-89304311D01*
X102811706Y-89330189D01*
X102790772Y-89353584D01*
X102762522Y-89374739D01*
X102725531Y-89393573D01*
X102841424Y-89621351D01*
X102846657Y-89634715D01*
X102848092Y-89644013D01*
X102844194Y-89663249D01*
X102833803Y-89673835D01*
X102815229Y-89677750D01*
X102805045Y-89675364D01*
X102795271Y-89667635D01*
X102785462Y-89652428D01*
X102661154Y-89409568D01*
X102510612Y-89409568D01*
X102510612Y-89642664D01*
X102506682Y-89662842D01*
X102496351Y-89673769D01*
X102478186Y-89677750D01*
X102460655Y-89673789D01*
X102450557Y-89662792D01*
X102446672Y-89642227D01*
X102446672Y-89344279D01*
X102511962Y-89344279D01*
X102657146Y-89344279D01*
X102686380Y-89339879D01*
X102716822Y-89325941D01*
X102749503Y-89300342D01*
X102768949Y-89275383D01*
X102781095Y-89243903D01*
X102785462Y-89203976D01*
X102781336Y-89174083D01*
X102768725Y-89145204D01*
X102746407Y-89116501D01*
X102716833Y-89091768D01*
X102687247Y-89077937D01*
X102656709Y-89073438D01*
X102511962Y-89073438D01*
X102511962Y-89344279D01*
X102446672Y-89344279D01*
X102446672Y-89044107D01*
X102450713Y-89024752D01*
X102461606Y-89013967D01*
X102481321Y-89009935D01*
X102656709Y-89009935D01*
X102695368Y-89014244D01*
G37*
G36*
X103071662Y-89029898D02*
G01*
X103078630Y-89015899D01*
X103089210Y-89007906D01*
X103104525Y-89005053D01*
X103121920Y-89008647D01*
X103131571Y-89018299D01*
X103135166Y-89035693D01*
X103132070Y-89053434D01*
X103010858Y-89476167D01*
X103172910Y-89476167D01*
X103172910Y-89379364D01*
X103176941Y-89357695D01*
X103187362Y-89346178D01*
X103205336Y-89342056D01*
X103218995Y-89344500D01*
X103228346Y-89351284D01*
X103234457Y-89363032D01*
X103236850Y-89382023D01*
X103236850Y-89476603D01*
X103305235Y-89476603D01*
X103323400Y-89480584D01*
X103333731Y-89491511D01*
X103337661Y-89511689D01*
X103333981Y-89527352D01*
X103323604Y-89536528D01*
X103303885Y-89540106D01*
X103236850Y-89540106D01*
X103236850Y-89640441D01*
X103232848Y-89661159D01*
X103222362Y-89672340D01*
X103203987Y-89676400D01*
X103186663Y-89672522D01*
X103176722Y-89661788D01*
X103172910Y-89641791D01*
X103172910Y-89541416D01*
X102969105Y-89541416D01*
X102951042Y-89537843D01*
X102941198Y-89528400D01*
X102937591Y-89511689D01*
X102943783Y-89479699D01*
X103071662Y-89029898D01*
G37*
G36*
X102433741Y-94094244D02*
G01*
X102470774Y-94107223D01*
X102506985Y-94129573D01*
X102542925Y-94162765D01*
X102567630Y-94196752D01*
X102582053Y-94232959D01*
X102586901Y-94272427D01*
X102584389Y-94311629D01*
X102576966Y-94348805D01*
X102564675Y-94384311D01*
X102550079Y-94410189D01*
X102529145Y-94433584D01*
X102500895Y-94454739D01*
X102463904Y-94473573D01*
X102579797Y-94701351D01*
X102585030Y-94714715D01*
X102586465Y-94724013D01*
X102582567Y-94743249D01*
X102572176Y-94753835D01*
X102553602Y-94757750D01*
X102543418Y-94755364D01*
X102533644Y-94747635D01*
X102523835Y-94732428D01*
X102399527Y-94489568D01*
X102248985Y-94489568D01*
X102248985Y-94722664D01*
X102245055Y-94742842D01*
X102234724Y-94753769D01*
X102216559Y-94757750D01*
X102199028Y-94753789D01*
X102188930Y-94742792D01*
X102185045Y-94722227D01*
X102185045Y-94424279D01*
X102250335Y-94424279D01*
X102395519Y-94424279D01*
X102424753Y-94419879D01*
X102455195Y-94405941D01*
X102487876Y-94380342D01*
X102507322Y-94355383D01*
X102519468Y-94323903D01*
X102523835Y-94283976D01*
X102519709Y-94254083D01*
X102507098Y-94225204D01*
X102484780Y-94196501D01*
X102455206Y-94171768D01*
X102425620Y-94157937D01*
X102395082Y-94153438D01*
X102250335Y-94153438D01*
X102250335Y-94424279D01*
X102185045Y-94424279D01*
X102185045Y-94124107D01*
X102189086Y-94104752D01*
X102199979Y-94093967D01*
X102219694Y-94089935D01*
X102395082Y-94089935D01*
X102433741Y-94094244D01*
G37*
G36*
X102788722Y-94101484D02*
G01*
X102804651Y-94090615D01*
X102820275Y-94087275D01*
X102838860Y-94091415D01*
X102849502Y-94102850D01*
X102853575Y-94124107D01*
X102853575Y-94717782D01*
X102849558Y-94739793D01*
X102839240Y-94751402D01*
X102821585Y-94755527D01*
X102807083Y-94753092D01*
X102797347Y-94746446D01*
X102791125Y-94735201D01*
X102788722Y-94717346D01*
X102788722Y-94193842D01*
X102711486Y-94271077D01*
X102698947Y-94280368D01*
X102687514Y-94283103D01*
X102667940Y-94279424D01*
X102657493Y-94269877D01*
X102653738Y-94253336D01*
X102656805Y-94239147D01*
X102666637Y-94225355D01*
X102788722Y-94101484D01*
G37*
G36*
X103185475Y-94090389D02*
G01*
X103210136Y-94099256D01*
X103231085Y-94113719D01*
X103248921Y-94134347D01*
X103270008Y-94170808D01*
X103288731Y-94215911D01*
X103304679Y-94271137D01*
X103317267Y-94338153D01*
X103321608Y-94377819D01*
X103323061Y-94418087D01*
X103321503Y-94460597D01*
X103316830Y-94502864D01*
X103304425Y-94569460D01*
X103288929Y-94624702D01*
X103270880Y-94670136D01*
X103250668Y-94707145D01*
X103232427Y-94729382D01*
X103210863Y-94744907D01*
X103185348Y-94754411D01*
X103154778Y-94757750D01*
X103124794Y-94754355D01*
X103099423Y-94744620D01*
X103077629Y-94728566D01*
X103058849Y-94705359D01*
X103035936Y-94660748D01*
X103013865Y-94595894D01*
X102993599Y-94505086D01*
X102988283Y-94465281D01*
X102986495Y-94424279D01*
X102986746Y-94418524D01*
X103052220Y-94418524D01*
X103056189Y-94480241D01*
X103067434Y-94546726D01*
X103082262Y-94603140D01*
X103100165Y-94650747D01*
X103115463Y-94675432D01*
X103132931Y-94688625D01*
X103153429Y-94692937D01*
X103173450Y-94688993D01*
X103190940Y-94676949D01*
X103206732Y-94654716D01*
X103223344Y-94616109D01*
X103238215Y-94565322D01*
X103250668Y-94499768D01*
X103255371Y-94457862D01*
X103256899Y-94418087D01*
X103255320Y-94378963D01*
X103250668Y-94341685D01*
X103237295Y-94280022D01*
X103219730Y-94225365D01*
X103198278Y-94176974D01*
X103187450Y-94162678D01*
X103173046Y-94154221D01*
X103153865Y-94151215D01*
X103135390Y-94154260D01*
X103121249Y-94162936D01*
X103110366Y-94177847D01*
X103089831Y-94224373D01*
X103072881Y-94276414D01*
X103059761Y-94334580D01*
X103054112Y-94376150D01*
X103052220Y-94418524D01*
X102986746Y-94418524D01*
X102988369Y-94381235D01*
X102994036Y-94337716D01*
X103013532Y-94247252D01*
X103034265Y-94184085D01*
X103055316Y-94141888D01*
X103074436Y-94117829D01*
X103097079Y-94101091D01*
X103123900Y-94090866D01*
X103156088Y-94087275D01*
X103185475Y-94090389D01*
G37*
G36*
X107040752Y-90529053D02*
G01*
X107176609Y-90529053D01*
X107195224Y-90532937D01*
X107205595Y-90543407D01*
X107209472Y-90562352D01*
X107205394Y-90581339D01*
X107194288Y-90592045D01*
X107173950Y-90596088D01*
X107040276Y-90596088D01*
X107016591Y-90599425D01*
X106992708Y-90609812D01*
X106967922Y-90628515D01*
X106953333Y-90646605D01*
X106944430Y-90668435D01*
X106941290Y-90695114D01*
X106941290Y-91034339D01*
X106944442Y-91061085D01*
X106953675Y-91084817D01*
X106969231Y-91106296D01*
X106990230Y-91124377D01*
X107010278Y-91134238D01*
X107030075Y-91137373D01*
X107179268Y-91137373D01*
X107197391Y-91141153D01*
X107207486Y-91151336D01*
X107211258Y-91169760D01*
X107207544Y-91186990D01*
X107197413Y-91196720D01*
X107178831Y-91200400D01*
X107027416Y-91200400D01*
X106998463Y-91196998D01*
X106970118Y-91186637D01*
X106941738Y-91168553D01*
X106912872Y-91141342D01*
X106892958Y-91112534D01*
X106880734Y-91078529D01*
X106876437Y-91037911D01*
X106876437Y-90690232D01*
X106879683Y-90658151D01*
X106889274Y-90628540D01*
X106905409Y-90600750D01*
X106928828Y-90574338D01*
X106954205Y-90554273D01*
X106981026Y-90540283D01*
X107009691Y-90531900D01*
X107040752Y-90529053D01*
G37*
G36*
X107412801Y-90545484D02*
G01*
X107428729Y-90534615D01*
X107444354Y-90531275D01*
X107462939Y-90535415D01*
X107473580Y-90546850D01*
X107477653Y-90568107D01*
X107477653Y-91161782D01*
X107473636Y-91183793D01*
X107463319Y-91195402D01*
X107445664Y-91199527D01*
X107431162Y-91197092D01*
X107421426Y-91190446D01*
X107415203Y-91179201D01*
X107412801Y-91161346D01*
X107412801Y-90637842D01*
X107335565Y-90715077D01*
X107323026Y-90724368D01*
X107311593Y-90727103D01*
X107292019Y-90723424D01*
X107281572Y-90713877D01*
X107277817Y-90697336D01*
X107280884Y-90683147D01*
X107290716Y-90669355D01*
X107412801Y-90545484D01*
G37*
G36*
X109879668Y-90690702D02*
G01*
X109883482Y-90670678D01*
X109893425Y-90659934D01*
X109910745Y-90656053D01*
X109929838Y-90660074D01*
X109940516Y-90670948D01*
X109944521Y-90690702D01*
X109944521Y-91120935D01*
X109947790Y-91155964D01*
X109957018Y-91185129D01*
X109971818Y-91209599D01*
X109992466Y-91230161D01*
X110021863Y-91248910D01*
X110050656Y-91259558D01*
X110079505Y-91263024D01*
X110114743Y-91258250D01*
X110147858Y-91243832D01*
X110179840Y-91218611D01*
X110199525Y-91192516D01*
X110211821Y-91159852D01*
X110216235Y-91118713D01*
X110216235Y-90690702D01*
X110220207Y-90670902D01*
X110230756Y-90660050D01*
X110249535Y-90656053D01*
X110263739Y-90658501D01*
X110273352Y-90665230D01*
X110279553Y-90676722D01*
X110281961Y-90695107D01*
X110281961Y-91116054D01*
X110278013Y-91162675D01*
X110266793Y-91202453D01*
X110248770Y-91236643D01*
X110223776Y-91266159D01*
X110190364Y-91293037D01*
X110155403Y-91311668D01*
X110118381Y-91322772D01*
X110078592Y-91326527D01*
X110042824Y-91323507D01*
X110009483Y-91314599D01*
X109978031Y-91299758D01*
X109948053Y-91278582D01*
X109917877Y-91247562D01*
X109896812Y-91213196D01*
X109884064Y-91174769D01*
X109879668Y-91131175D01*
X109879668Y-90690702D01*
G37*
G36*
X110505571Y-90672484D02*
G01*
X110521500Y-90661615D01*
X110537124Y-90658275D01*
X110555709Y-90662415D01*
X110566351Y-90673850D01*
X110570424Y-90695107D01*
X110570424Y-91288782D01*
X110566407Y-91310793D01*
X110556089Y-91322402D01*
X110538434Y-91326527D01*
X110523932Y-91324092D01*
X110514196Y-91317446D01*
X110507974Y-91306201D01*
X110505571Y-91288346D01*
X110505571Y-90764842D01*
X110428336Y-90842077D01*
X110415796Y-90851368D01*
X110404363Y-90854103D01*
X110384789Y-90850424D01*
X110374342Y-90840877D01*
X110370587Y-90824336D01*
X110373654Y-90810147D01*
X110383486Y-90796355D01*
X110505571Y-90672484D01*
G37*
G36*
X102703941Y-96634244D02*
G01*
X102740974Y-96647223D01*
X102777185Y-96669573D01*
X102813125Y-96702765D01*
X102837830Y-96736752D01*
X102852253Y-96772959D01*
X102857101Y-96812427D01*
X102854589Y-96851629D01*
X102847166Y-96888805D01*
X102834875Y-96924311D01*
X102820279Y-96950189D01*
X102799345Y-96973584D01*
X102771095Y-96994739D01*
X102734104Y-97013573D01*
X102849997Y-97241351D01*
X102855230Y-97254715D01*
X102856665Y-97264013D01*
X102852767Y-97283249D01*
X102842376Y-97293835D01*
X102823802Y-97297750D01*
X102813618Y-97295364D01*
X102803844Y-97287635D01*
X102794035Y-97272428D01*
X102669727Y-97029568D01*
X102519185Y-97029568D01*
X102519185Y-97262664D01*
X102515255Y-97282842D01*
X102504924Y-97293769D01*
X102486759Y-97297750D01*
X102469228Y-97293789D01*
X102459130Y-97282792D01*
X102455245Y-97262227D01*
X102455245Y-96964279D01*
X102520535Y-96964279D01*
X102665719Y-96964279D01*
X102694953Y-96959879D01*
X102725395Y-96945941D01*
X102758076Y-96920342D01*
X102777522Y-96895383D01*
X102789668Y-96863903D01*
X102794035Y-96823976D01*
X102789909Y-96794083D01*
X102777298Y-96765204D01*
X102754980Y-96736501D01*
X102725406Y-96711768D01*
X102695820Y-96697937D01*
X102665282Y-96693438D01*
X102520535Y-96693438D01*
X102520535Y-96964279D01*
X102455245Y-96964279D01*
X102455245Y-96664107D01*
X102459286Y-96644752D01*
X102470179Y-96633967D01*
X102489894Y-96629935D01*
X102665282Y-96629935D01*
X102703941Y-96634244D01*
G37*
G36*
X103211391Y-96631202D02*
G01*
X103221582Y-96641981D01*
X103225459Y-96661885D01*
X103222691Y-96673687D01*
X103214086Y-96683608D01*
X103197478Y-96692088D01*
X103157004Y-96709009D01*
X103124540Y-96728323D01*
X103098889Y-96749836D01*
X103071341Y-96782029D01*
X103050531Y-96817002D01*
X103036048Y-96855199D01*
X103027845Y-96897243D01*
X103125997Y-96897243D01*
X103162120Y-96900790D01*
X103194370Y-96911118D01*
X103223579Y-96928226D01*
X103250305Y-96952729D01*
X103275168Y-96986883D01*
X103289246Y-97020922D01*
X103293844Y-97055763D01*
X103293844Y-97145461D01*
X103290702Y-97172510D01*
X103281039Y-97199653D01*
X103264038Y-97227488D01*
X103238319Y-97256472D01*
X103215916Y-97273859D01*
X103189036Y-97286688D01*
X103156778Y-97294839D01*
X103117980Y-97297750D01*
X103087725Y-97294838D01*
X103059476Y-97286211D01*
X103032687Y-97271692D01*
X103006969Y-97250678D01*
X102985611Y-97225994D01*
X102970986Y-97200510D01*
X102962358Y-97173846D01*
X102959460Y-97145461D01*
X102959460Y-97138793D01*
X103022963Y-97138793D01*
X103026761Y-97162747D01*
X103038627Y-97186590D01*
X103060272Y-97211147D01*
X103078976Y-97224287D01*
X103101015Y-97232335D01*
X103127307Y-97235159D01*
X103147181Y-97232245D01*
X103171037Y-97222459D01*
X103200137Y-97203606D01*
X103216076Y-97186847D01*
X103225895Y-97165175D01*
X103229428Y-97137007D01*
X103229428Y-97069535D01*
X103226050Y-97041394D01*
X103216107Y-97016188D01*
X103199264Y-96993133D01*
X103178333Y-96975840D01*
X103154520Y-96965583D01*
X103126871Y-96962056D01*
X103022963Y-96962056D01*
X103022963Y-97138793D01*
X102959460Y-97138793D01*
X102959460Y-96913675D01*
X102964086Y-96864880D01*
X102978065Y-96817048D01*
X103002020Y-96769428D01*
X103037172Y-96721419D01*
X103071440Y-96687777D01*
X103113122Y-96658759D01*
X103163266Y-96634380D01*
X103180569Y-96628854D01*
X103193469Y-96627275D01*
X103211391Y-96631202D01*
G37*
G36*
X102773477Y-92316244D02*
G01*
X102810510Y-92329223D01*
X102846721Y-92351573D01*
X102882661Y-92384765D01*
X102907366Y-92418752D01*
X102921789Y-92454959D01*
X102926637Y-92494427D01*
X102924125Y-92533629D01*
X102916702Y-92570805D01*
X102904411Y-92606311D01*
X102889815Y-92632189D01*
X102868881Y-92655584D01*
X102840631Y-92676739D01*
X102803640Y-92695573D01*
X102919533Y-92923351D01*
X102924766Y-92936715D01*
X102926201Y-92946013D01*
X102922303Y-92965249D01*
X102911912Y-92975835D01*
X102893338Y-92979750D01*
X102883154Y-92977364D01*
X102873380Y-92969635D01*
X102863571Y-92954428D01*
X102739263Y-92711568D01*
X102588721Y-92711568D01*
X102588721Y-92944664D01*
X102584791Y-92964842D01*
X102574460Y-92975769D01*
X102556295Y-92979750D01*
X102538764Y-92975789D01*
X102528666Y-92964792D01*
X102524781Y-92944227D01*
X102524781Y-92646279D01*
X102590071Y-92646279D01*
X102735255Y-92646279D01*
X102764489Y-92641879D01*
X102794931Y-92627941D01*
X102827612Y-92602342D01*
X102847058Y-92577383D01*
X102859204Y-92545903D01*
X102863571Y-92505976D01*
X102859445Y-92476083D01*
X102846834Y-92447204D01*
X102824516Y-92418501D01*
X102794942Y-92393768D01*
X102765356Y-92379937D01*
X102734818Y-92375438D01*
X102590071Y-92375438D01*
X102590071Y-92646279D01*
X102524781Y-92646279D01*
X102524781Y-92346107D01*
X102528822Y-92326752D01*
X102539715Y-92315967D01*
X102559430Y-92311935D01*
X102734818Y-92311935D01*
X102773477Y-92316244D01*
G37*
G36*
X103128458Y-92323484D02*
G01*
X103144387Y-92312615D01*
X103160011Y-92309275D01*
X103178596Y-92313415D01*
X103189238Y-92324850D01*
X103193311Y-92346107D01*
X103193311Y-92939782D01*
X103189294Y-92961793D01*
X103178976Y-92973402D01*
X103161321Y-92977527D01*
X103146819Y-92975092D01*
X103137083Y-92968446D01*
X103130861Y-92957201D01*
X103128458Y-92939346D01*
X103128458Y-92415842D01*
X103051222Y-92493077D01*
X103038683Y-92502368D01*
X103027250Y-92505103D01*
X103007676Y-92501424D01*
X102997229Y-92491877D01*
X102993474Y-92475336D01*
X102996541Y-92461147D01*
X103006373Y-92447355D01*
X103128458Y-92323484D01*
G37*
G36*
X116144026Y-98412244D02*
G01*
X116181059Y-98425223D01*
X116217270Y-98447573D01*
X116253210Y-98480765D01*
X116277915Y-98514752D01*
X116292338Y-98550959D01*
X116297186Y-98590427D01*
X116294674Y-98629629D01*
X116287251Y-98666805D01*
X116274960Y-98702311D01*
X116260364Y-98728189D01*
X116239430Y-98751584D01*
X116211180Y-98772739D01*
X116174189Y-98791573D01*
X116290082Y-99019351D01*
X116295315Y-99032715D01*
X116296750Y-99042013D01*
X116292852Y-99061249D01*
X116282461Y-99071835D01*
X116263887Y-99075750D01*
X116253703Y-99073364D01*
X116243929Y-99065635D01*
X116234120Y-99050428D01*
X116109812Y-98807568D01*
X115959270Y-98807568D01*
X115959270Y-99040664D01*
X115955340Y-99060842D01*
X115945009Y-99071769D01*
X115926844Y-99075750D01*
X115909313Y-99071789D01*
X115899215Y-99060792D01*
X115895330Y-99040227D01*
X115895330Y-98742279D01*
X115960620Y-98742279D01*
X116105804Y-98742279D01*
X116135038Y-98737879D01*
X116165480Y-98723941D01*
X116198161Y-98698342D01*
X116217607Y-98673383D01*
X116229753Y-98641903D01*
X116234120Y-98601976D01*
X116229994Y-98572083D01*
X116217383Y-98543204D01*
X116195065Y-98514501D01*
X116165491Y-98489768D01*
X116135905Y-98475937D01*
X116105367Y-98471438D01*
X115960620Y-98471438D01*
X115960620Y-98742279D01*
X115895330Y-98742279D01*
X115895330Y-98442107D01*
X115899371Y-98422752D01*
X115910264Y-98411967D01*
X115929979Y-98407935D01*
X116105367Y-98407935D01*
X116144026Y-98412244D01*
G37*
G36*
X116499007Y-98419484D02*
G01*
X116514936Y-98408615D01*
X116530560Y-98405275D01*
X116549145Y-98409415D01*
X116559787Y-98420850D01*
X116563860Y-98442107D01*
X116563860Y-99035782D01*
X116559843Y-99057793D01*
X116549525Y-99069402D01*
X116531870Y-99073527D01*
X116517368Y-99071092D01*
X116507632Y-99064446D01*
X116501410Y-99053201D01*
X116499007Y-99035346D01*
X116499007Y-98511842D01*
X116421771Y-98589077D01*
X116409232Y-98598368D01*
X116397799Y-98601103D01*
X116378225Y-98597424D01*
X116367778Y-98587877D01*
X116364023Y-98571336D01*
X116367090Y-98557147D01*
X116376922Y-98543355D01*
X116499007Y-98419484D01*
G37*
G36*
X116739843Y-98403053D02*
G01*
X116878835Y-98403053D01*
X116907672Y-98406172D01*
X116934976Y-98415510D01*
X116961335Y-98431471D01*
X116987148Y-98455006D01*
X117006771Y-98480307D01*
X117020500Y-98507167D01*
X117028752Y-98535991D01*
X117031560Y-98567327D01*
X117027306Y-98605941D01*
X117014730Y-98641288D01*
X116993462Y-98674270D01*
X116962302Y-98705447D01*
X116992949Y-98732498D01*
X117013592Y-98761168D01*
X117025692Y-98791950D01*
X117029774Y-98825746D01*
X117029774Y-98923461D01*
X117026867Y-98950817D01*
X117018082Y-98977375D01*
X117002946Y-99003652D01*
X116980520Y-99030027D01*
X116957476Y-99048805D01*
X116931292Y-99062281D01*
X116901360Y-99070615D01*
X116866849Y-99073527D01*
X116734524Y-99073527D01*
X116712608Y-99069445D01*
X116700954Y-99058886D01*
X116696780Y-99040664D01*
X116700903Y-99024635D01*
X116712964Y-99014868D01*
X116736747Y-99010937D01*
X116853950Y-99010937D01*
X116888437Y-99007104D01*
X116916206Y-98996343D01*
X116938766Y-98978947D01*
X116954543Y-98957569D01*
X116964214Y-98932056D01*
X116967621Y-98901235D01*
X116967621Y-98843526D01*
X116964465Y-98814398D01*
X116955524Y-98790345D01*
X116940989Y-98770260D01*
X116917766Y-98750535D01*
X116894930Y-98739610D01*
X116871731Y-98736087D01*
X116804219Y-98736087D01*
X116782965Y-98732011D01*
X116771529Y-98721359D01*
X116767387Y-98702748D01*
X116771328Y-98686796D01*
X116782665Y-98677248D01*
X116804656Y-98673457D01*
X116864626Y-98673457D01*
X116891184Y-98670081D01*
X116914740Y-98660150D01*
X116936107Y-98643253D01*
X116953919Y-98620457D01*
X116964192Y-98596436D01*
X116967621Y-98570463D01*
X116964632Y-98543663D01*
X116956148Y-98521502D01*
X116942299Y-98502951D01*
X116917637Y-98482553D01*
X116894221Y-98471407D01*
X116871255Y-98467866D01*
X116739843Y-98467866D01*
X116720310Y-98465362D01*
X116708171Y-98458944D01*
X116701118Y-98449067D01*
X116698566Y-98434566D01*
X116701051Y-98420999D01*
X116707992Y-98411644D01*
X116720116Y-98405479D01*
X116739843Y-98403053D01*
G37*
G36*
X118145946Y-89386053D02*
G01*
X118281803Y-89386053D01*
X118300418Y-89389937D01*
X118310789Y-89400407D01*
X118314666Y-89419352D01*
X118310588Y-89438339D01*
X118299482Y-89449045D01*
X118279144Y-89453088D01*
X118145470Y-89453088D01*
X118121785Y-89456425D01*
X118097902Y-89466812D01*
X118073116Y-89485515D01*
X118058527Y-89503605D01*
X118049624Y-89525435D01*
X118046484Y-89552114D01*
X118046484Y-89891339D01*
X118049636Y-89918085D01*
X118058869Y-89941817D01*
X118074425Y-89963296D01*
X118095424Y-89981377D01*
X118115472Y-89991238D01*
X118135269Y-89994373D01*
X118284462Y-89994373D01*
X118302585Y-89998153D01*
X118312680Y-90008336D01*
X118316452Y-90026760D01*
X118312738Y-90043990D01*
X118302607Y-90053720D01*
X118284025Y-90057400D01*
X118132610Y-90057400D01*
X118103657Y-90053998D01*
X118075312Y-90043637D01*
X118046932Y-90025553D01*
X118018066Y-89998342D01*
X117998152Y-89969534D01*
X117985928Y-89935529D01*
X117981631Y-89894911D01*
X117981631Y-89547232D01*
X117984877Y-89515151D01*
X117994468Y-89485540D01*
X118010603Y-89457750D01*
X118034022Y-89431338D01*
X118059399Y-89411273D01*
X118086220Y-89397283D01*
X118114885Y-89388900D01*
X118145946Y-89386053D01*
G37*
G36*
X118418533Y-89422011D02*
G01*
X118421014Y-89407083D01*
X118427770Y-89397091D01*
X118439158Y-89390727D01*
X118457191Y-89388275D01*
X118718268Y-89388275D01*
X118739690Y-89392254D01*
X118751068Y-89402538D01*
X118755139Y-89420265D01*
X118751184Y-89438119D01*
X118740280Y-89448319D01*
X118720054Y-89452215D01*
X118483822Y-89452215D01*
X118483822Y-89657807D01*
X118582411Y-89657807D01*
X118623930Y-89661967D01*
X118660023Y-89673958D01*
X118691822Y-89693656D01*
X118720054Y-89721746D01*
X118739139Y-89751741D01*
X118750679Y-89785439D01*
X118754663Y-89823867D01*
X118754663Y-89895348D01*
X118751486Y-89930040D01*
X118742333Y-89960402D01*
X118727382Y-89987273D01*
X118706282Y-90011241D01*
X118679208Y-90032599D01*
X118651653Y-90047244D01*
X118623245Y-90055867D01*
X118593484Y-90058750D01*
X118454968Y-90058750D01*
X118435237Y-90054956D01*
X118424609Y-90045031D01*
X118420756Y-90027673D01*
X118424827Y-90010291D01*
X118436296Y-90000122D01*
X118458064Y-89996159D01*
X118581498Y-89996159D01*
X118616943Y-89991623D01*
X118644907Y-89978870D01*
X118667188Y-89957938D01*
X118679462Y-89938016D01*
X118686867Y-89915878D01*
X118689414Y-89890903D01*
X118689414Y-89823867D01*
X118686458Y-89798220D01*
X118677795Y-89775367D01*
X118663219Y-89754609D01*
X118641501Y-89737075D01*
X118612391Y-89725869D01*
X118573520Y-89721746D01*
X118450959Y-89721746D01*
X118433021Y-89717597D01*
X118422583Y-89705965D01*
X118418533Y-89684002D01*
X118418533Y-89422011D01*
G37*
G36*
X116416131Y-99301244D02*
G01*
X116453164Y-99314223D01*
X116489375Y-99336573D01*
X116525315Y-99369765D01*
X116550020Y-99403752D01*
X116564443Y-99439959D01*
X116569291Y-99479427D01*
X116566779Y-99518629D01*
X116559356Y-99555805D01*
X116547065Y-99591311D01*
X116532469Y-99617189D01*
X116511535Y-99640584D01*
X116483285Y-99661739D01*
X116446294Y-99680573D01*
X116562187Y-99908351D01*
X116567420Y-99921715D01*
X116568855Y-99931013D01*
X116564957Y-99950249D01*
X116554566Y-99960835D01*
X116535992Y-99964750D01*
X116525808Y-99962364D01*
X116516034Y-99954635D01*
X116506225Y-99939428D01*
X116381917Y-99696568D01*
X116231375Y-99696568D01*
X116231375Y-99929664D01*
X116227445Y-99949842D01*
X116217114Y-99960769D01*
X116198949Y-99964750D01*
X116181418Y-99960789D01*
X116171320Y-99949792D01*
X116167435Y-99929227D01*
X116167435Y-99631279D01*
X116232725Y-99631279D01*
X116377909Y-99631279D01*
X116407143Y-99626879D01*
X116437585Y-99612941D01*
X116470266Y-99587342D01*
X116489712Y-99562383D01*
X116501858Y-99530903D01*
X116506225Y-99490976D01*
X116502099Y-99461083D01*
X116489488Y-99432204D01*
X116467170Y-99403501D01*
X116437596Y-99378768D01*
X116408010Y-99364937D01*
X116377472Y-99360438D01*
X116232725Y-99360438D01*
X116232725Y-99631279D01*
X116167435Y-99631279D01*
X116167435Y-99331107D01*
X116171476Y-99311752D01*
X116182369Y-99300967D01*
X116202084Y-99296935D01*
X116377472Y-99296935D01*
X116416131Y-99301244D01*
G37*
G36*
X116872696Y-99297337D02*
G01*
X116901780Y-99306496D01*
X116929954Y-99322080D01*
X116957613Y-99344879D01*
X116978115Y-99369206D01*
X116992675Y-99396365D01*
X117001592Y-99426926D01*
X117004685Y-99461686D01*
X117004685Y-99665928D01*
X117001971Y-99709256D01*
X116994162Y-99747960D01*
X116981585Y-99782694D01*
X116953245Y-99835843D01*
X116924053Y-99875438D01*
X116894110Y-99903906D01*
X116838075Y-99941646D01*
X116798284Y-99959788D01*
X116770239Y-99964750D01*
X116752186Y-99960940D01*
X116742081Y-99950630D01*
X116738289Y-99931887D01*
X116741395Y-99918903D01*
X116751057Y-99908104D01*
X116769802Y-99899024D01*
X116811308Y-99881469D01*
X116846165Y-99858183D01*
X116881647Y-99822964D01*
X116908219Y-99784517D01*
X116926663Y-99742343D01*
X116937213Y-99695655D01*
X116829297Y-99695655D01*
X116793129Y-99691328D01*
X116759381Y-99678389D01*
X116727176Y-99656164D01*
X116702085Y-99629745D01*
X116685030Y-99602393D01*
X116675013Y-99573675D01*
X116671650Y-99542930D01*
X116671650Y-99460336D01*
X116734717Y-99460336D01*
X116734717Y-99532253D01*
X116738745Y-99560472D01*
X116750625Y-99585155D01*
X116771112Y-99607306D01*
X116791729Y-99619950D01*
X116819061Y-99628219D01*
X116855055Y-99631279D01*
X116938959Y-99631279D01*
X116938959Y-99465655D01*
X116935788Y-99436828D01*
X116926733Y-99412597D01*
X116911891Y-99391951D01*
X116889770Y-99373836D01*
X116865060Y-99363167D01*
X116836838Y-99359525D01*
X116812071Y-99362490D01*
X116788892Y-99371367D01*
X116766707Y-99386633D01*
X116749061Y-99406848D01*
X116738436Y-99431007D01*
X116734717Y-99460336D01*
X116671650Y-99460336D01*
X116671650Y-99449223D01*
X116675965Y-99414295D01*
X116688838Y-99382034D01*
X116710967Y-99351523D01*
X116744044Y-99322256D01*
X116770815Y-99307169D01*
X116803077Y-99297664D01*
X116842156Y-99294275D01*
X116872696Y-99297337D01*
G37*
G36*
X110330291Y-89014244D02*
G01*
X110367324Y-89027223D01*
X110403535Y-89049573D01*
X110439475Y-89082765D01*
X110464180Y-89116752D01*
X110478603Y-89152959D01*
X110483451Y-89192427D01*
X110480939Y-89231629D01*
X110473516Y-89268805D01*
X110461225Y-89304311D01*
X110446629Y-89330189D01*
X110425695Y-89353584D01*
X110397445Y-89374739D01*
X110360454Y-89393573D01*
X110476347Y-89621351D01*
X110481580Y-89634715D01*
X110483015Y-89644013D01*
X110479117Y-89663249D01*
X110468726Y-89673835D01*
X110450152Y-89677750D01*
X110439968Y-89675364D01*
X110430194Y-89667635D01*
X110420385Y-89652428D01*
X110296077Y-89409568D01*
X110145535Y-89409568D01*
X110145535Y-89642664D01*
X110141605Y-89662842D01*
X110131274Y-89673769D01*
X110113109Y-89677750D01*
X110095578Y-89673789D01*
X110085480Y-89662792D01*
X110081595Y-89642227D01*
X110081595Y-89344279D01*
X110146885Y-89344279D01*
X110292069Y-89344279D01*
X110321303Y-89339879D01*
X110351745Y-89325941D01*
X110384426Y-89300342D01*
X110403872Y-89275383D01*
X110416018Y-89243903D01*
X110420385Y-89203976D01*
X110416259Y-89174083D01*
X110403648Y-89145204D01*
X110381330Y-89116501D01*
X110351756Y-89091768D01*
X110322170Y-89077937D01*
X110291632Y-89073438D01*
X110146885Y-89073438D01*
X110146885Y-89344279D01*
X110081595Y-89344279D01*
X110081595Y-89044107D01*
X110085636Y-89024752D01*
X110096529Y-89013967D01*
X110116244Y-89009935D01*
X110291632Y-89009935D01*
X110330291Y-89014244D01*
G37*
G36*
X110615577Y-89005053D02*
G01*
X110754570Y-89005053D01*
X110783407Y-89008172D01*
X110810711Y-89017510D01*
X110837070Y-89033471D01*
X110862882Y-89057006D01*
X110882505Y-89082307D01*
X110896235Y-89109167D01*
X110904487Y-89137991D01*
X110907295Y-89169327D01*
X110903040Y-89207941D01*
X110890464Y-89243288D01*
X110869197Y-89276270D01*
X110838037Y-89307447D01*
X110868683Y-89334498D01*
X110889326Y-89363168D01*
X110901426Y-89393950D01*
X110905509Y-89427746D01*
X110905509Y-89525461D01*
X110902602Y-89552817D01*
X110893817Y-89579375D01*
X110878681Y-89605652D01*
X110856254Y-89632027D01*
X110833211Y-89650805D01*
X110807027Y-89664281D01*
X110777094Y-89672615D01*
X110742584Y-89675527D01*
X110610259Y-89675527D01*
X110588342Y-89671445D01*
X110576688Y-89660886D01*
X110572514Y-89642664D01*
X110576637Y-89626635D01*
X110588699Y-89616868D01*
X110612482Y-89612937D01*
X110729685Y-89612937D01*
X110764171Y-89609104D01*
X110791940Y-89598343D01*
X110814501Y-89580947D01*
X110830277Y-89559569D01*
X110839948Y-89534056D01*
X110843355Y-89503235D01*
X110843355Y-89445526D01*
X110840199Y-89416398D01*
X110831259Y-89392345D01*
X110816724Y-89372260D01*
X110793501Y-89352535D01*
X110770664Y-89341610D01*
X110747466Y-89338087D01*
X110679954Y-89338087D01*
X110658700Y-89334011D01*
X110647264Y-89323359D01*
X110643122Y-89304748D01*
X110647062Y-89288796D01*
X110658400Y-89279248D01*
X110680390Y-89275457D01*
X110740361Y-89275457D01*
X110766919Y-89272081D01*
X110790474Y-89262150D01*
X110811842Y-89245253D01*
X110829653Y-89222457D01*
X110839927Y-89198436D01*
X110843355Y-89172463D01*
X110840367Y-89145663D01*
X110831883Y-89123502D01*
X110818033Y-89104951D01*
X110793372Y-89084553D01*
X110769956Y-89073407D01*
X110746989Y-89069866D01*
X110615577Y-89069866D01*
X110596044Y-89067362D01*
X110583906Y-89060944D01*
X110576853Y-89051067D01*
X110574300Y-89036566D01*
X110576785Y-89022999D01*
X110583727Y-89013644D01*
X110595851Y-89007479D01*
X110615577Y-89005053D01*
G37*
G36*
X111686015Y-99225044D02*
G01*
X111723048Y-99238023D01*
X111759259Y-99260373D01*
X111795199Y-99293565D01*
X111819904Y-99327552D01*
X111834327Y-99363759D01*
X111839175Y-99403227D01*
X111836663Y-99442429D01*
X111829240Y-99479605D01*
X111816949Y-99515111D01*
X111802353Y-99540989D01*
X111781419Y-99564384D01*
X111753169Y-99585539D01*
X111716178Y-99604373D01*
X111832071Y-99832151D01*
X111837304Y-99845515D01*
X111838739Y-99854813D01*
X111834841Y-99874049D01*
X111824450Y-99884635D01*
X111805876Y-99888550D01*
X111795692Y-99886164D01*
X111785918Y-99878435D01*
X111776109Y-99863228D01*
X111651801Y-99620368D01*
X111501259Y-99620368D01*
X111501259Y-99853464D01*
X111497329Y-99873642D01*
X111486998Y-99884569D01*
X111468833Y-99888550D01*
X111451302Y-99884589D01*
X111441204Y-99873592D01*
X111437319Y-99853027D01*
X111437319Y-99555079D01*
X111502609Y-99555079D01*
X111647793Y-99555079D01*
X111677027Y-99550679D01*
X111707469Y-99536741D01*
X111740150Y-99511142D01*
X111759596Y-99486183D01*
X111771742Y-99454703D01*
X111776109Y-99414776D01*
X111771983Y-99384883D01*
X111759372Y-99356004D01*
X111737054Y-99327301D01*
X111707480Y-99302568D01*
X111677894Y-99288737D01*
X111647356Y-99284238D01*
X111502609Y-99284238D01*
X111502609Y-99555079D01*
X111437319Y-99555079D01*
X111437319Y-99254907D01*
X111441360Y-99235552D01*
X111452253Y-99224767D01*
X111471968Y-99220735D01*
X111647356Y-99220735D01*
X111686015Y-99225044D01*
G37*
G36*
X112150535Y-99218368D02*
G01*
X112177828Y-99225563D01*
X112201738Y-99237166D01*
X112232613Y-99260211D01*
X112255672Y-99285867D01*
X112271921Y-99314404D01*
X112281820Y-99346418D01*
X112285245Y-99382787D01*
X112280827Y-99425327D01*
X112268199Y-99461407D01*
X112247570Y-99492393D01*
X112218170Y-99519120D01*
X112248726Y-99548721D01*
X112269581Y-99580285D01*
X112281930Y-99614365D01*
X112286118Y-99651881D01*
X112286118Y-99727807D01*
X112282737Y-99758462D01*
X112272537Y-99787983D01*
X112254957Y-99816991D01*
X112228846Y-99845923D01*
X112197752Y-99868453D01*
X112162081Y-99882049D01*
X112120494Y-99886763D01*
X112083536Y-99884052D01*
X112053349Y-99876522D01*
X112028695Y-99864785D01*
X112008610Y-99849019D01*
X111981720Y-99818195D01*
X111963892Y-99788504D01*
X111953734Y-99759467D01*
X111950425Y-99730466D01*
X111950425Y-99650532D01*
X112014365Y-99650532D01*
X112014365Y-99731379D01*
X112018000Y-99751861D01*
X112029975Y-99774576D01*
X112052982Y-99800637D01*
X112069624Y-99812326D01*
X112090678Y-99819716D01*
X112117398Y-99822387D01*
X112140440Y-99819414D01*
X112164060Y-99810143D01*
X112188879Y-99793533D01*
X112206132Y-99774389D01*
X112216656Y-99750594D01*
X112220393Y-99720703D01*
X112220393Y-99654540D01*
X112217108Y-99630474D01*
X112206865Y-99605992D01*
X112188442Y-99580401D01*
X112169499Y-99564380D01*
X112146108Y-99554559D01*
X112116922Y-99551070D01*
X112091701Y-99554208D01*
X112068698Y-99563529D01*
X112047227Y-99579488D01*
X112028566Y-99601845D01*
X112017904Y-99625274D01*
X112014365Y-99650532D01*
X111950425Y-99650532D01*
X111950425Y-99648349D01*
X111954381Y-99614015D01*
X111966293Y-99581269D01*
X111986840Y-99549354D01*
X112017460Y-99517771D01*
X111988221Y-99489378D01*
X111967566Y-99456532D01*
X111954871Y-99418351D01*
X111951042Y-99379691D01*
X112014801Y-99379691D01*
X112017239Y-99402704D01*
X112024645Y-99425357D01*
X112037464Y-99448076D01*
X112057218Y-99468496D01*
X112082779Y-99480931D01*
X112116049Y-99485384D01*
X112148724Y-99481626D01*
X112174373Y-99471161D01*
X112194634Y-99454307D01*
X112209868Y-99431809D01*
X112218762Y-99408169D01*
X112221742Y-99382787D01*
X112217995Y-99357042D01*
X112206654Y-99333045D01*
X112186656Y-99309996D01*
X112164656Y-99294317D01*
X112141054Y-99285119D01*
X112115176Y-99282015D01*
X112087866Y-99285122D01*
X112065595Y-99293904D01*
X112047227Y-99308210D01*
X112028604Y-99332146D01*
X112018180Y-99355741D01*
X112014801Y-99379691D01*
X111951042Y-99379691D01*
X111950425Y-99373460D01*
X111954245Y-99338054D01*
X111965332Y-99307011D01*
X111983746Y-99279347D01*
X112010356Y-99254471D01*
X112045904Y-99232652D01*
X112081912Y-99220028D01*
X112119145Y-99215853D01*
X112150535Y-99218368D01*
G37*
G36*
X115261376Y-93840244D02*
G01*
X115298409Y-93853223D01*
X115334620Y-93875573D01*
X115370560Y-93908765D01*
X115395265Y-93942752D01*
X115409688Y-93978959D01*
X115414536Y-94018427D01*
X115412024Y-94057629D01*
X115404601Y-94094805D01*
X115392310Y-94130311D01*
X115377714Y-94156189D01*
X115356780Y-94179584D01*
X115328530Y-94200739D01*
X115291539Y-94219573D01*
X115407432Y-94447351D01*
X115412665Y-94460715D01*
X115414100Y-94470013D01*
X115410202Y-94489249D01*
X115399811Y-94499835D01*
X115381237Y-94503750D01*
X115371053Y-94501364D01*
X115361279Y-94493635D01*
X115351470Y-94478428D01*
X115227162Y-94235568D01*
X115076620Y-94235568D01*
X115076620Y-94468664D01*
X115072690Y-94488842D01*
X115062359Y-94499769D01*
X115044194Y-94503750D01*
X115026663Y-94499789D01*
X115016565Y-94488792D01*
X115012680Y-94468227D01*
X115012680Y-94170279D01*
X115077970Y-94170279D01*
X115223154Y-94170279D01*
X115252388Y-94165879D01*
X115282830Y-94151941D01*
X115315511Y-94126342D01*
X115334957Y-94101383D01*
X115347103Y-94069903D01*
X115351470Y-94029976D01*
X115347344Y-94000083D01*
X115334733Y-93971204D01*
X115312415Y-93942501D01*
X115282841Y-93917768D01*
X115253255Y-93903937D01*
X115222717Y-93899438D01*
X115077970Y-93899438D01*
X115077970Y-94170279D01*
X115012680Y-94170279D01*
X115012680Y-93870107D01*
X115016721Y-93850752D01*
X115027614Y-93839967D01*
X115047329Y-93835935D01*
X115222717Y-93835935D01*
X115261376Y-93840244D01*
G37*
G36*
X115616357Y-93847484D02*
G01*
X115632286Y-93836615D01*
X115647910Y-93833275D01*
X115666495Y-93837415D01*
X115677137Y-93848850D01*
X115681210Y-93870107D01*
X115681210Y-94463782D01*
X115677193Y-94485793D01*
X115666875Y-94497402D01*
X115649220Y-94501527D01*
X115634718Y-94499092D01*
X115624982Y-94492446D01*
X115618760Y-94481201D01*
X115616357Y-94463346D01*
X115616357Y-93939842D01*
X115539121Y-94017077D01*
X115526582Y-94026368D01*
X115515149Y-94029103D01*
X115495575Y-94025424D01*
X115485128Y-94015877D01*
X115481373Y-93999336D01*
X115484440Y-93985147D01*
X115494272Y-93971355D01*
X115616357Y-93847484D01*
G37*
G36*
X115848739Y-93997987D02*
G01*
X115828742Y-93994175D01*
X115818008Y-93984234D01*
X115814130Y-93966910D01*
X115815816Y-93956615D01*
X115822107Y-93941151D01*
X115843018Y-93906061D01*
X115864472Y-93880439D01*
X115886484Y-93862566D01*
X115917686Y-93846101D01*
X115949339Y-93836473D01*
X115981976Y-93833275D01*
X116022762Y-93837491D01*
X116057661Y-93849581D01*
X116087919Y-93869387D01*
X116114301Y-93897652D01*
X116134037Y-93930387D01*
X116145528Y-93963904D01*
X116149347Y-93998900D01*
X116146247Y-94029809D01*
X116136713Y-94061301D01*
X116120056Y-94093916D01*
X115904701Y-94441596D01*
X116115174Y-94441596D01*
X116134078Y-94445502D01*
X116144567Y-94455991D01*
X116148474Y-94474895D01*
X116144611Y-94490633D01*
X116133525Y-94500028D01*
X116112079Y-94503750D01*
X115854097Y-94503750D01*
X115830453Y-94499942D01*
X115818582Y-94490560D01*
X115814566Y-94475332D01*
X115816050Y-94463513D01*
X115820321Y-94453582D01*
X116059212Y-94068594D01*
X116073632Y-94041397D01*
X116081324Y-94018464D01*
X116083661Y-93998900D01*
X116080902Y-93974350D01*
X116072812Y-93952363D01*
X116059212Y-93932301D01*
X116037363Y-93913173D01*
X116011314Y-93901672D01*
X115979754Y-93897652D01*
X115951479Y-93901849D01*
X115925940Y-93914424D01*
X115902171Y-93936484D01*
X115879855Y-93970482D01*
X115868526Y-93987321D01*
X115858347Y-93995559D01*
X115848739Y-93997987D01*
G37*
G36*
X102716641Y-98920244D02*
G01*
X102753674Y-98933223D01*
X102789885Y-98955573D01*
X102825825Y-98988765D01*
X102850530Y-99022752D01*
X102864953Y-99058959D01*
X102869801Y-99098427D01*
X102867289Y-99137629D01*
X102859866Y-99174805D01*
X102847575Y-99210311D01*
X102832979Y-99236189D01*
X102812045Y-99259584D01*
X102783795Y-99280739D01*
X102746804Y-99299573D01*
X102862697Y-99527351D01*
X102867930Y-99540715D01*
X102869365Y-99550013D01*
X102865467Y-99569249D01*
X102855076Y-99579835D01*
X102836502Y-99583750D01*
X102826318Y-99581364D01*
X102816544Y-99573635D01*
X102806735Y-99558428D01*
X102682427Y-99315568D01*
X102531885Y-99315568D01*
X102531885Y-99548664D01*
X102527955Y-99568842D01*
X102517624Y-99579769D01*
X102499459Y-99583750D01*
X102481928Y-99579789D01*
X102471830Y-99568792D01*
X102467945Y-99548227D01*
X102467945Y-99250279D01*
X102533235Y-99250279D01*
X102678419Y-99250279D01*
X102707653Y-99245879D01*
X102738095Y-99231941D01*
X102770776Y-99206342D01*
X102790222Y-99181383D01*
X102802368Y-99149903D01*
X102806735Y-99109976D01*
X102802609Y-99080083D01*
X102789998Y-99051204D01*
X102767680Y-99022501D01*
X102738106Y-98997768D01*
X102708520Y-98983937D01*
X102677982Y-98979438D01*
X102533235Y-98979438D01*
X102533235Y-99250279D01*
X102467945Y-99250279D01*
X102467945Y-98950107D01*
X102471986Y-98930752D01*
X102482879Y-98919967D01*
X102502594Y-98915935D01*
X102677982Y-98915935D01*
X102716641Y-98920244D01*
G37*
G36*
X102993474Y-99077987D02*
G01*
X102973477Y-99074175D01*
X102962743Y-99064234D01*
X102958864Y-99046910D01*
X102960551Y-99036615D01*
X102966842Y-99021151D01*
X102987752Y-98986061D01*
X103009207Y-98960439D01*
X103031218Y-98942566D01*
X103062421Y-98926101D01*
X103094073Y-98916473D01*
X103126711Y-98913275D01*
X103167497Y-98917491D01*
X103202396Y-98929581D01*
X103232653Y-98949387D01*
X103259036Y-98977652D01*
X103278771Y-99010387D01*
X103290262Y-99043904D01*
X103294082Y-99078900D01*
X103290982Y-99109809D01*
X103281448Y-99141301D01*
X103264791Y-99173916D01*
X103049436Y-99521596D01*
X103259909Y-99521596D01*
X103278813Y-99525502D01*
X103289302Y-99535991D01*
X103293208Y-99554895D01*
X103289346Y-99570633D01*
X103278260Y-99580028D01*
X103256813Y-99583750D01*
X102998832Y-99583750D01*
X102975188Y-99579942D01*
X102963317Y-99570560D01*
X102959301Y-99555332D01*
X102960785Y-99543513D01*
X102965056Y-99533582D01*
X103203947Y-99148594D01*
X103218367Y-99121397D01*
X103226058Y-99098464D01*
X103228396Y-99078900D01*
X103225637Y-99054350D01*
X103217546Y-99032363D01*
X103203947Y-99012301D01*
X103182098Y-98993173D01*
X103156049Y-98981672D01*
X103124489Y-98977652D01*
X103096214Y-98981849D01*
X103070674Y-98994424D01*
X103046906Y-99016484D01*
X103024590Y-99050482D01*
X103013260Y-99067321D01*
X103003082Y-99075559D01*
X102993474Y-99077987D01*
G37*
G36*
X110518643Y-102314653D02*
G01*
X110654500Y-102314653D01*
X110673115Y-102318537D01*
X110683486Y-102329007D01*
X110687363Y-102347952D01*
X110683285Y-102366939D01*
X110672179Y-102377645D01*
X110651841Y-102381688D01*
X110518167Y-102381688D01*
X110494482Y-102385025D01*
X110470599Y-102395412D01*
X110445813Y-102414115D01*
X110431224Y-102432205D01*
X110422321Y-102454035D01*
X110419181Y-102480714D01*
X110419181Y-102819939D01*
X110422333Y-102846685D01*
X110431566Y-102870417D01*
X110447122Y-102891896D01*
X110468121Y-102909977D01*
X110488169Y-102919838D01*
X110507966Y-102922973D01*
X110657159Y-102922973D01*
X110675282Y-102926753D01*
X110685377Y-102936936D01*
X110689149Y-102955360D01*
X110685435Y-102972590D01*
X110675304Y-102982320D01*
X110656722Y-102986000D01*
X110505307Y-102986000D01*
X110476354Y-102982598D01*
X110448009Y-102972237D01*
X110419629Y-102954153D01*
X110390763Y-102926942D01*
X110370849Y-102898134D01*
X110358625Y-102864129D01*
X110354328Y-102823511D01*
X110354328Y-102475832D01*
X110357574Y-102443751D01*
X110367165Y-102414140D01*
X110383300Y-102386350D01*
X110406719Y-102359938D01*
X110432096Y-102339873D01*
X110458917Y-102325883D01*
X110487582Y-102317500D01*
X110518643Y-102314653D01*
G37*
G36*
X110912005Y-102339498D02*
G01*
X110918973Y-102325499D01*
X110929553Y-102317506D01*
X110944868Y-102314653D01*
X110962262Y-102318247D01*
X110971914Y-102327899D01*
X110975508Y-102345293D01*
X110972412Y-102363034D01*
X110851201Y-102785767D01*
X111013253Y-102785767D01*
X111013253Y-102688964D01*
X111017283Y-102667295D01*
X111027704Y-102655778D01*
X111045679Y-102651656D01*
X111059338Y-102654100D01*
X111068688Y-102660884D01*
X111074800Y-102672632D01*
X111077193Y-102691623D01*
X111077193Y-102786203D01*
X111145578Y-102786203D01*
X111163743Y-102790184D01*
X111174073Y-102801111D01*
X111178004Y-102821289D01*
X111174324Y-102836952D01*
X111163947Y-102846128D01*
X111144228Y-102849706D01*
X111077193Y-102849706D01*
X111077193Y-102950041D01*
X111073191Y-102970759D01*
X111062705Y-102981940D01*
X111044330Y-102986000D01*
X111027006Y-102982122D01*
X111017065Y-102971388D01*
X111013253Y-102951391D01*
X111013253Y-102851016D01*
X110809447Y-102851016D01*
X110791384Y-102847443D01*
X110781541Y-102838000D01*
X110777934Y-102821289D01*
X110784126Y-102789299D01*
X110912005Y-102339498D01*
G37*
G36*
X106983917Y-96117053D02*
G01*
X107119774Y-96117053D01*
X107138389Y-96120937D01*
X107148760Y-96131407D01*
X107152637Y-96150352D01*
X107148559Y-96169339D01*
X107137453Y-96180045D01*
X107117115Y-96184088D01*
X106983441Y-96184088D01*
X106959756Y-96187425D01*
X106935873Y-96197812D01*
X106911087Y-96216515D01*
X106896498Y-96234605D01*
X106887595Y-96256435D01*
X106884455Y-96283114D01*
X106884455Y-96622339D01*
X106887607Y-96649085D01*
X106896840Y-96672817D01*
X106912396Y-96694296D01*
X106933395Y-96712377D01*
X106953443Y-96722238D01*
X106973240Y-96725373D01*
X107122433Y-96725373D01*
X107140556Y-96729153D01*
X107150651Y-96739336D01*
X107154423Y-96757760D01*
X107150709Y-96774990D01*
X107140578Y-96784720D01*
X107121996Y-96788400D01*
X106970581Y-96788400D01*
X106941628Y-96784998D01*
X106913283Y-96774637D01*
X106884903Y-96756553D01*
X106856037Y-96729342D01*
X106836123Y-96700534D01*
X106823899Y-96666529D01*
X106819602Y-96625911D01*
X106819602Y-96278232D01*
X106822848Y-96246151D01*
X106832439Y-96216540D01*
X106848574Y-96188750D01*
X106871993Y-96162338D01*
X106897370Y-96142273D01*
X106924191Y-96128283D01*
X106952856Y-96119900D01*
X106983917Y-96117053D01*
G37*
G36*
X107277817Y-96283987D02*
G01*
X107257820Y-96280175D01*
X107247086Y-96270234D01*
X107243208Y-96252910D01*
X107244894Y-96242615D01*
X107251186Y-96227151D01*
X107272096Y-96192061D01*
X107293551Y-96166439D01*
X107315562Y-96148566D01*
X107346764Y-96132101D01*
X107378417Y-96122473D01*
X107411055Y-96119275D01*
X107451841Y-96123491D01*
X107486740Y-96135581D01*
X107516997Y-96155387D01*
X107543379Y-96183652D01*
X107563115Y-96216387D01*
X107574606Y-96249904D01*
X107578425Y-96284900D01*
X107575326Y-96315809D01*
X107565792Y-96347301D01*
X107549134Y-96379916D01*
X107333779Y-96727596D01*
X107544253Y-96727596D01*
X107563157Y-96731502D01*
X107573646Y-96741991D01*
X107577552Y-96760895D01*
X107573689Y-96776633D01*
X107562603Y-96786028D01*
X107541157Y-96789750D01*
X107283175Y-96789750D01*
X107259531Y-96785942D01*
X107247661Y-96776560D01*
X107243645Y-96761332D01*
X107245129Y-96749513D01*
X107249400Y-96739582D01*
X107488290Y-96354594D01*
X107502711Y-96327397D01*
X107510402Y-96304464D01*
X107512739Y-96284900D01*
X107509980Y-96260350D01*
X107501890Y-96238363D01*
X107488290Y-96218301D01*
X107466442Y-96199173D01*
X107440392Y-96187672D01*
X107408832Y-96183652D01*
X107380557Y-96187849D01*
X107355018Y-96200424D01*
X107331250Y-96222484D01*
X107308934Y-96256482D01*
X107297604Y-96273321D01*
X107287426Y-96281559D01*
X107277817Y-96283987D01*
G37*
G36*
X111084671Y-96888244D02*
G01*
X111121704Y-96901223D01*
X111157915Y-96923573D01*
X111193855Y-96956765D01*
X111218560Y-96990752D01*
X111232983Y-97026959D01*
X111237831Y-97066427D01*
X111235319Y-97105629D01*
X111227896Y-97142805D01*
X111215605Y-97178311D01*
X111201009Y-97204189D01*
X111180075Y-97227584D01*
X111151825Y-97248739D01*
X111114834Y-97267573D01*
X111230727Y-97495351D01*
X111235960Y-97508715D01*
X111237395Y-97518013D01*
X111233497Y-97537249D01*
X111223106Y-97547835D01*
X111204532Y-97551750D01*
X111194348Y-97549364D01*
X111184574Y-97541635D01*
X111174765Y-97526428D01*
X111050457Y-97283568D01*
X110899915Y-97283568D01*
X110899915Y-97516664D01*
X110895985Y-97536842D01*
X110885654Y-97547769D01*
X110867489Y-97551750D01*
X110849958Y-97547789D01*
X110839860Y-97536792D01*
X110835975Y-97516227D01*
X110835975Y-97218279D01*
X110901265Y-97218279D01*
X111046449Y-97218279D01*
X111075683Y-97213879D01*
X111106125Y-97199941D01*
X111138806Y-97174342D01*
X111158252Y-97149383D01*
X111170398Y-97117903D01*
X111174765Y-97077976D01*
X111170639Y-97048083D01*
X111158028Y-97019204D01*
X111135710Y-96990501D01*
X111106136Y-96965768D01*
X111076550Y-96951937D01*
X111046012Y-96947438D01*
X110901265Y-96947438D01*
X110901265Y-97218279D01*
X110835975Y-97218279D01*
X110835975Y-96918107D01*
X110840016Y-96898752D01*
X110850909Y-96887967D01*
X110870624Y-96883935D01*
X111046012Y-96883935D01*
X111084671Y-96888244D01*
G37*
G36*
X111340190Y-96915011D02*
G01*
X111342672Y-96900083D01*
X111349428Y-96890091D01*
X111360816Y-96883727D01*
X111378848Y-96881275D01*
X111639925Y-96881275D01*
X111661347Y-96885254D01*
X111672726Y-96895538D01*
X111676797Y-96913265D01*
X111672841Y-96931119D01*
X111661937Y-96941319D01*
X111641711Y-96945215D01*
X111405480Y-96945215D01*
X111405480Y-97150807D01*
X111504068Y-97150807D01*
X111545587Y-97154967D01*
X111581681Y-97166958D01*
X111613479Y-97186656D01*
X111641711Y-97214746D01*
X111660796Y-97244741D01*
X111672337Y-97278439D01*
X111676320Y-97316867D01*
X111676320Y-97388348D01*
X111673143Y-97423040D01*
X111663991Y-97453402D01*
X111649040Y-97480273D01*
X111627939Y-97504241D01*
X111600865Y-97525599D01*
X111573310Y-97540244D01*
X111544902Y-97548867D01*
X111515142Y-97551750D01*
X111376625Y-97551750D01*
X111356894Y-97547956D01*
X111346266Y-97538031D01*
X111342413Y-97520673D01*
X111346485Y-97503291D01*
X111357953Y-97493122D01*
X111379721Y-97489159D01*
X111503155Y-97489159D01*
X111538600Y-97484623D01*
X111566564Y-97471870D01*
X111588845Y-97450938D01*
X111601120Y-97431016D01*
X111608524Y-97408878D01*
X111611071Y-97383903D01*
X111611071Y-97316867D01*
X111608115Y-97291220D01*
X111599452Y-97268367D01*
X111584876Y-97247609D01*
X111563158Y-97230075D01*
X111534048Y-97218869D01*
X111495178Y-97214746D01*
X111372617Y-97214746D01*
X111354678Y-97210597D01*
X111344240Y-97198965D01*
X111340190Y-97177002D01*
X111340190Y-96915011D01*
G37*
G36*
X102383017Y-102467053D02*
G01*
X102518874Y-102467053D01*
X102537489Y-102470937D01*
X102547860Y-102481407D01*
X102551737Y-102500352D01*
X102547659Y-102519339D01*
X102536553Y-102530045D01*
X102516215Y-102534088D01*
X102382541Y-102534088D01*
X102358856Y-102537425D01*
X102334973Y-102547812D01*
X102310187Y-102566515D01*
X102295598Y-102584605D01*
X102286695Y-102606435D01*
X102283555Y-102633114D01*
X102283555Y-102972339D01*
X102286707Y-102999085D01*
X102295940Y-103022817D01*
X102311496Y-103044296D01*
X102332495Y-103062377D01*
X102352543Y-103072238D01*
X102372340Y-103075373D01*
X102521533Y-103075373D01*
X102539656Y-103079153D01*
X102549751Y-103089336D01*
X102553523Y-103107760D01*
X102549809Y-103124990D01*
X102539678Y-103134720D01*
X102521096Y-103138400D01*
X102369681Y-103138400D01*
X102340728Y-103134998D01*
X102312383Y-103124637D01*
X102284003Y-103106553D01*
X102255137Y-103079342D01*
X102235223Y-103050534D01*
X102222999Y-103016529D01*
X102218702Y-102975911D01*
X102218702Y-102628232D01*
X102221948Y-102596151D01*
X102231539Y-102566540D01*
X102247674Y-102538750D01*
X102271093Y-102512338D01*
X102296470Y-102492273D01*
X102323291Y-102478283D01*
X102351956Y-102469900D01*
X102383017Y-102467053D01*
G37*
G36*
X102755066Y-102483484D02*
G01*
X102770994Y-102472615D01*
X102786619Y-102469275D01*
X102805204Y-102473415D01*
X102815845Y-102484850D01*
X102819918Y-102506107D01*
X102819918Y-103099782D01*
X102815901Y-103121793D01*
X102805584Y-103133402D01*
X102787929Y-103137527D01*
X102773427Y-103135092D01*
X102763691Y-103128446D01*
X102757468Y-103117201D01*
X102755066Y-103099346D01*
X102755066Y-102575842D01*
X102677830Y-102653077D01*
X102665291Y-102662368D01*
X102653858Y-102665103D01*
X102634284Y-102661424D01*
X102623837Y-102651877D01*
X102620082Y-102635336D01*
X102623149Y-102621147D01*
X102632981Y-102607355D01*
X102755066Y-102483484D01*
G37*
G36*
X103151819Y-102472389D02*
G01*
X103176480Y-102481256D01*
X103197428Y-102495719D01*
X103215265Y-102516347D01*
X103236352Y-102552808D01*
X103255075Y-102597911D01*
X103271022Y-102653137D01*
X103283610Y-102720153D01*
X103287952Y-102759819D01*
X103289405Y-102800087D01*
X103287847Y-102842597D01*
X103283174Y-102884864D01*
X103270768Y-102951460D01*
X103255273Y-103006702D01*
X103237223Y-103052136D01*
X103217011Y-103089145D01*
X103198770Y-103111382D01*
X103177206Y-103126907D01*
X103151692Y-103136411D01*
X103121122Y-103139750D01*
X103091138Y-103136355D01*
X103065767Y-103126620D01*
X103043972Y-103110566D01*
X103025192Y-103087359D01*
X103002279Y-103042748D01*
X102980208Y-102977894D01*
X102959943Y-102887086D01*
X102954627Y-102847281D01*
X102952838Y-102806279D01*
X102953089Y-102800524D01*
X103018564Y-102800524D01*
X103022533Y-102862241D01*
X103033778Y-102928726D01*
X103048605Y-102985140D01*
X103066509Y-103032747D01*
X103081807Y-103057432D01*
X103099274Y-103070625D01*
X103119772Y-103074937D01*
X103139794Y-103070993D01*
X103157283Y-103058949D01*
X103173075Y-103036716D01*
X103189687Y-102998109D01*
X103204558Y-102947322D01*
X103217011Y-102881768D01*
X103221715Y-102839862D01*
X103223243Y-102800087D01*
X103221664Y-102760963D01*
X103217011Y-102723685D01*
X103203638Y-102662022D01*
X103186074Y-102607365D01*
X103164621Y-102558974D01*
X103153794Y-102544678D01*
X103139390Y-102536221D01*
X103120209Y-102533215D01*
X103101733Y-102536260D01*
X103087593Y-102544936D01*
X103076709Y-102559847D01*
X103056175Y-102606373D01*
X103039224Y-102658414D01*
X103026105Y-102716580D01*
X103020456Y-102758150D01*
X103018564Y-102800524D01*
X102953089Y-102800524D01*
X102954712Y-102763235D01*
X102960379Y-102719716D01*
X102979876Y-102629252D01*
X103000609Y-102566085D01*
X103021660Y-102523888D01*
X103040780Y-102499829D01*
X103063423Y-102483091D01*
X103090244Y-102472866D01*
X103122431Y-102469275D01*
X103151819Y-102472389D01*
G37*
G36*
X118899691Y-99419053D02*
G01*
X119035548Y-99419053D01*
X119054163Y-99422937D01*
X119064534Y-99433407D01*
X119068411Y-99452352D01*
X119064333Y-99471339D01*
X119053227Y-99482045D01*
X119032889Y-99486088D01*
X118899215Y-99486088D01*
X118875530Y-99489425D01*
X118851647Y-99499812D01*
X118826861Y-99518515D01*
X118812272Y-99536605D01*
X118803369Y-99558435D01*
X118800229Y-99585114D01*
X118800229Y-99924339D01*
X118803381Y-99951085D01*
X118812614Y-99974817D01*
X118828170Y-99996296D01*
X118849169Y-100014377D01*
X118869217Y-100024238D01*
X118889014Y-100027373D01*
X119038207Y-100027373D01*
X119056330Y-100031153D01*
X119066425Y-100041336D01*
X119070197Y-100059760D01*
X119066483Y-100076990D01*
X119056352Y-100086720D01*
X119037770Y-100090400D01*
X118886355Y-100090400D01*
X118857402Y-100086998D01*
X118829057Y-100076637D01*
X118800677Y-100058553D01*
X118771811Y-100031342D01*
X118751897Y-100002534D01*
X118739673Y-99968529D01*
X118735376Y-99927911D01*
X118735376Y-99580232D01*
X118738622Y-99548151D01*
X118748213Y-99518540D01*
X118764348Y-99490750D01*
X118787767Y-99464338D01*
X118813144Y-99444273D01*
X118839965Y-99430283D01*
X118868630Y-99421900D01*
X118899691Y-99419053D01*
G37*
G36*
X119381279Y-99421568D02*
G01*
X119408572Y-99428763D01*
X119432482Y-99440366D01*
X119463357Y-99463411D01*
X119486416Y-99489067D01*
X119502665Y-99517604D01*
X119512564Y-99549618D01*
X119515989Y-99585987D01*
X119511570Y-99628527D01*
X119498942Y-99664607D01*
X119478313Y-99695593D01*
X119448914Y-99722320D01*
X119479470Y-99751921D01*
X119500325Y-99783485D01*
X119512674Y-99817565D01*
X119516862Y-99855081D01*
X119516862Y-99931007D01*
X119513481Y-99961662D01*
X119503281Y-99991183D01*
X119485700Y-100020191D01*
X119459590Y-100049123D01*
X119428496Y-100071653D01*
X119392825Y-100085249D01*
X119351238Y-100089963D01*
X119314280Y-100087252D01*
X119284093Y-100079722D01*
X119259439Y-100067985D01*
X119239353Y-100052219D01*
X119212463Y-100021395D01*
X119194636Y-99991704D01*
X119184478Y-99962667D01*
X119181168Y-99933666D01*
X119181168Y-99853732D01*
X119245108Y-99853732D01*
X119245108Y-99934579D01*
X119248744Y-99955061D01*
X119260719Y-99977776D01*
X119283726Y-100003837D01*
X119300367Y-100015526D01*
X119321421Y-100022916D01*
X119348142Y-100025587D01*
X119371184Y-100022614D01*
X119394804Y-100013343D01*
X119419623Y-99996733D01*
X119436875Y-99977589D01*
X119447399Y-99953794D01*
X119451136Y-99923903D01*
X119451136Y-99857740D01*
X119447851Y-99833674D01*
X119437609Y-99809192D01*
X119419186Y-99783601D01*
X119400243Y-99767580D01*
X119376851Y-99757759D01*
X119347666Y-99754270D01*
X119322444Y-99757408D01*
X119299442Y-99766729D01*
X119277971Y-99782688D01*
X119259309Y-99805045D01*
X119248647Y-99828474D01*
X119245108Y-99853732D01*
X119181168Y-99853732D01*
X119181168Y-99851549D01*
X119185124Y-99817215D01*
X119197036Y-99784469D01*
X119217584Y-99752554D01*
X119248204Y-99720971D01*
X119218965Y-99692578D01*
X119198309Y-99659732D01*
X119185615Y-99621551D01*
X119181785Y-99582891D01*
X119245545Y-99582891D01*
X119247982Y-99605904D01*
X119255388Y-99628557D01*
X119268207Y-99651276D01*
X119287962Y-99671696D01*
X119313523Y-99684131D01*
X119346793Y-99688584D01*
X119379468Y-99684826D01*
X119405117Y-99674361D01*
X119425378Y-99657507D01*
X119440612Y-99635009D01*
X119449506Y-99611369D01*
X119452486Y-99585987D01*
X119448738Y-99560242D01*
X119437397Y-99536245D01*
X119417400Y-99513196D01*
X119395400Y-99497517D01*
X119371797Y-99488319D01*
X119345919Y-99485215D01*
X119318610Y-99488322D01*
X119296338Y-99497104D01*
X119277971Y-99511410D01*
X119259347Y-99535346D01*
X119248924Y-99558941D01*
X119245545Y-99582891D01*
X119181785Y-99582891D01*
X119181168Y-99576660D01*
X119184989Y-99541254D01*
X119196076Y-99510211D01*
X119214489Y-99482547D01*
X119241100Y-99457671D01*
X119276648Y-99435852D01*
X119312656Y-99423228D01*
X119349888Y-99419053D01*
X119381279Y-99421568D01*
G37*
G36*
X111031406Y-95101053D02*
G01*
X111167263Y-95101053D01*
X111185878Y-95104937D01*
X111196249Y-95115407D01*
X111200126Y-95134352D01*
X111196048Y-95153339D01*
X111184942Y-95164045D01*
X111164604Y-95168088D01*
X111030930Y-95168088D01*
X111007245Y-95171425D01*
X110983362Y-95181812D01*
X110958576Y-95200515D01*
X110943987Y-95218605D01*
X110935084Y-95240435D01*
X110931944Y-95267114D01*
X110931944Y-95606339D01*
X110935096Y-95633085D01*
X110944329Y-95656817D01*
X110959885Y-95678296D01*
X110980884Y-95696377D01*
X111000932Y-95706238D01*
X111020729Y-95709373D01*
X111169922Y-95709373D01*
X111188045Y-95713153D01*
X111198140Y-95723336D01*
X111201912Y-95741760D01*
X111198198Y-95758990D01*
X111188067Y-95768720D01*
X111169485Y-95772400D01*
X111018070Y-95772400D01*
X110989117Y-95768998D01*
X110960772Y-95758637D01*
X110932392Y-95740553D01*
X110903526Y-95713342D01*
X110883612Y-95684534D01*
X110871388Y-95650529D01*
X110867091Y-95609911D01*
X110867091Y-95262232D01*
X110870337Y-95230151D01*
X110879928Y-95200540D01*
X110896063Y-95172750D01*
X110919482Y-95146338D01*
X110944859Y-95126273D01*
X110971680Y-95112283D01*
X111000345Y-95103900D01*
X111031406Y-95101053D01*
G37*
G36*
X111505038Y-95106337D02*
G01*
X111534122Y-95115496D01*
X111562296Y-95131080D01*
X111589956Y-95153879D01*
X111610458Y-95178206D01*
X111625017Y-95205365D01*
X111633935Y-95235926D01*
X111637027Y-95270686D01*
X111637027Y-95474928D01*
X111634314Y-95518256D01*
X111626504Y-95556960D01*
X111613928Y-95591694D01*
X111585587Y-95644843D01*
X111556396Y-95684438D01*
X111526452Y-95712906D01*
X111470417Y-95750646D01*
X111430627Y-95768788D01*
X111402582Y-95773750D01*
X111384529Y-95769940D01*
X111374424Y-95759630D01*
X111370632Y-95740887D01*
X111373737Y-95727903D01*
X111383400Y-95717104D01*
X111402145Y-95708024D01*
X111443651Y-95690469D01*
X111478508Y-95667183D01*
X111513990Y-95631964D01*
X111540561Y-95593517D01*
X111559006Y-95551343D01*
X111569555Y-95504655D01*
X111461640Y-95504655D01*
X111425472Y-95500328D01*
X111391723Y-95487389D01*
X111359519Y-95465164D01*
X111334427Y-95438745D01*
X111317373Y-95411393D01*
X111307356Y-95382675D01*
X111303993Y-95351930D01*
X111303993Y-95269336D01*
X111367060Y-95269336D01*
X111367060Y-95341253D01*
X111371087Y-95369472D01*
X111382968Y-95394155D01*
X111403455Y-95416306D01*
X111424072Y-95428950D01*
X111451404Y-95437219D01*
X111487398Y-95440279D01*
X111571302Y-95440279D01*
X111571302Y-95274655D01*
X111568131Y-95245828D01*
X111559076Y-95221597D01*
X111544233Y-95200951D01*
X111522113Y-95182836D01*
X111497402Y-95172167D01*
X111469181Y-95168525D01*
X111444413Y-95171490D01*
X111421235Y-95180367D01*
X111399049Y-95195633D01*
X111381403Y-95215848D01*
X111370778Y-95240007D01*
X111367060Y-95269336D01*
X111303993Y-95269336D01*
X111303993Y-95258223D01*
X111308307Y-95223295D01*
X111321180Y-95191034D01*
X111343310Y-95160523D01*
X111376387Y-95131256D01*
X111403157Y-95116169D01*
X111435420Y-95106664D01*
X111474499Y-95103275D01*
X111505038Y-95106337D01*
G37*
G36*
X115623011Y-89467244D02*
G01*
X115660044Y-89480223D01*
X115696255Y-89502573D01*
X115732195Y-89535765D01*
X115756900Y-89569752D01*
X115771323Y-89605959D01*
X115776171Y-89645427D01*
X115773659Y-89684629D01*
X115766236Y-89721805D01*
X115753945Y-89757311D01*
X115739349Y-89783189D01*
X115718415Y-89806584D01*
X115690165Y-89827739D01*
X115653174Y-89846573D01*
X115769067Y-90074351D01*
X115774300Y-90087715D01*
X115775735Y-90097013D01*
X115771837Y-90116249D01*
X115761446Y-90126835D01*
X115742872Y-90130750D01*
X115732688Y-90128364D01*
X115722914Y-90120635D01*
X115713105Y-90105428D01*
X115588797Y-89862568D01*
X115438255Y-89862568D01*
X115438255Y-90095664D01*
X115434325Y-90115842D01*
X115423994Y-90126769D01*
X115405829Y-90130750D01*
X115388298Y-90126789D01*
X115378200Y-90115792D01*
X115374315Y-90095227D01*
X115374315Y-89797279D01*
X115439605Y-89797279D01*
X115584789Y-89797279D01*
X115614023Y-89792879D01*
X115644465Y-89778941D01*
X115677146Y-89753342D01*
X115696592Y-89728383D01*
X115708738Y-89696903D01*
X115713105Y-89656976D01*
X115708979Y-89627083D01*
X115696368Y-89598204D01*
X115674050Y-89569501D01*
X115644476Y-89544768D01*
X115614890Y-89530937D01*
X115584352Y-89526438D01*
X115439605Y-89526438D01*
X115439605Y-89797279D01*
X115374315Y-89797279D01*
X115374315Y-89497107D01*
X115378356Y-89477752D01*
X115389249Y-89466967D01*
X115408964Y-89462935D01*
X115584352Y-89462935D01*
X115623011Y-89467244D01*
G37*
G36*
X115977992Y-89474484D02*
G01*
X115993921Y-89463615D01*
X116009545Y-89460275D01*
X116028130Y-89464415D01*
X116038772Y-89475850D01*
X116042845Y-89497107D01*
X116042845Y-90090782D01*
X116038828Y-90112793D01*
X116028510Y-90124402D01*
X116010855Y-90128527D01*
X115996353Y-90126092D01*
X115986617Y-90119446D01*
X115980395Y-90108201D01*
X115977992Y-90090346D01*
X115977992Y-89566842D01*
X115900756Y-89644077D01*
X115888217Y-89653368D01*
X115876784Y-89656103D01*
X115857210Y-89652424D01*
X115846763Y-89642877D01*
X115843008Y-89626336D01*
X115846075Y-89612147D01*
X115855907Y-89598355D01*
X115977992Y-89474484D01*
G37*
G36*
X116288523Y-89474484D02*
G01*
X116304451Y-89463615D01*
X116320076Y-89460275D01*
X116338660Y-89464415D01*
X116349302Y-89475850D01*
X116353375Y-89497107D01*
X116353375Y-90090782D01*
X116349358Y-90112793D01*
X116339040Y-90124402D01*
X116321385Y-90128527D01*
X116306884Y-90126092D01*
X116297148Y-90119446D01*
X116290925Y-90108201D01*
X116288523Y-90090346D01*
X116288523Y-89566842D01*
X116211287Y-89644077D01*
X116198748Y-89653368D01*
X116187314Y-89656103D01*
X116167740Y-89652424D01*
X116157293Y-89642877D01*
X116153539Y-89626336D01*
X116156606Y-89612147D01*
X116166438Y-89598355D01*
X116288523Y-89474484D01*
G37*
D14*
%TO.C,C7*%
X119467000Y-90344000D02*
X120817000Y-90344000D01*
X119467000Y-93044000D02*
X119467000Y-90344000D01*
X120817000Y-90344000D02*
X120817000Y-93044000D01*
X120817000Y-93044000D02*
X119467000Y-93044000D01*
%TO.C,C3*%
X111426000Y-92289000D02*
X114126000Y-92289000D01*
X111426000Y-93639000D02*
X111426000Y-92289000D01*
X114126000Y-92289000D02*
X114126000Y-93639000D01*
X114126000Y-93639000D02*
X111426000Y-93639000D01*
%TO.C,U2*%
X108920000Y-99230000D02*
X109520000Y-99230000D01*
X108920000Y-101430000D02*
X108920000Y-99230000D01*
X109520000Y-99230000D02*
X109520000Y-101430000D01*
X109520000Y-101430000D02*
X108920000Y-101430000D01*
X109170000Y-99430000D02*
G75*
G02*
X108970000Y-99430000I-100000J0D01*
G01*
X108970000Y-99430000D02*
G75*
G02*
X109170000Y-99430000I100000J0D01*
G01*
%TO.C,C6*%
X114474000Y-101941000D02*
X117174000Y-101941000D01*
X114474000Y-103291000D02*
X114474000Y-101941000D01*
X117174000Y-101941000D02*
X117174000Y-103291000D01*
X117174000Y-103291000D02*
X114474000Y-103291000D01*
D15*
%TO.C,RV2*%
X112946000Y-97820000D02*
X112946000Y-95220000D01*
X113346000Y-97820000D02*
X112946000Y-97820000D01*
X114846000Y-97820000D02*
X114746000Y-97820000D01*
X115146000Y-95220000D02*
X115146000Y-97820000D01*
X115146000Y-97820000D02*
X114846000Y-97820000D01*
X114470264Y-96520000D02*
G75*
G02*
X113621736Y-96520000I-424264J0D01*
G01*
X113621736Y-96520000D02*
G75*
G02*
X114470264Y-96520000I424264J0D01*
G01*
D14*
%TO.C,R7*%
X111426000Y-90511000D02*
X114126000Y-90511000D01*
X111426000Y-91861000D02*
X111426000Y-90511000D01*
X114126000Y-90511000D02*
X114126000Y-91861000D01*
X114126000Y-91861000D02*
X111426000Y-91861000D01*
%TO.C,U3*%
X117175000Y-95166000D02*
X117775000Y-95166000D01*
X117175000Y-97366000D02*
X117175000Y-95166000D01*
X117775000Y-95166000D02*
X117775000Y-97366000D01*
X117775000Y-97366000D02*
X117175000Y-97366000D01*
X117425000Y-95366000D02*
G75*
G02*
X117225000Y-95366000I-100000J0D01*
G01*
X117225000Y-95366000D02*
G75*
G02*
X117425000Y-95366000I100000J0D01*
G01*
%TO.C,R15*%
X103552000Y-100417000D02*
X106252000Y-100417000D01*
X103552000Y-101767000D02*
X103552000Y-100417000D01*
X106252000Y-100417000D02*
X106252000Y-101767000D01*
X106252000Y-101767000D02*
X103552000Y-101767000D01*
%TO.C,R4*%
X103465000Y-88832000D02*
X104815000Y-88832000D01*
X103465000Y-91532000D02*
X103465000Y-88832000D01*
X104815000Y-88832000D02*
X104815000Y-91532000D01*
X104815000Y-91532000D02*
X103465000Y-91532000D01*
%TO.C,R10*%
X103552000Y-93813000D02*
X106252000Y-93813000D01*
X103552000Y-95163000D02*
X103552000Y-93813000D01*
X106252000Y-93813000D02*
X106252000Y-95163000D01*
X106252000Y-95163000D02*
X103552000Y-95163000D01*
%TO.C,C1*%
X105243000Y-88832000D02*
X106593000Y-88832000D01*
X105243000Y-91532000D02*
X105243000Y-88832000D01*
X106593000Y-88832000D02*
X106593000Y-91532000D01*
X106593000Y-91532000D02*
X105243000Y-91532000D01*
%TO.C,U1*%
X108920000Y-91356000D02*
X109520000Y-91356000D01*
X108920000Y-93556000D02*
X108920000Y-91356000D01*
X109520000Y-91356000D02*
X109520000Y-93556000D01*
X109520000Y-93556000D02*
X108920000Y-93556000D01*
X109170000Y-91556000D02*
G75*
G02*
X108970000Y-91556000I-100000J0D01*
G01*
X108970000Y-91556000D02*
G75*
G02*
X109170000Y-91556000I100000J0D01*
G01*
%TO.C,R6*%
X103465000Y-95678000D02*
X104815000Y-95678000D01*
X103465000Y-98378000D02*
X103465000Y-95678000D01*
X104815000Y-95678000D02*
X104815000Y-98378000D01*
X104815000Y-98378000D02*
X103465000Y-98378000D01*
%TO.C,R1*%
X103552000Y-92035000D02*
X106252000Y-92035000D01*
X103552000Y-93385000D02*
X103552000Y-92035000D01*
X106252000Y-92035000D02*
X106252000Y-93385000D01*
X106252000Y-93385000D02*
X103552000Y-93385000D01*
%TO.C,R13*%
X112950000Y-98385000D02*
X115650000Y-98385000D01*
X112950000Y-99735000D02*
X112950000Y-98385000D01*
X115650000Y-98385000D02*
X115650000Y-99735000D01*
X115650000Y-99735000D02*
X112950000Y-99735000D01*
%TO.C,C5*%
X117689000Y-90356000D02*
X119039000Y-90356000D01*
X117689000Y-93056000D02*
X117689000Y-90356000D01*
X119039000Y-90356000D02*
X119039000Y-93056000D01*
X119039000Y-93056000D02*
X117689000Y-93056000D01*
%TO.C,R9*%
X114462000Y-100163000D02*
X117162000Y-100163000D01*
X114462000Y-101513000D02*
X114462000Y-100163000D01*
X117162000Y-100163000D02*
X117162000Y-101513000D01*
X117162000Y-101513000D02*
X114462000Y-101513000D01*
%TO.C,R3*%
X107108000Y-88733000D02*
X109808000Y-88733000D01*
X107108000Y-90083000D02*
X107108000Y-88733000D01*
X109808000Y-88733000D02*
X109808000Y-90083000D01*
X109808000Y-90083000D02*
X107108000Y-90083000D01*
%TO.C,R8*%
X111426000Y-100163000D02*
X114126000Y-100163000D01*
X111426000Y-101513000D02*
X111426000Y-100163000D01*
X114126000Y-100163000D02*
X114126000Y-101513000D01*
X114126000Y-101513000D02*
X111426000Y-101513000D01*
%TO.C,R12*%
X114524800Y-92238200D02*
X117224800Y-92238200D01*
X114524800Y-93588200D02*
X114524800Y-92238200D01*
X117224800Y-92238200D02*
X117224800Y-93588200D01*
X117224800Y-93588200D02*
X114524800Y-93588200D01*
%TO.C,R2*%
X103552000Y-98639000D02*
X106252000Y-98639000D01*
X103552000Y-99989000D02*
X103552000Y-98639000D01*
X106252000Y-98639000D02*
X106252000Y-99989000D01*
X106252000Y-99989000D02*
X103552000Y-99989000D01*
%TO.C,C4*%
X111426000Y-101941000D02*
X114126000Y-101941000D01*
X111426000Y-103291000D02*
X111426000Y-101941000D01*
X114126000Y-101941000D02*
X114126000Y-103291000D01*
X114126000Y-103291000D02*
X111426000Y-103291000D01*
%TO.C,C2*%
X105243000Y-95678000D02*
X106593000Y-95678000D01*
X105243000Y-98378000D02*
X105243000Y-95678000D01*
X106593000Y-95678000D02*
X106593000Y-98378000D01*
X106593000Y-98378000D02*
X105243000Y-98378000D01*
D15*
%TO.C,J5*%
X120098000Y-93682000D02*
X121158000Y-93682000D01*
X120098000Y-94742000D02*
X120098000Y-93682000D01*
X120098000Y-95742000D02*
X120098000Y-99802000D01*
X120098000Y-95742000D02*
X122218000Y-95742000D01*
X120098000Y-99802000D02*
X122218000Y-99802000D01*
X122218000Y-95742000D02*
X122218000Y-99802000D01*
D14*
%TO.C,R5*%
X107870000Y-96607000D02*
X110570000Y-96607000D01*
X107870000Y-97957000D02*
X107870000Y-96607000D01*
X110570000Y-96607000D02*
X110570000Y-97957000D01*
X110570000Y-97957000D02*
X107870000Y-97957000D01*
%TO.C,C10*%
X103552000Y-102195000D02*
X106252000Y-102195000D01*
X103552000Y-103545000D02*
X103552000Y-102195000D01*
X106252000Y-102195000D02*
X106252000Y-103545000D01*
X106252000Y-103545000D02*
X103552000Y-103545000D01*
%TO.C,C8*%
X117592000Y-100446000D02*
X120792000Y-100446000D01*
X117592000Y-102246000D02*
X117592000Y-100446000D01*
X120792000Y-100446000D02*
X120792000Y-102246000D01*
X120792000Y-102246000D02*
X117592000Y-102246000D01*
%TO.C,C9*%
X107882000Y-94829000D02*
X110582000Y-94829000D01*
X107882000Y-96179000D02*
X107882000Y-94829000D01*
X110582000Y-94829000D02*
X110582000Y-96179000D01*
X110582000Y-96179000D02*
X107882000Y-96179000D01*
%TO.C,R11*%
X114524800Y-90511000D02*
X117224800Y-90511000D01*
X114524800Y-91861000D02*
X114524800Y-90511000D01*
X117224800Y-90511000D02*
X117224800Y-91861000D01*
X117224800Y-91861000D02*
X114524800Y-91861000D01*
%TD*%
M02*
