%TF.GenerationSoftware,KiCad,Pcbnew,7.0.9*%
%TF.CreationDate,2024-01-15T14:46:19+01:00*%
%TF.ProjectId,preamp2,70726561-6d70-4322-9e6b-696361645f70,1*%
%TF.SameCoordinates,Original*%
%TF.FileFunction,Copper,L1,Top*%
%TF.FilePolarity,Positive*%
%FSLAX46Y46*%
G04 Gerber Fmt 4.6, Leading zero omitted, Abs format (unit mm)*
G04 Created by KiCad (PCBNEW 7.0.9) date 2024-01-15 14:46:19*
%MOMM*%
%LPD*%
G01*
G04 APERTURE LIST*
G04 Aperture macros list*
%AMRoundRect*
0 Rectangle with rounded corners*
0 $1 Rounding radius*
0 $2 $3 $4 $5 $6 $7 $8 $9 X,Y pos of 4 corners*
0 Add a 4 corners polygon primitive as box body*
4,1,4,$2,$3,$4,$5,$6,$7,$8,$9,$2,$3,0*
0 Add four circle primitives for the rounded corners*
1,1,$1+$1,$2,$3*
1,1,$1+$1,$4,$5*
1,1,$1+$1,$6,$7*
1,1,$1+$1,$8,$9*
0 Add four rect primitives between the rounded corners*
20,1,$1+$1,$2,$3,$4,$5,0*
20,1,$1+$1,$4,$5,$6,$7,0*
20,1,$1+$1,$6,$7,$8,$9,0*
20,1,$1+$1,$8,$9,$2,$3,0*%
G04 Aperture macros list end*
%TA.AperFunction,SMDPad,CuDef*%
%ADD10R,0.950000X0.800000*%
%TD*%
%TA.AperFunction,SMDPad,CuDef*%
%ADD11R,0.800000X0.950000*%
%TD*%
%TA.AperFunction,SMDPad,CuDef*%
%ADD12R,0.600000X1.200000*%
%TD*%
%TA.AperFunction,SMDPad,CuDef*%
%ADD13R,0.500000X0.500000*%
%TD*%
%TA.AperFunction,SMDPad,CuDef*%
%ADD14RoundRect,0.175000X-0.175000X0.225000X-0.175000X-0.225000X0.175000X-0.225000X0.175000X0.225000X0*%
%TD*%
%TA.AperFunction,SMDPad,CuDef*%
%ADD15RoundRect,0.175000X-0.325000X0.175000X-0.325000X-0.175000X0.325000X-0.175000X0.325000X0.175000X0*%
%TD*%
%TA.AperFunction,SMDPad,CuDef*%
%ADD16R,2.000000X1.350000*%
%TD*%
%TA.AperFunction,ComponentPad*%
%ADD17R,1.350000X1.350000*%
%TD*%
%TA.AperFunction,ComponentPad*%
%ADD18O,1.350000X1.350000*%
%TD*%
%TA.AperFunction,SMDPad,CuDef*%
%ADD19R,1.400000X0.900000*%
%TD*%
%TA.AperFunction,ViaPad*%
%ADD20C,0.800000*%
%TD*%
%TA.AperFunction,Conductor*%
%ADD21C,0.250000*%
%TD*%
G04 APERTURE END LIST*
D10*
%TO.P,C7,1*%
%TO.N,Net-(C6-Pad2)*%
X120142000Y-92444000D03*
%TO.P,C7,2*%
%TO.N,Net-(J5-Pin_1)*%
X120142000Y-90944000D03*
%TD*%
D11*
%TO.P,C3,1*%
%TO.N,Net-(U1--)*%
X112026000Y-92964000D03*
%TO.P,C3,2*%
%TO.N,Net-(C3-Pad2)*%
X113526000Y-92964000D03*
%TD*%
D12*
%TO.P,U2,1*%
%TO.N,Net-(C4-Pad2)*%
X109662000Y-99511000D03*
%TO.P,U2,2,V-*%
%TO.N,GND*%
X108712000Y-99511000D03*
%TO.P,U2,3,+*%
%TO.N,Net-(U2-+)*%
X107762000Y-99511000D03*
%TO.P,U2,4,-*%
%TO.N,Net-(U2--)*%
X107762000Y-101911000D03*
%TO.P,U2,5,V+*%
%TO.N,+9V*%
X109662000Y-101911000D03*
%TD*%
D11*
%TO.P,C6,1*%
%TO.N,Net-(U3--)*%
X115074000Y-101600000D03*
%TO.P,C6,2*%
%TO.N,Net-(C6-Pad2)*%
X116574000Y-101600000D03*
%TD*%
D13*
%TO.P,D2,1,A1*%
%TO.N,GND*%
X101154000Y-97028000D03*
%TO.P,D2,2,A2*%
%TO.N,Net-(D2-A2)*%
X102554000Y-97028000D03*
%TD*%
D14*
%TO.P,RV2,1,1*%
%TO.N,Net-(C3-Pad2)*%
X111598000Y-94682000D03*
D15*
%TO.P,RV2,2,2*%
%TO.N,Net-(U3--)*%
X110998000Y-97282000D03*
D14*
%TO.P,RV2,3,3*%
%TO.N,unconnected-(RV2-Pad3)*%
X110398000Y-94682000D03*
%TD*%
D11*
%TO.P,R7,1*%
%TO.N,Net-(U1--)*%
X112026000Y-91186000D03*
%TO.P,R7,2*%
%TO.N,Net-(C3-Pad2)*%
X113526000Y-91186000D03*
%TD*%
D12*
%TO.P,U3,1*%
%TO.N,Net-(C6-Pad2)*%
X118425000Y-95066000D03*
%TO.P,U3,2,V-*%
%TO.N,GND*%
X117475000Y-95066000D03*
%TO.P,U3,3,+*%
%TO.N,Net-(U3-+)*%
X116525000Y-95066000D03*
%TO.P,U3,4,-*%
%TO.N,Net-(U3--)*%
X116525000Y-97466000D03*
%TO.P,U3,5,V+*%
%TO.N,+9V*%
X118425000Y-97466000D03*
%TD*%
D11*
%TO.P,R4,1*%
%TO.N,Net-(U1-+)*%
X102604000Y-91186000D03*
%TO.P,R4,2*%
%TO.N,GND*%
X101104000Y-91186000D03*
%TD*%
%TO.P,C1,1*%
%TO.N,Net-(U1-+)*%
X102604000Y-92964000D03*
%TO.P,C1,2*%
%TO.N,GND*%
X101104000Y-92964000D03*
%TD*%
D12*
%TO.P,U1,1*%
%TO.N,Net-(C3-Pad2)*%
X109662000Y-90800000D03*
%TO.P,U1,2,V-*%
%TO.N,GND*%
X108712000Y-90800000D03*
%TO.P,U1,3,+*%
%TO.N,Net-(U1-+)*%
X107762000Y-90800000D03*
%TO.P,U1,4,-*%
%TO.N,Net-(U1--)*%
X107762000Y-93200000D03*
%TO.P,U1,5,V+*%
%TO.N,+9V*%
X109662000Y-93200000D03*
%TD*%
D11*
%TO.P,R6,1*%
%TO.N,Net-(U2-+)*%
X102604000Y-99822000D03*
%TO.P,R6,2*%
%TO.N,GND*%
X101104000Y-99822000D03*
%TD*%
%TO.P,R1,1*%
%TO.N,Net-(D1-A2)*%
X104152000Y-92964000D03*
%TO.P,R1,2*%
%TO.N,Net-(U1--)*%
X105652000Y-92964000D03*
%TD*%
%TO.P,R13,1*%
%TO.N,Net-(U3--)*%
X115074000Y-99822000D03*
%TO.P,R13,2*%
%TO.N,Net-(C6-Pad2)*%
X116574000Y-99822000D03*
%TD*%
D10*
%TO.P,C5,1*%
%TO.N,Net-(U3-+)*%
X118364000Y-92444000D03*
%TO.P,C5,2*%
%TO.N,GND*%
X118364000Y-90944000D03*
%TD*%
D11*
%TO.P,R3,1*%
%TO.N,+9V*%
X105652000Y-91186000D03*
%TO.P,R3,2*%
%TO.N,Net-(U1-+)*%
X104152000Y-91186000D03*
%TD*%
%TO.P,R10,1*%
%TO.N,Net-(C4-Pad2)*%
X113423000Y-97155000D03*
%TO.P,R10,2*%
%TO.N,Net-(U3--)*%
X114923000Y-97155000D03*
%TD*%
D13*
%TO.P,D1,1,A1*%
%TO.N,GND*%
X101154000Y-95504000D03*
%TO.P,D1,2,A2*%
%TO.N,Net-(D1-A2)*%
X102554000Y-95504000D03*
%TD*%
D11*
%TO.P,R8,1*%
%TO.N,Net-(U2--)*%
X112026000Y-99822000D03*
%TO.P,R8,2*%
%TO.N,Net-(C4-Pad2)*%
X113526000Y-99822000D03*
%TD*%
D16*
%TO.P,J4,1,Pin_1*%
%TO.N,Net-(D2-A2)*%
X98552000Y-99298000D03*
%TO.P,J4,2,Pin_2*%
%TO.N,GND*%
X98552000Y-97298000D03*
%TD*%
D11*
%TO.P,R12,1*%
%TO.N,Net-(U3-+)*%
X116624800Y-92913200D03*
%TO.P,R12,2*%
%TO.N,GND*%
X115124800Y-92913200D03*
%TD*%
%TO.P,R2,1*%
%TO.N,Net-(D2-A2)*%
X104152000Y-101600000D03*
%TO.P,R2,2*%
%TO.N,Net-(U2--)*%
X105652000Y-101600000D03*
%TD*%
%TO.P,C4,1*%
%TO.N,Net-(U2--)*%
X112026000Y-101600000D03*
%TO.P,C4,2*%
%TO.N,Net-(C4-Pad2)*%
X113526000Y-101600000D03*
%TD*%
%TO.P,C2,1*%
%TO.N,Net-(U2-+)*%
X102604000Y-101600000D03*
%TO.P,C2,2*%
%TO.N,GND*%
X101104000Y-101600000D03*
%TD*%
D17*
%TO.P,J5,1,Pin_1*%
%TO.N,Net-(J5-Pin_1)*%
X121158000Y-94742000D03*
D18*
%TO.P,J5,2,Pin_2*%
%TO.N,+9V*%
X121158000Y-96742000D03*
%TO.P,J5,3,Pin_3*%
%TO.N,GND*%
X121158000Y-98742000D03*
%TD*%
D11*
%TO.P,R5,1*%
%TO.N,+9V*%
X105652000Y-99822000D03*
%TO.P,R5,2*%
%TO.N,Net-(U2-+)*%
X104152000Y-99822000D03*
%TD*%
D19*
%TO.P,C8,1*%
%TO.N,+9V*%
X118618000Y-99634000D03*
%TO.P,C8,2*%
%TO.N,GND*%
X118618000Y-101534000D03*
%TD*%
D16*
%TO.P,J3,1,Pin_1*%
%TO.N,Net-(D1-A2)*%
X98552000Y-93234000D03*
%TO.P,J3,2,Pin_2*%
%TO.N,GND*%
X98552000Y-95234000D03*
%TD*%
D11*
%TO.P,R11,1*%
%TO.N,+9V*%
X115124800Y-91186000D03*
%TO.P,R11,2*%
%TO.N,Net-(U3-+)*%
X116624800Y-91186000D03*
%TD*%
D20*
%TO.N,GND*%
X100330000Y-100838000D03*
X114427000Y-94106998D03*
X106862498Y-91186000D03*
X121412000Y-89916000D03*
X98552000Y-96266000D03*
X99822000Y-90424000D03*
X106862498Y-99822000D03*
%TO.N,Net-(U1--)*%
X108458000Y-93218000D03*
X110744000Y-93218000D03*
%TO.N,Net-(C3-Pad2)*%
X110744000Y-91440000D03*
X113526000Y-92075000D03*
%TO.N,+9V*%
X109855000Y-98044000D03*
X109982000Y-92456000D03*
X118425000Y-98552000D03*
X109855000Y-101092000D03*
X110744000Y-90119200D03*
%TO.N,Net-(U2--)*%
X108458000Y-101981000D03*
X110744000Y-101981000D03*
%TO.N,Net-(C4-Pad2)*%
X113526000Y-100711000D03*
X110744000Y-100203000D03*
%TD*%
D21*
%TO.N,GND*%
X107294000Y-100436000D02*
X106862498Y-100004498D01*
X119392000Y-89916000D02*
X121412000Y-89916000D01*
X121158000Y-98742000D02*
X121158000Y-99314000D01*
X101104000Y-100838000D02*
X100330000Y-100838000D01*
X107188000Y-91725000D02*
X106862498Y-91399498D01*
X108637000Y-100436000D02*
X107294000Y-100436000D01*
X108712000Y-100361000D02*
X108637000Y-100436000D01*
X101104000Y-100838000D02*
X101104000Y-101600000D01*
X118938000Y-101534000D02*
X118618000Y-101534000D01*
X101104000Y-91186000D02*
X100584000Y-91186000D01*
X117475000Y-95916000D02*
X117400000Y-95991000D01*
X100584000Y-91186000D02*
X99822000Y-90424000D01*
X98552000Y-95234000D02*
X98552000Y-96266000D01*
X106862498Y-91399498D02*
X106862498Y-91186000D01*
X117400000Y-95991000D02*
X116057000Y-95991000D01*
X115050998Y-94106998D02*
X114427000Y-94106998D01*
X115648000Y-95582000D02*
X115648000Y-94704000D01*
X101104000Y-91186000D02*
X101104000Y-92964000D01*
X101154000Y-95504000D02*
X101154000Y-97028000D01*
X101154000Y-95504000D02*
X98822000Y-95504000D01*
X108427000Y-91725000D02*
X107188000Y-91725000D01*
X108712000Y-99511000D02*
X108712000Y-100361000D01*
X116057000Y-95991000D02*
X115648000Y-95582000D01*
X98552000Y-97298000D02*
X98552000Y-96266000D01*
X117475000Y-95066000D02*
X117475000Y-95916000D01*
X108712000Y-91440000D02*
X108458000Y-91694000D01*
X115124800Y-92913200D02*
X115124800Y-93409198D01*
X115648000Y-94704000D02*
X115050998Y-94106998D01*
X101104000Y-99822000D02*
X101104000Y-100838000D01*
X108458000Y-91694000D02*
X108427000Y-91725000D01*
X98822000Y-95504000D02*
X98552000Y-95234000D01*
X115124800Y-93409198D02*
X114427000Y-94106998D01*
X121158000Y-99314000D02*
X118938000Y-101534000D01*
X108712000Y-90800000D02*
X108712000Y-91440000D01*
X106862498Y-100004498D02*
X106862498Y-99822000D01*
X118364000Y-90944000D02*
X119392000Y-89916000D01*
%TO.N,Net-(U1-+)*%
X102604000Y-91186000D02*
X102604000Y-92964000D01*
X105168000Y-90170000D02*
X104152000Y-91186000D01*
X104152000Y-91186000D02*
X102604000Y-91186000D01*
X107132000Y-90170000D02*
X105168000Y-90170000D01*
X107762000Y-90800000D02*
X107132000Y-90170000D01*
%TO.N,Net-(U2-+)*%
X102604000Y-99822000D02*
X102604000Y-101600000D01*
X107184000Y-98933000D02*
X105041000Y-98933000D01*
X105041000Y-98933000D02*
X104152000Y-99822000D01*
X107762000Y-99511000D02*
X107184000Y-98933000D01*
X104152000Y-99822000D02*
X102604000Y-99822000D01*
%TO.N,Net-(U1--)*%
X107762000Y-93200000D02*
X108440000Y-93200000D01*
X105888000Y-93200000D02*
X105652000Y-92964000D01*
X112026000Y-93000000D02*
X110962000Y-93000000D01*
X112026000Y-91186000D02*
X112026000Y-93000000D01*
X108440000Y-93200000D02*
X108458000Y-93218000D01*
X110962000Y-93000000D02*
X110744000Y-93218000D01*
X107762000Y-93200000D02*
X105888000Y-93200000D01*
%TO.N,Net-(C3-Pad2)*%
X110104000Y-90800000D02*
X110744000Y-91440000D01*
X109662000Y-90800000D02*
X110104000Y-90800000D01*
X113526000Y-92964000D02*
X111808000Y-94682000D01*
X111808000Y-94682000D02*
X111598000Y-94682000D01*
X113526000Y-91186000D02*
X113526000Y-93000000D01*
%TO.N,Net-(D1-A2)*%
X102554000Y-95504000D02*
X102554000Y-94426000D01*
X104152000Y-92964000D02*
X102882000Y-94234000D01*
X102554000Y-94426000D02*
X102362000Y-94234000D01*
X99552000Y-94234000D02*
X98552000Y-93234000D01*
X102882000Y-94234000D02*
X102362000Y-94234000D01*
X102362000Y-94234000D02*
X99552000Y-94234000D01*
%TO.N,+9V*%
X109662000Y-93200000D02*
X109982000Y-92880000D01*
X109982000Y-92880000D02*
X109982000Y-92456000D01*
X109662000Y-93200000D02*
X109662000Y-97851000D01*
X120872000Y-97028000D02*
X118863000Y-97028000D01*
X108664000Y-92202000D02*
X106766000Y-92202000D01*
X118618000Y-99634000D02*
X118618000Y-98745000D01*
X108637000Y-100886000D02*
X107107604Y-100886000D01*
X118863000Y-97028000D02*
X118425000Y-97466000D01*
X109662000Y-101911000D02*
X108637000Y-100886000D01*
X109662000Y-93200000D02*
X108664000Y-92202000D01*
X114058000Y-90119200D02*
X110744000Y-90119200D01*
X106818604Y-100597000D02*
X106427000Y-100597000D01*
X109662000Y-101911000D02*
X109662000Y-101285000D01*
X115124800Y-91186000D02*
X114058000Y-90119200D01*
X106766000Y-92202000D02*
X105750000Y-91186000D01*
X107107604Y-100886000D02*
X106818604Y-100597000D01*
X109662000Y-101285000D02*
X109855000Y-101092000D01*
X118425000Y-97466000D02*
X118425000Y-98552000D01*
X106427000Y-100597000D02*
X105652000Y-99822000D01*
X118618000Y-98745000D02*
X118425000Y-98552000D01*
X109662000Y-97851000D02*
X109855000Y-98044000D01*
X121158000Y-96742000D02*
X120872000Y-97028000D01*
%TO.N,Net-(U2--)*%
X105963000Y-101911000D02*
X105652000Y-101600000D01*
X107762000Y-101911000D02*
X105963000Y-101911000D01*
X110744000Y-101981000D02*
X111645000Y-101981000D01*
X111645000Y-101981000D02*
X112026000Y-101600000D01*
X108388000Y-101911000D02*
X108458000Y-101981000D01*
X112026000Y-99822000D02*
X112026000Y-101600000D01*
X107762000Y-101911000D02*
X108388000Y-101911000D01*
%TO.N,Net-(C4-Pad2)*%
X113526000Y-99822000D02*
X113526000Y-100711000D01*
X110052000Y-99511000D02*
X110744000Y-100203000D01*
X113526000Y-97258000D02*
X113423000Y-97155000D01*
X113526000Y-99822000D02*
X113526000Y-97258000D01*
X113526000Y-100711000D02*
X113526000Y-101600000D01*
X109662000Y-99511000D02*
X110052000Y-99511000D01*
%TO.N,Net-(U3-+)*%
X116624800Y-92913200D02*
X116624800Y-94966200D01*
X116624800Y-94966200D02*
X116525000Y-95066000D01*
X117894800Y-92913200D02*
X118364000Y-92444000D01*
X116624800Y-92913200D02*
X117894800Y-92913200D01*
X116624800Y-91186000D02*
X116624800Y-92913200D01*
%TO.N,Net-(C6-Pad2)*%
X118425000Y-95066000D02*
X118425000Y-95916000D01*
X117602000Y-96739000D02*
X117602000Y-98794000D01*
X117602000Y-98794000D02*
X116574000Y-99822000D01*
X118425000Y-95916000D02*
X117602000Y-96739000D01*
X116574000Y-101600000D02*
X116574000Y-99822000D01*
X118425000Y-94681000D02*
X118425000Y-95066000D01*
X120142000Y-92444000D02*
X120142000Y-92964000D01*
X120142000Y-92964000D02*
X118425000Y-94681000D01*
%TO.N,Net-(U3--)*%
X115234000Y-97466000D02*
X114923000Y-97155000D01*
X114923000Y-97155000D02*
X114923000Y-96635000D01*
X112268000Y-96012000D02*
X110998000Y-97282000D01*
X115074000Y-99822000D02*
X115074000Y-97306000D01*
X114300000Y-96012000D02*
X112268000Y-96012000D01*
X115074000Y-101600000D02*
X115074000Y-99822000D01*
X115074000Y-97306000D02*
X114923000Y-97155000D01*
X114923000Y-96635000D02*
X114300000Y-96012000D01*
X116525000Y-97466000D02*
X115234000Y-97466000D01*
%TO.N,Net-(D2-A2)*%
X99822000Y-102616000D02*
X98552000Y-101346000D01*
X98552000Y-101346000D02*
X98552000Y-99298000D01*
X102554000Y-97028000D02*
X100776000Y-98806000D01*
X100776000Y-98806000D02*
X99044000Y-98806000D01*
X99044000Y-98806000D02*
X98552000Y-99298000D01*
X104152000Y-101600000D02*
X103136000Y-102616000D01*
X103136000Y-102616000D02*
X99822000Y-102616000D01*
%TO.N,Net-(J5-Pin_1)*%
X120142000Y-90944000D02*
X120408000Y-90944000D01*
X121158000Y-91694000D02*
X121158000Y-94742000D01*
X120408000Y-90944000D02*
X121158000Y-91694000D01*
%TD*%
%TA.AperFunction,Conductor*%
%TO.N,GND*%
G36*
X122943039Y-89519685D02*
G01*
X122988794Y-89572489D01*
X123000000Y-89624000D01*
X123000000Y-102376000D01*
X122980315Y-102443039D01*
X122927511Y-102488794D01*
X122876000Y-102500000D01*
X119804025Y-102500000D01*
X119736986Y-102480315D01*
X119691231Y-102427511D01*
X119681287Y-102358353D01*
X119704759Y-102301688D01*
X119761352Y-102226089D01*
X119761354Y-102226086D01*
X119811596Y-102091379D01*
X119811598Y-102091372D01*
X119817999Y-102031844D01*
X119818000Y-102031827D01*
X119818000Y-101036172D01*
X119817999Y-101036155D01*
X119811598Y-100976627D01*
X119811597Y-100976623D01*
X119761351Y-100841908D01*
X119719520Y-100786030D01*
X118705680Y-101799871D01*
X118644357Y-101833356D01*
X118574665Y-101828372D01*
X118530318Y-101799871D01*
X117516477Y-100786030D01*
X117487917Y-100788073D01*
X117419645Y-100773221D01*
X117370239Y-100723815D01*
X117355388Y-100655542D01*
X117379803Y-100590082D01*
X117417796Y-100539331D01*
X117419554Y-100534615D01*
X117461419Y-100478680D01*
X117526881Y-100454257D01*
X117595155Y-100469102D01*
X117610047Y-100478671D01*
X117675665Y-100527793D01*
X117675668Y-100527795D01*
X117675671Y-100527797D01*
X117720618Y-100544561D01*
X117810517Y-100578091D01*
X117870127Y-100584500D01*
X117970693Y-100584499D01*
X118037729Y-100604183D01*
X118058372Y-100620818D01*
X118618000Y-101180446D01*
X118618001Y-101180446D01*
X119177627Y-100620818D01*
X119238950Y-100587333D01*
X119265307Y-100584499D01*
X119365872Y-100584499D01*
X119425483Y-100578091D01*
X119560331Y-100527796D01*
X119675546Y-100441546D01*
X119761796Y-100326331D01*
X119812091Y-100191483D01*
X119818500Y-100131873D01*
X119818499Y-99214295D01*
X119838183Y-99147257D01*
X119890987Y-99101502D01*
X119960146Y-99091558D01*
X120023702Y-99120583D01*
X120054023Y-99163678D01*
X120055095Y-99163145D01*
X120154715Y-99363208D01*
X120285945Y-99536985D01*
X120446868Y-99683685D01*
X120632012Y-99798322D01*
X120632023Y-99798327D01*
X120835060Y-99876984D01*
X120908000Y-99890619D01*
X120908000Y-99057686D01*
X120919955Y-99069641D01*
X121032852Y-99127165D01*
X121126519Y-99142000D01*
X121189481Y-99142000D01*
X121283148Y-99127165D01*
X121396045Y-99069641D01*
X121408000Y-99057686D01*
X121408000Y-99890619D01*
X121480939Y-99876984D01*
X121683976Y-99798327D01*
X121683987Y-99798322D01*
X121869130Y-99683685D01*
X121869131Y-99683685D01*
X122030054Y-99536985D01*
X122161284Y-99363208D01*
X122258348Y-99168280D01*
X122308505Y-98992000D01*
X121473686Y-98992000D01*
X121485641Y-98980045D01*
X121543165Y-98867148D01*
X121562986Y-98742000D01*
X121543165Y-98616852D01*
X121485641Y-98503955D01*
X121473686Y-98492000D01*
X122308505Y-98492000D01*
X122308505Y-98491999D01*
X122258348Y-98315719D01*
X122161284Y-98120791D01*
X122030056Y-97947017D01*
X121906055Y-97833976D01*
X121869774Y-97774265D01*
X121871534Y-97704417D01*
X121906052Y-97650704D01*
X122030427Y-97537322D01*
X122161712Y-97363472D01*
X122258817Y-97168459D01*
X122318435Y-96958923D01*
X122338536Y-96742000D01*
X122318435Y-96525077D01*
X122258817Y-96315541D01*
X122161712Y-96120528D01*
X122080251Y-96012656D01*
X122055560Y-95947297D01*
X122070125Y-95878962D01*
X122104895Y-95838665D01*
X122164317Y-95794181D01*
X122190546Y-95774546D01*
X122276796Y-95659331D01*
X122327091Y-95524483D01*
X122333500Y-95464873D01*
X122333499Y-94019128D01*
X122327091Y-93959517D01*
X122326104Y-93956872D01*
X122276797Y-93824671D01*
X122276793Y-93824664D01*
X122190547Y-93709455D01*
X122190544Y-93709452D01*
X122075335Y-93623206D01*
X122075328Y-93623202D01*
X121940483Y-93572908D01*
X121894243Y-93567937D01*
X121829693Y-93541199D01*
X121789845Y-93483806D01*
X121783500Y-93444648D01*
X121783500Y-91776738D01*
X121785224Y-91761124D01*
X121784938Y-91761097D01*
X121785672Y-91753334D01*
X121783500Y-91684203D01*
X121783500Y-91654651D01*
X121783500Y-91654650D01*
X121782629Y-91647759D01*
X121782172Y-91641945D01*
X121780709Y-91595372D01*
X121775122Y-91576144D01*
X121771174Y-91557084D01*
X121770268Y-91549909D01*
X121768664Y-91537208D01*
X121751507Y-91493875D01*
X121749619Y-91488359D01*
X121736619Y-91443612D01*
X121726418Y-91426363D01*
X121717860Y-91408894D01*
X121710486Y-91390268D01*
X121710483Y-91390264D01*
X121710483Y-91390263D01*
X121683098Y-91352571D01*
X121679890Y-91347687D01*
X121656172Y-91307582D01*
X121656163Y-91307571D01*
X121642005Y-91293413D01*
X121629370Y-91278620D01*
X121617593Y-91262412D01*
X121581693Y-91232713D01*
X121577381Y-91228790D01*
X121153818Y-90805227D01*
X121120333Y-90743904D01*
X121117499Y-90717546D01*
X121117499Y-90496129D01*
X121117498Y-90496123D01*
X121111091Y-90436516D01*
X121060797Y-90301671D01*
X121060793Y-90301664D01*
X120974547Y-90186455D01*
X120974544Y-90186452D01*
X120859335Y-90100206D01*
X120859328Y-90100202D01*
X120724482Y-90049908D01*
X120724483Y-90049908D01*
X120664883Y-90043501D01*
X120664881Y-90043500D01*
X120664873Y-90043500D01*
X120664864Y-90043500D01*
X119619129Y-90043500D01*
X119619123Y-90043501D01*
X119559516Y-90049908D01*
X119424671Y-90100202D01*
X119424664Y-90100206D01*
X119309455Y-90186452D01*
X119309452Y-90186455D01*
X119223206Y-90301664D01*
X119223202Y-90301671D01*
X119172910Y-90436512D01*
X119172908Y-90436517D01*
X119171305Y-90451432D01*
X119144565Y-90515982D01*
X119135697Y-90525854D01*
X118451680Y-91209871D01*
X118390357Y-91243356D01*
X118320665Y-91238372D01*
X118276318Y-91209871D01*
X117416097Y-90349649D01*
X117382429Y-90347242D01*
X117351453Y-90330328D01*
X117267131Y-90267204D01*
X117267128Y-90267202D01*
X117132282Y-90216908D01*
X117132283Y-90216908D01*
X117072683Y-90210501D01*
X117072681Y-90210500D01*
X117072673Y-90210500D01*
X117072664Y-90210500D01*
X116176929Y-90210500D01*
X116176923Y-90210501D01*
X116117316Y-90216908D01*
X115982471Y-90267202D01*
X115982469Y-90267203D01*
X115949110Y-90292176D01*
X115883645Y-90316592D01*
X115815372Y-90301740D01*
X115800490Y-90292176D01*
X115767130Y-90267203D01*
X115767128Y-90267202D01*
X115632282Y-90216908D01*
X115632283Y-90216908D01*
X115572683Y-90210501D01*
X115572681Y-90210500D01*
X115572673Y-90210500D01*
X115572665Y-90210500D01*
X115085253Y-90210500D01*
X115018214Y-90190815D01*
X114997572Y-90174181D01*
X114869683Y-90046292D01*
X117819846Y-90046292D01*
X118364000Y-90590446D01*
X118364001Y-90590446D01*
X118908153Y-90046292D01*
X118908152Y-90046291D01*
X118886836Y-90044000D01*
X117841163Y-90044000D01*
X117819846Y-90046291D01*
X117819846Y-90046292D01*
X114869683Y-90046292D01*
X114558803Y-89735412D01*
X114548980Y-89723150D01*
X114548759Y-89723334D01*
X114543787Y-89717323D01*
X114540666Y-89714393D01*
X114538958Y-89711486D01*
X114538813Y-89711311D01*
X114538841Y-89711287D01*
X114505271Y-89654152D01*
X114508063Y-89584339D01*
X114548156Y-89527117D01*
X114612821Y-89500655D01*
X114625549Y-89500000D01*
X122876000Y-89500000D01*
X122943039Y-89519685D01*
G37*
%TD.AperFunction*%
%TA.AperFunction,Conductor*%
G36*
X101147332Y-99527626D02*
G01*
X101191680Y-99556127D01*
X101369872Y-99734319D01*
X101403357Y-99795642D01*
X101398373Y-99865334D01*
X101369872Y-99909681D01*
X100568553Y-100711000D01*
X101369872Y-101512319D01*
X101403357Y-101573642D01*
X101398373Y-101643334D01*
X101369872Y-101687681D01*
X101191681Y-101865872D01*
X101130358Y-101899357D01*
X101060666Y-101894373D01*
X101016319Y-101865872D01*
X100206292Y-101055845D01*
X100206291Y-101055845D01*
X100204000Y-101077161D01*
X100204000Y-101814047D01*
X100184315Y-101881086D01*
X100131511Y-101926841D01*
X100062353Y-101936785D01*
X99998797Y-101907760D01*
X99992319Y-101901728D01*
X99213819Y-101123228D01*
X99180334Y-101061905D01*
X99177500Y-101035547D01*
X99177500Y-100597499D01*
X99197185Y-100530460D01*
X99249989Y-100484705D01*
X99301500Y-100473499D01*
X99599871Y-100473499D01*
X99599872Y-100473499D01*
X99659483Y-100467091D01*
X99794331Y-100416796D01*
X99909546Y-100330546D01*
X99980733Y-100235451D01*
X100036667Y-100193581D01*
X100106359Y-100188597D01*
X100167682Y-100222082D01*
X100201166Y-100283406D01*
X100204000Y-100309763D01*
X100204000Y-100344836D01*
X100206291Y-100366153D01*
X101016318Y-99556127D01*
X101077641Y-99522642D01*
X101147332Y-99527626D01*
G37*
%TD.AperFunction*%
%TA.AperFunction,Conductor*%
G36*
X106904539Y-99578185D02*
G01*
X106950294Y-99630989D01*
X106961500Y-99682500D01*
X106961500Y-99842750D01*
X106941815Y-99909789D01*
X106889011Y-99955544D01*
X106845993Y-99964197D01*
X106846174Y-99966106D01*
X106838408Y-99966840D01*
X106798340Y-99970627D01*
X106792020Y-99971225D01*
X106786182Y-99971500D01*
X106737453Y-99971500D01*
X106670414Y-99951815D01*
X106649772Y-99935181D01*
X106588818Y-99874227D01*
X106555333Y-99812904D01*
X106552499Y-99786546D01*
X106552499Y-99682500D01*
X106572184Y-99615461D01*
X106624988Y-99569706D01*
X106676499Y-99558500D01*
X106837500Y-99558500D01*
X106904539Y-99578185D01*
G37*
%TD.AperFunction*%
%TA.AperFunction,Conductor*%
G36*
X120354875Y-97673185D02*
G01*
X120400630Y-97725989D01*
X120410574Y-97795147D01*
X120381549Y-97858703D01*
X120371374Y-97869138D01*
X120285943Y-97947017D01*
X120154715Y-98120791D01*
X120057651Y-98315719D01*
X120007494Y-98491999D01*
X120007495Y-98492000D01*
X120842314Y-98492000D01*
X120830359Y-98503955D01*
X120772835Y-98616852D01*
X120753014Y-98742000D01*
X120772835Y-98867148D01*
X120830359Y-98980045D01*
X120842314Y-98992000D01*
X120007494Y-98992000D01*
X119991764Y-99012830D01*
X119935655Y-99054466D01*
X119865943Y-99059157D01*
X119804761Y-99025415D01*
X119776628Y-98981435D01*
X119761798Y-98941673D01*
X119761793Y-98941664D01*
X119675547Y-98826455D01*
X119675544Y-98826452D01*
X119560335Y-98740206D01*
X119560328Y-98740202D01*
X119425479Y-98689907D01*
X119424830Y-98689754D01*
X119424378Y-98689496D01*
X119418215Y-98687198D01*
X119418587Y-98686199D01*
X119364114Y-98655180D01*
X119331729Y-98593268D01*
X119330027Y-98556115D01*
X119330460Y-98552000D01*
X119310674Y-98363744D01*
X119252179Y-98183716D01*
X119242112Y-98166279D01*
X119225500Y-98104280D01*
X119225500Y-97777500D01*
X119245185Y-97710461D01*
X119297989Y-97664706D01*
X119349500Y-97653500D01*
X120287836Y-97653500D01*
X120354875Y-97673185D01*
G37*
%TD.AperFunction*%
%TA.AperFunction,Conductor*%
G36*
X100405938Y-94879185D02*
G01*
X100451693Y-94931989D01*
X100461637Y-95001147D01*
X100455081Y-95026833D01*
X100410403Y-95146620D01*
X100410401Y-95146627D01*
X100404000Y-95206155D01*
X100404000Y-95801844D01*
X100410401Y-95861373D01*
X100419276Y-95885170D01*
X101066319Y-95238128D01*
X101127642Y-95204643D01*
X101197334Y-95209627D01*
X101241681Y-95238128D01*
X101772335Y-95768782D01*
X101805820Y-95830105D01*
X101807943Y-95843207D01*
X101809907Y-95861480D01*
X101860202Y-95996328D01*
X101860206Y-95996335D01*
X101946452Y-96111544D01*
X101946453Y-96111544D01*
X101946454Y-96111546D01*
X101969354Y-96128689D01*
X102020175Y-96166734D01*
X102062045Y-96222668D01*
X102067029Y-96292360D01*
X102033543Y-96353682D01*
X102020175Y-96365266D01*
X101946452Y-96420455D01*
X101860206Y-96535664D01*
X101860202Y-96535671D01*
X101809908Y-96670516D01*
X101807944Y-96688791D01*
X101781206Y-96753342D01*
X101772336Y-96763216D01*
X101154000Y-97381553D01*
X100772829Y-97762722D01*
X100787222Y-97828884D01*
X100783939Y-97829598D01*
X100790285Y-97846620D01*
X100775423Y-97914890D01*
X100754281Y-97943127D01*
X100553228Y-98144181D01*
X100491905Y-98177666D01*
X100465547Y-98180500D01*
X100172880Y-98180500D01*
X100105841Y-98160815D01*
X100060086Y-98108011D01*
X100049590Y-98043245D01*
X100051999Y-98020828D01*
X100052000Y-98020827D01*
X100052000Y-97548000D01*
X98426000Y-97548000D01*
X98358961Y-97528315D01*
X98313206Y-97475511D01*
X98302000Y-97424000D01*
X98302000Y-97325844D01*
X100404000Y-97325844D01*
X100410401Y-97385373D01*
X100419276Y-97409170D01*
X100800447Y-97028000D01*
X100800447Y-97027999D01*
X100419277Y-96646829D01*
X100419274Y-96646829D01*
X100410404Y-96670615D01*
X100410401Y-96670625D01*
X100404000Y-96730157D01*
X100404000Y-97325844D01*
X98302000Y-97325844D01*
X98302000Y-95484000D01*
X98802000Y-95484000D01*
X98802000Y-97048000D01*
X100052000Y-97048000D01*
X100052000Y-96575172D01*
X100051999Y-96575155D01*
X100045598Y-96515627D01*
X100045597Y-96515623D01*
X99995352Y-96380911D01*
X99995351Y-96380910D01*
X99964959Y-96340312D01*
X99947415Y-96293276D01*
X100772828Y-96293276D01*
X101154000Y-96674447D01*
X101154001Y-96674447D01*
X101535169Y-96293277D01*
X101534970Y-96292360D01*
X101534970Y-96239640D01*
X101535169Y-96238721D01*
X101154001Y-95857553D01*
X101154000Y-95857553D01*
X100772828Y-96238723D01*
X100773028Y-96239642D01*
X100773028Y-96292358D01*
X100772828Y-96293276D01*
X99947415Y-96293276D01*
X99940541Y-96274848D01*
X99955392Y-96206575D01*
X99964959Y-96191688D01*
X99995351Y-96151089D01*
X99995352Y-96151088D01*
X100045597Y-96016376D01*
X100045598Y-96016372D01*
X100051999Y-95956844D01*
X100052000Y-95956827D01*
X100052000Y-95484000D01*
X98802000Y-95484000D01*
X98302000Y-95484000D01*
X98302000Y-95108000D01*
X98321685Y-95040961D01*
X98374489Y-94995206D01*
X98426000Y-94984000D01*
X100052000Y-94984000D01*
X100052000Y-94983500D01*
X100071685Y-94916461D01*
X100124489Y-94870706D01*
X100176000Y-94859500D01*
X100338899Y-94859500D01*
X100405938Y-94879185D01*
G37*
%TD.AperFunction*%
%TA.AperFunction,Conductor*%
G36*
X114419173Y-93785565D02*
G01*
X114434058Y-93795132D01*
X114482706Y-93831550D01*
X114482713Y-93831554D01*
X114617420Y-93881796D01*
X114617427Y-93881798D01*
X114676955Y-93888199D01*
X114676972Y-93888200D01*
X115572628Y-93888200D01*
X115572644Y-93888199D01*
X115632172Y-93881798D01*
X115632176Y-93881797D01*
X115766889Y-93831552D01*
X115800068Y-93806713D01*
X115865532Y-93782294D01*
X115933805Y-93797144D01*
X115948678Y-93806700D01*
X115949596Y-93807387D01*
X115991476Y-93863315D01*
X115999300Y-93906665D01*
X115999300Y-93947684D01*
X115979615Y-94014723D01*
X115949612Y-94046950D01*
X115867452Y-94108455D01*
X115781206Y-94223664D01*
X115781202Y-94223671D01*
X115730908Y-94358517D01*
X115724501Y-94418116D01*
X115724500Y-94418135D01*
X115724500Y-95713870D01*
X115724501Y-95713876D01*
X115730908Y-95773483D01*
X115781202Y-95908328D01*
X115781206Y-95908335D01*
X115867452Y-96023544D01*
X115867455Y-96023547D01*
X115982664Y-96109793D01*
X115982671Y-96109797D01*
X116089972Y-96149818D01*
X116145906Y-96191689D01*
X116170323Y-96257154D01*
X116155471Y-96325427D01*
X116106066Y-96374832D01*
X116089972Y-96382182D01*
X115982671Y-96422202D01*
X115982665Y-96422206D01*
X115936170Y-96457012D01*
X115870706Y-96481429D01*
X115802433Y-96466577D01*
X115762596Y-96432058D01*
X115680546Y-96322454D01*
X115680544Y-96322452D01*
X115680543Y-96322451D01*
X115565335Y-96236206D01*
X115565328Y-96236202D01*
X115430482Y-96185908D01*
X115430483Y-96185908D01*
X115393320Y-96181913D01*
X115328769Y-96155175D01*
X115318895Y-96146305D01*
X115067187Y-95894597D01*
X114800803Y-95628212D01*
X114790980Y-95615950D01*
X114790759Y-95616134D01*
X114785786Y-95610123D01*
X114768304Y-95593706D01*
X114735364Y-95562773D01*
X114724919Y-95552328D01*
X114714475Y-95541883D01*
X114708986Y-95537625D01*
X114704561Y-95533847D01*
X114670582Y-95501938D01*
X114670580Y-95501936D01*
X114670577Y-95501935D01*
X114653029Y-95492288D01*
X114636763Y-95481604D01*
X114620936Y-95469327D01*
X114620935Y-95469326D01*
X114620933Y-95469325D01*
X114578168Y-95450818D01*
X114572922Y-95448248D01*
X114532093Y-95425803D01*
X114532092Y-95425802D01*
X114512693Y-95420822D01*
X114494281Y-95414518D01*
X114475898Y-95406562D01*
X114475892Y-95406560D01*
X114429874Y-95399272D01*
X114424152Y-95398087D01*
X114379021Y-95386500D01*
X114379019Y-95386500D01*
X114358984Y-95386500D01*
X114339586Y-95384973D01*
X114332162Y-95383797D01*
X114319805Y-95381840D01*
X114319804Y-95381840D01*
X114273416Y-95386225D01*
X114267578Y-95386500D01*
X112492326Y-95386500D01*
X112425287Y-95366815D01*
X112379532Y-95314011D01*
X112369588Y-95244853D01*
X112386209Y-95198350D01*
X112393512Y-95186270D01*
X112442315Y-95029657D01*
X112447985Y-94967251D01*
X112473655Y-94902271D01*
X112483787Y-94890802D01*
X113398772Y-93975818D01*
X113460095Y-93942333D01*
X113486453Y-93939499D01*
X113973871Y-93939499D01*
X113973872Y-93939499D01*
X114033483Y-93933091D01*
X114168331Y-93882796D01*
X114283546Y-93796546D01*
X114283546Y-93796545D01*
X114285436Y-93795131D01*
X114350900Y-93770714D01*
X114419173Y-93785565D01*
G37*
%TD.AperFunction*%
%TA.AperFunction,Conductor*%
G36*
X104714323Y-89519685D02*
G01*
X104760078Y-89572489D01*
X104770022Y-89641647D01*
X104741370Y-89704384D01*
X104741385Y-89704396D01*
X104741341Y-89704448D01*
X104740997Y-89705203D01*
X104738984Y-89707297D01*
X104706710Y-89746309D01*
X104702777Y-89750631D01*
X104279227Y-90174181D01*
X104217904Y-90207666D01*
X104191546Y-90210500D01*
X103704129Y-90210500D01*
X103704123Y-90210501D01*
X103644516Y-90216908D01*
X103509671Y-90267202D01*
X103509668Y-90267204D01*
X103452311Y-90310142D01*
X103386846Y-90334559D01*
X103318573Y-90319707D01*
X103303689Y-90310142D01*
X103246331Y-90267204D01*
X103246328Y-90267202D01*
X103111482Y-90216908D01*
X103111483Y-90216908D01*
X103051883Y-90210501D01*
X103051881Y-90210500D01*
X103051873Y-90210500D01*
X103051864Y-90210500D01*
X102156129Y-90210500D01*
X102156123Y-90210501D01*
X102096516Y-90216908D01*
X101961671Y-90267202D01*
X101961665Y-90267205D01*
X101927892Y-90292488D01*
X101862428Y-90316904D01*
X101794155Y-90302052D01*
X101779273Y-90292488D01*
X101746088Y-90267646D01*
X101746086Y-90267645D01*
X101611379Y-90217403D01*
X101611372Y-90217401D01*
X101551844Y-90211000D01*
X100656155Y-90211000D01*
X100596624Y-90217401D01*
X100596622Y-90217402D01*
X100518204Y-90246649D01*
X100518203Y-90246650D01*
X101369872Y-91098319D01*
X101403357Y-91159642D01*
X101398373Y-91229334D01*
X101369872Y-91273681D01*
X100568553Y-92075000D01*
X101369872Y-92876319D01*
X101403357Y-92937642D01*
X101398373Y-93007334D01*
X101369872Y-93051681D01*
X101191681Y-93229872D01*
X101130358Y-93263357D01*
X101060666Y-93258373D01*
X101016319Y-93229872D01*
X100206291Y-92419844D01*
X100169149Y-92432948D01*
X100099380Y-92436689D01*
X100038664Y-92402115D01*
X100011713Y-92359344D01*
X99995798Y-92316673D01*
X99995793Y-92316664D01*
X99909547Y-92201455D01*
X99909544Y-92201452D01*
X99794335Y-92115206D01*
X99794328Y-92115202D01*
X99659482Y-92064908D01*
X99659483Y-92064908D01*
X99599883Y-92058501D01*
X99599881Y-92058500D01*
X99599873Y-92058500D01*
X99599865Y-92058500D01*
X97624000Y-92058500D01*
X97556961Y-92038815D01*
X97511206Y-91986011D01*
X97500000Y-91934500D01*
X97500000Y-91708836D01*
X100204000Y-91708836D01*
X100206291Y-91730153D01*
X100206292Y-91730154D01*
X100750447Y-91186000D01*
X100206292Y-90641845D01*
X100206291Y-90641845D01*
X100204000Y-90663161D01*
X100204000Y-91708836D01*
X97500000Y-91708836D01*
X97500000Y-89624000D01*
X97519685Y-89556961D01*
X97572489Y-89511206D01*
X97624000Y-89500000D01*
X104647284Y-89500000D01*
X104714323Y-89519685D01*
G37*
%TD.AperFunction*%
%TA.AperFunction,Conductor*%
G36*
X106888587Y-90815185D02*
G01*
X106909229Y-90831819D01*
X106925181Y-90847771D01*
X106958666Y-90909094D01*
X106961500Y-90935452D01*
X106961500Y-91213548D01*
X106941815Y-91280587D01*
X106889011Y-91326342D01*
X106819853Y-91336286D01*
X106756297Y-91307261D01*
X106749840Y-91301249D01*
X106588815Y-91140224D01*
X106555333Y-91078904D01*
X106552499Y-91052546D01*
X106552499Y-90919500D01*
X106572184Y-90852461D01*
X106624988Y-90806706D01*
X106676499Y-90795500D01*
X106821548Y-90795500D01*
X106888587Y-90815185D01*
G37*
%TD.AperFunction*%
%TD*%
M02*
