%TF.GenerationSoftware,KiCad,Pcbnew,7.0.9*%
%TF.CreationDate,2023-12-24T21:58:01+01:00*%
%TF.ProjectId,preamp2,70726561-6d70-4322-9e6b-696361645f70,rev?*%
%TF.SameCoordinates,Original*%
%TF.FileFunction,Copper,L2,Bot*%
%TF.FilePolarity,Positive*%
%FSLAX46Y46*%
G04 Gerber Fmt 4.6, Leading zero omitted, Abs format (unit mm)*
G04 Created by KiCad (PCBNEW 7.0.9) date 2023-12-24 21:58:01*
%MOMM*%
%LPD*%
G01*
G04 APERTURE LIST*
%ADD10C,0.300000*%
%TA.AperFunction,NonConductor*%
%ADD11C,0.300000*%
%TD*%
%TA.AperFunction,NonConductor*%
%ADD12C,0.200000*%
%TD*%
%TA.AperFunction,ComponentPad*%
%ADD13R,1.350000X1.350000*%
%TD*%
%TA.AperFunction,ComponentPad*%
%ADD14O,1.350000X1.350000*%
%TD*%
%TA.AperFunction,ViaPad*%
%ADD15C,0.800000*%
%TD*%
%TA.AperFunction,Conductor*%
%ADD16C,0.250000*%
%TD*%
G04 APERTURE END LIST*
D10*
D11*
X102500001Y-99378328D02*
X103428573Y-99378328D01*
X103428573Y-99378328D02*
X102928573Y-99949757D01*
X102928573Y-99949757D02*
X103142858Y-99949757D01*
X103142858Y-99949757D02*
X103285716Y-100021185D01*
X103285716Y-100021185D02*
X103357144Y-100092614D01*
X103357144Y-100092614D02*
X103428573Y-100235471D01*
X103428573Y-100235471D02*
X103428573Y-100592614D01*
X103428573Y-100592614D02*
X103357144Y-100735471D01*
X103357144Y-100735471D02*
X103285716Y-100806900D01*
X103285716Y-100806900D02*
X103142858Y-100878328D01*
X103142858Y-100878328D02*
X102714287Y-100878328D01*
X102714287Y-100878328D02*
X102571430Y-100806900D01*
X102571430Y-100806900D02*
X102500001Y-100735471D01*
X104000001Y-99521185D02*
X104071429Y-99449757D01*
X104071429Y-99449757D02*
X104214287Y-99378328D01*
X104214287Y-99378328D02*
X104571429Y-99378328D01*
X104571429Y-99378328D02*
X104714287Y-99449757D01*
X104714287Y-99449757D02*
X104785715Y-99521185D01*
X104785715Y-99521185D02*
X104857144Y-99664042D01*
X104857144Y-99664042D02*
X104857144Y-99806900D01*
X104857144Y-99806900D02*
X104785715Y-100021185D01*
X104785715Y-100021185D02*
X103928572Y-100878328D01*
X103928572Y-100878328D02*
X104857144Y-100878328D01*
X105500000Y-100735471D02*
X105571429Y-100806900D01*
X105571429Y-100806900D02*
X105500000Y-100878328D01*
X105500000Y-100878328D02*
X105428572Y-100806900D01*
X105428572Y-100806900D02*
X105500000Y-100735471D01*
X105500000Y-100735471D02*
X105500000Y-100878328D01*
X106500001Y-99378328D02*
X106642858Y-99378328D01*
X106642858Y-99378328D02*
X106785715Y-99449757D01*
X106785715Y-99449757D02*
X106857144Y-99521185D01*
X106857144Y-99521185D02*
X106928572Y-99664042D01*
X106928572Y-99664042D02*
X107000001Y-99949757D01*
X107000001Y-99949757D02*
X107000001Y-100306900D01*
X107000001Y-100306900D02*
X106928572Y-100592614D01*
X106928572Y-100592614D02*
X106857144Y-100735471D01*
X106857144Y-100735471D02*
X106785715Y-100806900D01*
X106785715Y-100806900D02*
X106642858Y-100878328D01*
X106642858Y-100878328D02*
X106500001Y-100878328D01*
X106500001Y-100878328D02*
X106357144Y-100806900D01*
X106357144Y-100806900D02*
X106285715Y-100735471D01*
X106285715Y-100735471D02*
X106214286Y-100592614D01*
X106214286Y-100592614D02*
X106142858Y-100306900D01*
X106142858Y-100306900D02*
X106142858Y-99949757D01*
X106142858Y-99949757D02*
X106214286Y-99664042D01*
X106214286Y-99664042D02*
X106285715Y-99521185D01*
X106285715Y-99521185D02*
X106357144Y-99449757D01*
X106357144Y-99449757D02*
X106500001Y-99378328D01*
X107928572Y-99378328D02*
X108071429Y-99378328D01*
X108071429Y-99378328D02*
X108214286Y-99449757D01*
X108214286Y-99449757D02*
X108285715Y-99521185D01*
X108285715Y-99521185D02*
X108357143Y-99664042D01*
X108357143Y-99664042D02*
X108428572Y-99949757D01*
X108428572Y-99949757D02*
X108428572Y-100306900D01*
X108428572Y-100306900D02*
X108357143Y-100592614D01*
X108357143Y-100592614D02*
X108285715Y-100735471D01*
X108285715Y-100735471D02*
X108214286Y-100806900D01*
X108214286Y-100806900D02*
X108071429Y-100878328D01*
X108071429Y-100878328D02*
X107928572Y-100878328D01*
X107928572Y-100878328D02*
X107785715Y-100806900D01*
X107785715Y-100806900D02*
X107714286Y-100735471D01*
X107714286Y-100735471D02*
X107642857Y-100592614D01*
X107642857Y-100592614D02*
X107571429Y-100306900D01*
X107571429Y-100306900D02*
X107571429Y-99949757D01*
X107571429Y-99949757D02*
X107642857Y-99664042D01*
X107642857Y-99664042D02*
X107714286Y-99521185D01*
X107714286Y-99521185D02*
X107785715Y-99449757D01*
X107785715Y-99449757D02*
X107928572Y-99378328D01*
X109357143Y-99378328D02*
X109500000Y-99378328D01*
X109500000Y-99378328D02*
X109642857Y-99449757D01*
X109642857Y-99449757D02*
X109714286Y-99521185D01*
X109714286Y-99521185D02*
X109785714Y-99664042D01*
X109785714Y-99664042D02*
X109857143Y-99949757D01*
X109857143Y-99949757D02*
X109857143Y-100306900D01*
X109857143Y-100306900D02*
X109785714Y-100592614D01*
X109785714Y-100592614D02*
X109714286Y-100735471D01*
X109714286Y-100735471D02*
X109642857Y-100806900D01*
X109642857Y-100806900D02*
X109500000Y-100878328D01*
X109500000Y-100878328D02*
X109357143Y-100878328D01*
X109357143Y-100878328D02*
X109214286Y-100806900D01*
X109214286Y-100806900D02*
X109142857Y-100735471D01*
X109142857Y-100735471D02*
X109071428Y-100592614D01*
X109071428Y-100592614D02*
X109000000Y-100306900D01*
X109000000Y-100306900D02*
X109000000Y-99949757D01*
X109000000Y-99949757D02*
X109071428Y-99664042D01*
X109071428Y-99664042D02*
X109142857Y-99521185D01*
X109142857Y-99521185D02*
X109214286Y-99449757D01*
X109214286Y-99449757D02*
X109357143Y-99378328D01*
X110785714Y-99378328D02*
X110928571Y-99378328D01*
X110928571Y-99378328D02*
X111071428Y-99449757D01*
X111071428Y-99449757D02*
X111142857Y-99521185D01*
X111142857Y-99521185D02*
X111214285Y-99664042D01*
X111214285Y-99664042D02*
X111285714Y-99949757D01*
X111285714Y-99949757D02*
X111285714Y-100306900D01*
X111285714Y-100306900D02*
X111214285Y-100592614D01*
X111214285Y-100592614D02*
X111142857Y-100735471D01*
X111142857Y-100735471D02*
X111071428Y-100806900D01*
X111071428Y-100806900D02*
X110928571Y-100878328D01*
X110928571Y-100878328D02*
X110785714Y-100878328D01*
X110785714Y-100878328D02*
X110642857Y-100806900D01*
X110642857Y-100806900D02*
X110571428Y-100735471D01*
X110571428Y-100735471D02*
X110499999Y-100592614D01*
X110499999Y-100592614D02*
X110428571Y-100306900D01*
X110428571Y-100306900D02*
X110428571Y-99949757D01*
X110428571Y-99949757D02*
X110499999Y-99664042D01*
X110499999Y-99664042D02*
X110571428Y-99521185D01*
X110571428Y-99521185D02*
X110642857Y-99449757D01*
X110642857Y-99449757D02*
X110785714Y-99378328D01*
X113071427Y-100878328D02*
X113071427Y-99878328D01*
X113071427Y-100021185D02*
X113142856Y-99949757D01*
X113142856Y-99949757D02*
X113285713Y-99878328D01*
X113285713Y-99878328D02*
X113499999Y-99878328D01*
X113499999Y-99878328D02*
X113642856Y-99949757D01*
X113642856Y-99949757D02*
X113714285Y-100092614D01*
X113714285Y-100092614D02*
X113714285Y-100878328D01*
X113714285Y-100092614D02*
X113785713Y-99949757D01*
X113785713Y-99949757D02*
X113928570Y-99878328D01*
X113928570Y-99878328D02*
X114142856Y-99878328D01*
X114142856Y-99878328D02*
X114285713Y-99949757D01*
X114285713Y-99949757D02*
X114357142Y-100092614D01*
X114357142Y-100092614D02*
X114357142Y-100878328D01*
X115071427Y-100878328D02*
X115071427Y-99878328D01*
X115071427Y-100021185D02*
X115142856Y-99949757D01*
X115142856Y-99949757D02*
X115285713Y-99878328D01*
X115285713Y-99878328D02*
X115499999Y-99878328D01*
X115499999Y-99878328D02*
X115642856Y-99949757D01*
X115642856Y-99949757D02*
X115714285Y-100092614D01*
X115714285Y-100092614D02*
X115714285Y-100878328D01*
X115714285Y-100092614D02*
X115785713Y-99949757D01*
X115785713Y-99949757D02*
X115928570Y-99878328D01*
X115928570Y-99878328D02*
X116142856Y-99878328D01*
X116142856Y-99878328D02*
X116285713Y-99949757D01*
X116285713Y-99949757D02*
X116357142Y-100092614D01*
X116357142Y-100092614D02*
X116357142Y-100878328D01*
D12*
X93500000Y-94500000D02*
X93500000Y-102586420D01*
X125500000Y-94500000D02*
X125500000Y-102586420D01*
X93500000Y-102000000D02*
X125500000Y-102000000D01*
X93500000Y-102000000D02*
X125500000Y-102000000D01*
X93500000Y-102000000D02*
X94626504Y-101413579D01*
X93500000Y-102000000D02*
X94626504Y-102586421D01*
X125500000Y-102000000D02*
X124373496Y-102586421D01*
X125500000Y-102000000D02*
X124373496Y-101413579D01*
D10*
D11*
X131378328Y-97499999D02*
X132378328Y-97499999D01*
X130806900Y-97857141D02*
X131878328Y-98214284D01*
X131878328Y-98214284D02*
X131878328Y-97285713D01*
X132235471Y-96714285D02*
X132306900Y-96642856D01*
X132306900Y-96642856D02*
X132378328Y-96714285D01*
X132378328Y-96714285D02*
X132306900Y-96785713D01*
X132306900Y-96785713D02*
X132235471Y-96714285D01*
X132235471Y-96714285D02*
X132378328Y-96714285D01*
X130878328Y-95714284D02*
X130878328Y-95571427D01*
X130878328Y-95571427D02*
X130949757Y-95428570D01*
X130949757Y-95428570D02*
X131021185Y-95357142D01*
X131021185Y-95357142D02*
X131164042Y-95285713D01*
X131164042Y-95285713D02*
X131449757Y-95214284D01*
X131449757Y-95214284D02*
X131806900Y-95214284D01*
X131806900Y-95214284D02*
X132092614Y-95285713D01*
X132092614Y-95285713D02*
X132235471Y-95357142D01*
X132235471Y-95357142D02*
X132306900Y-95428570D01*
X132306900Y-95428570D02*
X132378328Y-95571427D01*
X132378328Y-95571427D02*
X132378328Y-95714284D01*
X132378328Y-95714284D02*
X132306900Y-95857142D01*
X132306900Y-95857142D02*
X132235471Y-95928570D01*
X132235471Y-95928570D02*
X132092614Y-95999999D01*
X132092614Y-95999999D02*
X131806900Y-96071427D01*
X131806900Y-96071427D02*
X131449757Y-96071427D01*
X131449757Y-96071427D02*
X131164042Y-95999999D01*
X131164042Y-95999999D02*
X131021185Y-95928570D01*
X131021185Y-95928570D02*
X130949757Y-95857142D01*
X130949757Y-95857142D02*
X130878328Y-95714284D01*
X130878328Y-94285713D02*
X130878328Y-94142856D01*
X130878328Y-94142856D02*
X130949757Y-93999999D01*
X130949757Y-93999999D02*
X131021185Y-93928571D01*
X131021185Y-93928571D02*
X131164042Y-93857142D01*
X131164042Y-93857142D02*
X131449757Y-93785713D01*
X131449757Y-93785713D02*
X131806900Y-93785713D01*
X131806900Y-93785713D02*
X132092614Y-93857142D01*
X132092614Y-93857142D02*
X132235471Y-93928571D01*
X132235471Y-93928571D02*
X132306900Y-93999999D01*
X132306900Y-93999999D02*
X132378328Y-94142856D01*
X132378328Y-94142856D02*
X132378328Y-94285713D01*
X132378328Y-94285713D02*
X132306900Y-94428571D01*
X132306900Y-94428571D02*
X132235471Y-94499999D01*
X132235471Y-94499999D02*
X132092614Y-94571428D01*
X132092614Y-94571428D02*
X131806900Y-94642856D01*
X131806900Y-94642856D02*
X131449757Y-94642856D01*
X131449757Y-94642856D02*
X131164042Y-94571428D01*
X131164042Y-94571428D02*
X131021185Y-94499999D01*
X131021185Y-94499999D02*
X130949757Y-94428571D01*
X130949757Y-94428571D02*
X130878328Y-94285713D01*
X130878328Y-92857142D02*
X130878328Y-92714285D01*
X130878328Y-92714285D02*
X130949757Y-92571428D01*
X130949757Y-92571428D02*
X131021185Y-92500000D01*
X131021185Y-92500000D02*
X131164042Y-92428571D01*
X131164042Y-92428571D02*
X131449757Y-92357142D01*
X131449757Y-92357142D02*
X131806900Y-92357142D01*
X131806900Y-92357142D02*
X132092614Y-92428571D01*
X132092614Y-92428571D02*
X132235471Y-92500000D01*
X132235471Y-92500000D02*
X132306900Y-92571428D01*
X132306900Y-92571428D02*
X132378328Y-92714285D01*
X132378328Y-92714285D02*
X132378328Y-92857142D01*
X132378328Y-92857142D02*
X132306900Y-93000000D01*
X132306900Y-93000000D02*
X132235471Y-93071428D01*
X132235471Y-93071428D02*
X132092614Y-93142857D01*
X132092614Y-93142857D02*
X131806900Y-93214285D01*
X131806900Y-93214285D02*
X131449757Y-93214285D01*
X131449757Y-93214285D02*
X131164042Y-93142857D01*
X131164042Y-93142857D02*
X131021185Y-93071428D01*
X131021185Y-93071428D02*
X130949757Y-93000000D01*
X130949757Y-93000000D02*
X130878328Y-92857142D01*
X130878328Y-91428571D02*
X130878328Y-91285714D01*
X130878328Y-91285714D02*
X130949757Y-91142857D01*
X130949757Y-91142857D02*
X131021185Y-91071429D01*
X131021185Y-91071429D02*
X131164042Y-91000000D01*
X131164042Y-91000000D02*
X131449757Y-90928571D01*
X131449757Y-90928571D02*
X131806900Y-90928571D01*
X131806900Y-90928571D02*
X132092614Y-91000000D01*
X132092614Y-91000000D02*
X132235471Y-91071429D01*
X132235471Y-91071429D02*
X132306900Y-91142857D01*
X132306900Y-91142857D02*
X132378328Y-91285714D01*
X132378328Y-91285714D02*
X132378328Y-91428571D01*
X132378328Y-91428571D02*
X132306900Y-91571429D01*
X132306900Y-91571429D02*
X132235471Y-91642857D01*
X132235471Y-91642857D02*
X132092614Y-91714286D01*
X132092614Y-91714286D02*
X131806900Y-91785714D01*
X131806900Y-91785714D02*
X131449757Y-91785714D01*
X131449757Y-91785714D02*
X131164042Y-91714286D01*
X131164042Y-91714286D02*
X131021185Y-91642857D01*
X131021185Y-91642857D02*
X130949757Y-91571429D01*
X130949757Y-91571429D02*
X130878328Y-91428571D01*
X132378328Y-89142858D02*
X131378328Y-89142858D01*
X131521185Y-89142858D02*
X131449757Y-89071429D01*
X131449757Y-89071429D02*
X131378328Y-88928572D01*
X131378328Y-88928572D02*
X131378328Y-88714286D01*
X131378328Y-88714286D02*
X131449757Y-88571429D01*
X131449757Y-88571429D02*
X131592614Y-88500001D01*
X131592614Y-88500001D02*
X132378328Y-88500001D01*
X131592614Y-88500001D02*
X131449757Y-88428572D01*
X131449757Y-88428572D02*
X131378328Y-88285715D01*
X131378328Y-88285715D02*
X131378328Y-88071429D01*
X131378328Y-88071429D02*
X131449757Y-87928572D01*
X131449757Y-87928572D02*
X131592614Y-87857143D01*
X131592614Y-87857143D02*
X132378328Y-87857143D01*
X132378328Y-87142858D02*
X131378328Y-87142858D01*
X131521185Y-87142858D02*
X131449757Y-87071429D01*
X131449757Y-87071429D02*
X131378328Y-86928572D01*
X131378328Y-86928572D02*
X131378328Y-86714286D01*
X131378328Y-86714286D02*
X131449757Y-86571429D01*
X131449757Y-86571429D02*
X131592614Y-86500001D01*
X131592614Y-86500001D02*
X132378328Y-86500001D01*
X131592614Y-86500001D02*
X131449757Y-86428572D01*
X131449757Y-86428572D02*
X131378328Y-86285715D01*
X131378328Y-86285715D02*
X131378328Y-86071429D01*
X131378328Y-86071429D02*
X131449757Y-85928572D01*
X131449757Y-85928572D02*
X131592614Y-85857143D01*
X131592614Y-85857143D02*
X132378328Y-85857143D01*
D12*
X126000000Y-90000000D02*
X134086420Y-90000000D01*
X126000000Y-94000000D02*
X134086420Y-94000000D01*
X133500000Y-90000000D02*
X133500000Y-94000000D01*
X133500000Y-90000000D02*
X133500000Y-94000000D01*
X133500000Y-90000000D02*
X134086421Y-91126504D01*
X133500000Y-90000000D02*
X132913579Y-91126504D01*
X133500000Y-94000000D02*
X132913579Y-92873496D01*
X133500000Y-94000000D02*
X134086421Y-92873496D01*
D13*
%TO.P,J1,1,Pin_1*%
%TO.N,Net-(D1-A2)*%
X97536000Y-91948000D03*
D14*
%TO.P,J1,2,Pin_2*%
%TO.N,GND*%
X95536000Y-91948000D03*
%TD*%
D13*
%TO.P,J2,1,Pin_1*%
%TO.N,+9V*%
X119444000Y-91948000D03*
D14*
%TO.P,J2,2,Pin_2*%
%TO.N,Net-(J2-Pin_2)*%
X121444000Y-91948000D03*
%TO.P,J2,3,Pin_3*%
%TO.N,GND*%
X123444000Y-91948000D03*
%TD*%
D15*
%TO.N,GND*%
X99314000Y-90932000D03*
X106862498Y-91186000D03*
%TO.N,Net-(C2-Pad2)*%
X110744000Y-91440000D03*
X113526000Y-92075000D03*
%TO.N,Net-(U1--)*%
X108458000Y-93218000D03*
X110744000Y-93218000D03*
%TO.N,Net-(D1-A2)*%
X103886000Y-93000000D03*
%TO.N,+9V*%
X109982000Y-92456000D03*
%TD*%
D16*
%TO.N,GND*%
X107370498Y-90678000D02*
X106862498Y-91186000D01*
X106862498Y-91186000D02*
X99568000Y-91186000D01*
X99568000Y-91186000D02*
X99314000Y-90932000D01*
X123444000Y-91948000D02*
X122174000Y-90678000D01*
X122174000Y-90678000D02*
X107370498Y-90678000D01*
X95536000Y-91948000D02*
X96552000Y-90932000D01*
X96552000Y-90932000D02*
X99314000Y-90932000D01*
%TO.N,Net-(C2-Pad2)*%
X112763992Y-91440000D02*
X113526000Y-92202008D01*
X110744000Y-91440000D02*
X112763992Y-91440000D01*
%TO.N,Net-(U1--)*%
X108458000Y-93218000D02*
X110744000Y-93218000D01*
%TO.N,Net-(D1-A2)*%
X97536000Y-91948000D02*
X102834000Y-91948000D01*
X102834000Y-91948000D02*
X103886000Y-93000000D01*
%TO.N,+9V*%
X119444000Y-91948000D02*
X118174000Y-93218000D01*
X118174000Y-93218000D02*
X115570000Y-93218000D01*
X115570000Y-93218000D02*
X112639234Y-93218000D01*
X111877234Y-92456000D02*
X109982000Y-92456000D01*
X112639234Y-93218000D02*
X111877234Y-92456000D01*
%TD*%
%TA.AperFunction,Conductor*%
%TO.N,GND*%
G36*
X110191184Y-90519685D02*
G01*
X110236939Y-90572489D01*
X110246883Y-90641647D01*
X110217858Y-90705203D01*
X110197030Y-90724318D01*
X110138129Y-90767111D01*
X110011466Y-90907785D01*
X109916821Y-91071715D01*
X109916818Y-91071722D01*
X109858889Y-91250011D01*
X109858326Y-91251744D01*
X109842184Y-91405327D01*
X109838540Y-91440002D01*
X109839810Y-91452089D01*
X109827239Y-91520819D01*
X109779505Y-91571841D01*
X109742273Y-91586337D01*
X109710146Y-91593166D01*
X109702197Y-91594856D01*
X109702196Y-91594856D01*
X109702193Y-91594857D01*
X109702192Y-91594857D01*
X109529270Y-91671848D01*
X109529265Y-91671851D01*
X109376129Y-91783111D01*
X109249466Y-91923785D01*
X109154821Y-92087715D01*
X109154818Y-92087722D01*
X109097784Y-92263256D01*
X109096326Y-92267744D01*
X109089191Y-92335627D01*
X109062607Y-92400240D01*
X109005310Y-92440225D01*
X108935491Y-92442885D01*
X108915435Y-92435943D01*
X108737807Y-92356857D01*
X108737802Y-92356855D01*
X108592001Y-92325865D01*
X108552646Y-92317500D01*
X108363354Y-92317500D01*
X108330897Y-92324398D01*
X108178197Y-92356855D01*
X108178192Y-92356857D01*
X108005270Y-92433848D01*
X108005265Y-92433851D01*
X107852129Y-92545111D01*
X107725466Y-92685785D01*
X107630821Y-92849715D01*
X107630818Y-92849722D01*
X107579732Y-93006951D01*
X107572326Y-93029744D01*
X107552540Y-93218000D01*
X107560611Y-93294797D01*
X107567784Y-93363039D01*
X107555214Y-93431769D01*
X107507482Y-93482792D01*
X107444463Y-93500000D01*
X104841054Y-93500000D01*
X104774015Y-93480315D01*
X104728260Y-93427511D01*
X104718316Y-93358353D01*
X104723123Y-93337682D01*
X104743583Y-93274710D01*
X104771674Y-93188256D01*
X104791460Y-93000000D01*
X104771674Y-92811744D01*
X104713179Y-92631716D01*
X104618533Y-92467784D01*
X104491871Y-92327112D01*
X104491870Y-92327111D01*
X104338734Y-92215851D01*
X104338729Y-92215848D01*
X104165807Y-92138857D01*
X104165802Y-92138855D01*
X104020001Y-92107865D01*
X103980646Y-92099500D01*
X103980645Y-92099500D01*
X103921452Y-92099500D01*
X103854413Y-92079815D01*
X103833771Y-92063181D01*
X103334803Y-91564212D01*
X103324980Y-91551950D01*
X103324759Y-91552134D01*
X103319786Y-91546123D01*
X103316230Y-91542784D01*
X103269364Y-91498773D01*
X103258919Y-91488328D01*
X103248475Y-91477883D01*
X103242986Y-91473625D01*
X103238561Y-91469847D01*
X103204582Y-91437938D01*
X103204580Y-91437936D01*
X103204577Y-91437935D01*
X103187029Y-91428288D01*
X103170763Y-91417604D01*
X103154933Y-91405325D01*
X103112168Y-91386818D01*
X103106922Y-91384248D01*
X103066093Y-91361803D01*
X103066092Y-91361802D01*
X103046693Y-91356822D01*
X103028281Y-91350518D01*
X103009898Y-91342562D01*
X103009892Y-91342560D01*
X102963874Y-91335272D01*
X102958152Y-91334087D01*
X102913021Y-91322500D01*
X102913019Y-91322500D01*
X102892984Y-91322500D01*
X102873586Y-91320973D01*
X102866162Y-91319797D01*
X102853805Y-91317840D01*
X102853804Y-91317840D01*
X102807416Y-91322225D01*
X102801578Y-91322500D01*
X98833351Y-91322500D01*
X98766312Y-91302815D01*
X98720557Y-91250011D01*
X98710061Y-91211752D01*
X98705091Y-91165516D01*
X98654797Y-91030671D01*
X98654793Y-91030664D01*
X98568547Y-90915455D01*
X98568544Y-90915452D01*
X98453335Y-90829206D01*
X98453328Y-90829202D01*
X98318482Y-90778908D01*
X98318483Y-90778908D01*
X98258883Y-90772501D01*
X98258881Y-90772500D01*
X98258873Y-90772500D01*
X98258864Y-90772500D01*
X96813129Y-90772500D01*
X96813123Y-90772501D01*
X96753516Y-90778908D01*
X96618671Y-90829202D01*
X96618664Y-90829206D01*
X96503455Y-90915452D01*
X96503452Y-90915455D01*
X96440913Y-90998997D01*
X96384980Y-91040868D01*
X96315288Y-91045852D01*
X96258109Y-91016323D01*
X96247130Y-91006314D01*
X96247125Y-91006310D01*
X96061987Y-90891677D01*
X96061985Y-90891676D01*
X95858931Y-90813013D01*
X95858921Y-90813010D01*
X95786001Y-90799378D01*
X95786000Y-90799379D01*
X95786000Y-91777027D01*
X95779552Y-91764078D01*
X95696666Y-91688516D01*
X95592080Y-91648000D01*
X95508198Y-91648000D01*
X95425750Y-91663412D01*
X95330390Y-91722457D01*
X95262799Y-91811962D01*
X95232105Y-91919840D01*
X95242454Y-92031521D01*
X95292448Y-92131922D01*
X95375334Y-92207484D01*
X95479920Y-92248000D01*
X95563802Y-92248000D01*
X95646250Y-92232588D01*
X95741610Y-92173543D01*
X95786000Y-92114761D01*
X95786000Y-93096619D01*
X95858939Y-93082984D01*
X96061976Y-93004327D01*
X96061987Y-93004322D01*
X96247127Y-92889687D01*
X96258106Y-92879679D01*
X96320909Y-92849060D01*
X96390297Y-92857256D01*
X96440913Y-92897003D01*
X96503452Y-92980544D01*
X96503455Y-92980547D01*
X96618664Y-93066793D01*
X96618671Y-93066797D01*
X96753517Y-93117091D01*
X96753516Y-93117091D01*
X96760444Y-93117835D01*
X96813127Y-93123500D01*
X98258872Y-93123499D01*
X98318483Y-93117091D01*
X98453331Y-93066796D01*
X98568546Y-92980546D01*
X98654796Y-92865331D01*
X98705091Y-92730483D01*
X98710062Y-92684242D01*
X98736799Y-92619694D01*
X98794191Y-92579846D01*
X98833351Y-92573500D01*
X102523548Y-92573500D01*
X102590587Y-92593185D01*
X102611229Y-92609819D01*
X102947038Y-92945628D01*
X102980523Y-93006951D01*
X102982678Y-93020347D01*
X102983666Y-93029744D01*
X103000326Y-93188256D01*
X103000327Y-93188259D01*
X103048877Y-93337682D01*
X103050872Y-93407523D01*
X103014791Y-93467356D01*
X102952090Y-93498184D01*
X102930946Y-93500000D01*
X94124000Y-93500000D01*
X94056961Y-93480315D01*
X94011206Y-93427511D01*
X94000000Y-93376000D01*
X94000000Y-92198000D01*
X94385495Y-92198000D01*
X94435651Y-92374280D01*
X94532715Y-92569208D01*
X94663945Y-92742985D01*
X94824868Y-92889685D01*
X95010012Y-93004322D01*
X95010023Y-93004327D01*
X95213060Y-93082984D01*
X95286000Y-93096619D01*
X95286000Y-92198000D01*
X94385495Y-92198000D01*
X94000000Y-92198000D01*
X94000000Y-91697999D01*
X94385494Y-91697999D01*
X94385495Y-91698000D01*
X95286000Y-91698000D01*
X95286000Y-90799379D01*
X95285998Y-90799378D01*
X95213078Y-90813010D01*
X95213068Y-90813013D01*
X95010014Y-90891676D01*
X95010012Y-90891677D01*
X94824869Y-91006314D01*
X94824868Y-91006314D01*
X94663945Y-91153014D01*
X94532715Y-91326791D01*
X94435651Y-91521719D01*
X94385494Y-91697999D01*
X94000000Y-91697999D01*
X94000000Y-90624000D01*
X94019685Y-90556961D01*
X94072489Y-90511206D01*
X94124000Y-90500000D01*
X110124145Y-90500000D01*
X110191184Y-90519685D01*
G37*
%TD.AperFunction*%
%TA.AperFunction,Conductor*%
G36*
X124943039Y-90519685D02*
G01*
X124988794Y-90572489D01*
X125000000Y-90624000D01*
X125000000Y-93376000D01*
X124980315Y-93443039D01*
X124927511Y-93488794D01*
X124876000Y-93500000D01*
X119075951Y-93500000D01*
X119008912Y-93480315D01*
X118963157Y-93427511D01*
X118953213Y-93358353D01*
X118982238Y-93294797D01*
X118988270Y-93288319D01*
X119116771Y-93159818D01*
X119178094Y-93126333D01*
X119204452Y-93123499D01*
X120166871Y-93123499D01*
X120166872Y-93123499D01*
X120226483Y-93117091D01*
X120361331Y-93066796D01*
X120476546Y-92980546D01*
X120538785Y-92897404D01*
X120594718Y-92855535D01*
X120664410Y-92850551D01*
X120721588Y-92880078D01*
X120732568Y-92890088D01*
X120732570Y-92890089D01*
X120732571Y-92890090D01*
X120917786Y-93004770D01*
X120917792Y-93004773D01*
X120940664Y-93013633D01*
X121120931Y-93083470D01*
X121335074Y-93123500D01*
X121335076Y-93123500D01*
X121552924Y-93123500D01*
X121552926Y-93123500D01*
X121767069Y-93083470D01*
X121970210Y-93004772D01*
X122155432Y-92890088D01*
X122316427Y-92743322D01*
X122345359Y-92705009D01*
X122401465Y-92663373D01*
X122471177Y-92658680D01*
X122532360Y-92692421D01*
X122543267Y-92705009D01*
X122571942Y-92742981D01*
X122571949Y-92742989D01*
X122732868Y-92889685D01*
X122918012Y-93004322D01*
X122918023Y-93004327D01*
X123121060Y-93082984D01*
X123194000Y-93096619D01*
X123194000Y-92118972D01*
X123200448Y-92131922D01*
X123283334Y-92207484D01*
X123387920Y-92248000D01*
X123471802Y-92248000D01*
X123554250Y-92232588D01*
X123610111Y-92198000D01*
X123694000Y-92198000D01*
X123694000Y-93096619D01*
X123766939Y-93082984D01*
X123969976Y-93004327D01*
X123969987Y-93004322D01*
X124155130Y-92889685D01*
X124155131Y-92889685D01*
X124316054Y-92742985D01*
X124447284Y-92569208D01*
X124544348Y-92374280D01*
X124594505Y-92198000D01*
X123694000Y-92198000D01*
X123610111Y-92198000D01*
X123649610Y-92173543D01*
X123717201Y-92084038D01*
X123747895Y-91976160D01*
X123737546Y-91864479D01*
X123687552Y-91764078D01*
X123615069Y-91698000D01*
X123694000Y-91698000D01*
X124594505Y-91698000D01*
X124594505Y-91697999D01*
X124544348Y-91521719D01*
X124447284Y-91326791D01*
X124316054Y-91153014D01*
X124155131Y-91006314D01*
X123969987Y-90891677D01*
X123969985Y-90891676D01*
X123766931Y-90813013D01*
X123766921Y-90813010D01*
X123694001Y-90799378D01*
X123694000Y-90799379D01*
X123694000Y-91698000D01*
X123615069Y-91698000D01*
X123604666Y-91688516D01*
X123500080Y-91648000D01*
X123416198Y-91648000D01*
X123333750Y-91663412D01*
X123238390Y-91722457D01*
X123194000Y-91781238D01*
X123194000Y-90799379D01*
X123193998Y-90799378D01*
X123121078Y-90813010D01*
X123121068Y-90813013D01*
X122918014Y-90891676D01*
X122918012Y-90891677D01*
X122732869Y-91006314D01*
X122732868Y-91006314D01*
X122571945Y-91153014D01*
X122543267Y-91190990D01*
X122487157Y-91232626D01*
X122417445Y-91237317D01*
X122356264Y-91203575D01*
X122345359Y-91190990D01*
X122332906Y-91174500D01*
X122316427Y-91152678D01*
X122289016Y-91127690D01*
X122193777Y-91040868D01*
X122155432Y-91005912D01*
X122155428Y-91005909D01*
X122155423Y-91005906D01*
X121970213Y-90891229D01*
X121970207Y-90891226D01*
X121873603Y-90853802D01*
X121767069Y-90812530D01*
X121552926Y-90772500D01*
X121335074Y-90772500D01*
X121120931Y-90812530D01*
X121085937Y-90826087D01*
X120917792Y-90891226D01*
X120917786Y-90891229D01*
X120732565Y-91005913D01*
X120721585Y-91015923D01*
X120658780Y-91046537D01*
X120589393Y-91038336D01*
X120538785Y-90998594D01*
X120511263Y-90961830D01*
X120476546Y-90915454D01*
X120476544Y-90915453D01*
X120476544Y-90915452D01*
X120361335Y-90829206D01*
X120361328Y-90829202D01*
X120226482Y-90778908D01*
X120226483Y-90778908D01*
X120166883Y-90772501D01*
X120166881Y-90772500D01*
X120166873Y-90772500D01*
X120166864Y-90772500D01*
X118721129Y-90772500D01*
X118721123Y-90772501D01*
X118661516Y-90778908D01*
X118526671Y-90829202D01*
X118526664Y-90829206D01*
X118411455Y-90915452D01*
X118411452Y-90915455D01*
X118325206Y-91030664D01*
X118325202Y-91030671D01*
X118274908Y-91165517D01*
X118268501Y-91225116D01*
X118268500Y-91225135D01*
X118268500Y-92187546D01*
X118248815Y-92254585D01*
X118232181Y-92275227D01*
X117951228Y-92556181D01*
X117889905Y-92589666D01*
X117863547Y-92592500D01*
X114475367Y-92592500D01*
X114408328Y-92572815D01*
X114362573Y-92520011D01*
X114352629Y-92450853D01*
X114357436Y-92430182D01*
X114358489Y-92426941D01*
X114411674Y-92263256D01*
X114431460Y-92075000D01*
X114411674Y-91886744D01*
X114353179Y-91706716D01*
X114258533Y-91542784D01*
X114131871Y-91402112D01*
X114109224Y-91385658D01*
X113978734Y-91290851D01*
X113978729Y-91290848D01*
X113805807Y-91213857D01*
X113805802Y-91213855D01*
X113660001Y-91182865D01*
X113620646Y-91174500D01*
X113434445Y-91174500D01*
X113367406Y-91154815D01*
X113346764Y-91138181D01*
X113264795Y-91056212D01*
X113254972Y-91043950D01*
X113254751Y-91044134D01*
X113249778Y-91038123D01*
X113199356Y-90990773D01*
X113188911Y-90980328D01*
X113178467Y-90969883D01*
X113172978Y-90965625D01*
X113168553Y-90961847D01*
X113134574Y-90929938D01*
X113134572Y-90929936D01*
X113134569Y-90929935D01*
X113117021Y-90920288D01*
X113100755Y-90909604D01*
X113084925Y-90897325D01*
X113042160Y-90878818D01*
X113036914Y-90876248D01*
X112996085Y-90853803D01*
X112996084Y-90853802D01*
X112976685Y-90848822D01*
X112958273Y-90842518D01*
X112939890Y-90834562D01*
X112939884Y-90834560D01*
X112893866Y-90827272D01*
X112888144Y-90826087D01*
X112843013Y-90814500D01*
X112843011Y-90814500D01*
X112822976Y-90814500D01*
X112803578Y-90812973D01*
X112796154Y-90811797D01*
X112783797Y-90809840D01*
X112783796Y-90809840D01*
X112737408Y-90814225D01*
X112731570Y-90814500D01*
X111447748Y-90814500D01*
X111380709Y-90794815D01*
X111355600Y-90773474D01*
X111349873Y-90767114D01*
X111349872Y-90767113D01*
X111349871Y-90767112D01*
X111290970Y-90724318D01*
X111248304Y-90668988D01*
X111242325Y-90599375D01*
X111274930Y-90537580D01*
X111335769Y-90503223D01*
X111363855Y-90500000D01*
X124876000Y-90500000D01*
X124943039Y-90519685D01*
G37*
%TD.AperFunction*%
%TD*%
M02*
